<svg width="393" height="852" viewBox="0 0 393 852" fill="none" xmlns="http://www.w3.org/2000/svg">
<g clip-path="url(#clip0_16_238)">
<rect width="393" height="852" fill="white"/>
<path d="M0 0H393V852H0V0Z" fill="url(#paint0_linear_16_238)"/>
<g clip-path="url(#clip1_16_238)">
<path d="M197.663 885.614L197.641 885.534L197.657 885.602C197.324 884.108 196.825 882.632 196.165 881.184C195.78 880.94 195.438 880.619 195.166 880.223C194.721 879.59 194.519 878.863 194.519 878.146C193.253 876.17 191.712 874.448 189.971 872.989C188.446 871.72 188.252 869.464 189.523 867.945C190.789 866.426 193.049 866.227 194.564 867.49C196.298 868.945 197.885 870.61 199.276 872.456C200.392 871.309 201.397 870.057 202.252 868.684C204.112 865.69 205.293 862.227 205.562 858.454L205.564 858.451C205.875 854.131 204.955 850.042 203.098 846.471C201.473 843.347 199.133 840.639 196.27 838.582C194.367 841.152 192.029 843.465 189.265 845.382C187.641 846.511 185.407 846.112 184.275 844.486C183.146 842.863 183.545 840.629 185.171 839.497C187.825 837.647 189.96 835.356 191.573 832.781C191.804 832.411 192.016 832.033 192.229 831.655C194.251 827.959 195.213 823.76 195.025 819.567C194.836 815.369 193.513 811.195 190.934 807.487C189.089 804.826 186.791 802.686 184.215 801.082C179.281 798.01 173.317 796.932 167.625 798.041C166.872 800.759 165.735 803.418 164.172 805.929C163.127 807.607 160.917 808.118 159.239 807.073C157.557 806.026 157.041 803.818 158.086 802.14C159.621 799.674 160.622 797.056 161.148 794.369L161.147 794.373C162.03 789.831 161.505 785.14 159.718 780.94C157.931 776.74 154.902 773.049 150.727 770.449C147.094 768.187 143.103 767.065 139.128 766.973C135.949 766.898 132.788 767.498 129.857 768.697C130.304 774.839 128.873 781.187 125.372 786.807C124.327 788.485 122.119 788.997 120.439 787.951C118.756 786.903 118.241 784.695 119.286 783.017C122.363 778.072 123.343 772.445 122.464 767.131L122.461 767.125C121.42 760.798 117.779 754.975 111.919 751.321C107.843 748.787 103.319 747.681 98.8651 747.856C94.4171 748.033 90.0604 749.496 86.3914 752.108C84.0004 753.82 81.8803 756.03 80.2217 758.693C79.1765 760.372 76.9705 760.884 75.2888 759.837C73.6087 758.791 73.0928 756.583 74.1377 754.905C75.675 752.436 77.523 750.269 79.5829 748.411C77.8706 746.053 75.7099 744.003 73.16 742.416C71.7176 741.518 70.1474 740.77 68.4701 740.191C63.5195 738.489 58.4265 738.568 53.8158 740.08C50.4854 741.17 47.4307 743.023 44.9006 745.492C51.1198 749.527 55.8929 755.866 57.7828 763.628C58.2516 765.549 57.0742 767.488 55.1509 767.956C53.2298 768.425 51.2904 767.245 50.819 765.326C49.3308 759.232 45.5637 754.318 40.6303 751.237C39.7457 750.686 38.8233 750.202 37.8775 749.771L37.8644 749.767L37.8596 749.764L37.8564 749.762C33.3581 747.747 28.1979 747.152 23.0208 748.405C16.9233 749.894 12.0212 753.653 8.94367 758.593C7.17962 761.426 6.02664 764.644 5.62116 768.02C5.3016 770.683 5.4425 773.443 6.11325 776.207L6.11445 776.212C6.87555 779.358 8.25149 782.179 10.0755 784.61C11.267 786.186 10.9479 788.434 9.36512 789.624C7.78235 790.814 5.53495 790.498 4.3477 788.915C1.95333 785.736 0.143231 782.013 -0.853564 777.899C-1.28879 776.094 -1.55663 774.284 -1.66245 772.489C-6.01242 774.351 -9.70953 777.515 -12.2046 781.522C-14.1371 784.629 -15.3513 788.229 -15.6134 792.15C-15.9011 796.548 -14.9446 800.709 -13.0379 804.339C-11.5278 807.215 -9.41271 809.737 -6.86904 811.745L-6.76479 811.566C-5.7622 809.956 -4.62806 808.469 -3.39356 807.116C-2.05901 805.654 0.206997 805.553 1.66954 806.883C3.13477 808.216 3.2339 810.489 1.90094 811.952C0.954042 812.987 0.0870288 814.121 -0.680626 815.354C-0.97224 815.823 -1.24596 816.302 -1.50498 816.791C-1.77913 817.311 -2.02262 817.818 -2.22919 818.317L-2.24012 818.342L-2.25106 818.366C-6.80694 828.786 -2.99786 841.048 6.66373 847.064C7.1257 847.351 7.6064 847.623 8.09701 847.883L8.10179 847.886C12.5779 850.245 17.4547 850.984 22.0992 850.31C25.3793 849.834 28.5333 848.661 31.3264 846.861C32.9893 845.789 35.2091 846.269 36.2806 847.933C37.3518 849.598 36.8725 851.813 35.2094 852.886C32.2056 854.821 28.8926 856.188 25.4345 856.968C24.3465 861.383 24.6218 865.946 26.0892 870.114C27.7789 874.899 31.0259 879.114 35.5927 881.958C36.0546 882.246 36.5276 882.522 37.0249 882.782L37.0297 882.785C40.059 884.378 43.254 885.221 46.4379 885.402C47.1555 883.416 48.0647 881.495 49.1906 879.687C51.5156 875.953 54.7057 872.667 58.6611 870.165C60.335 869.1 62.5482 869.602 63.6065 871.273C64.6653 872.943 64.171 875.158 62.4987 876.216C59.4613 878.143 57.0447 880.632 55.2745 883.475C54.033 885.469 53.1112 887.639 52.5295 889.895L52.5291 889.899C50.9926 895.839 51.8174 902.365 55.367 907.965C57.2833 910.994 59.7727 913.411 62.6173 915.183C67.1253 917.99 72.5213 919.16 77.7917 918.47L77.8068 918.471C81.0188 918.043 84.1817 916.943 87.1011 915.095L87.1105 915.087C89.8413 913.362 92.0747 911.16 93.7965 908.648C94.9162 907.016 97.1477 906.6 98.7848 907.719C100.411 908.84 100.829 911.068 99.7121 912.702C97.4533 915.99 94.5102 918.896 90.9367 921.149L90.9418 921.147C88.059 922.972 84.9812 924.247 81.8299 925.002C82.2055 932.394 86.1568 939.35 92.6117 943.365C93.8115 944.112 95.0995 944.756 96.4704 945.294C101.717 947.328 107.222 947.316 112.171 945.645C117.117 943.973 121.463 940.639 124.325 936.043C124.414 935.9 124.498 935.758 124.577 935.622L124.589 935.603C125.221 934.552 125.783 933.404 126.251 932.188C127.376 929.3 127.848 926.339 127.795 923.417C126.909 920.461 126.123 916.838 125.632 913.039C125.113 908.993 124.909 904.799 125.39 900.995C125.729 898.458 126.333 896.066 127.634 893.948C128.216 893.014 128.957 892.135 129.88 891.415C130.806 890.696 131.924 890.146 133.124 889.873L133.122 889.876C135.05 889.425 136.975 890.624 137.422 892.554C137.872 894.477 136.669 896.409 134.744 896.854C134.55 896.904 134.435 896.959 134.281 897.075C134.126 897.195 133.933 897.396 133.72 897.737C133.232 898.493 132.737 899.991 132.501 901.907C132.255 903.816 132.228 906.115 132.388 908.503C132.689 913.276 133.728 918.428 134.804 921.833L134.948 922.298L134.969 922.779C135.107 926.761 134.469 930.845 132.935 934.787L132.933 934.791C132.713 935.354 132.463 935.893 132.212 936.441C132.503 936.64 132.793 936.856 133.099 937.047C136.961 939.447 141.552 940.722 146.463 940.448C150.365 940.233 153.959 939.064 157.077 937.182C160.196 935.296 162.827 932.696 164.737 929.621C166.529 926.742 167.682 923.456 168.056 919.956C166.621 919.6 165.214 919.149 163.841 918.591C162.007 917.847 161.126 915.754 161.869 913.915C162.62 912.085 164.711 911.207 166.544 911.952C172.513 914.377 179.393 914.31 185.588 911.176C189.494 909.207 192.578 906.285 194.735 902.829C197.89 897.762 199.01 891.563 197.663 885.614ZM72.7012 775.578C77.751 773.955 83.1327 773.917 88.2741 774.902C93.4238 775.892 98.3677 777.901 102.645 780.564C106.808 783.161 110.354 786.366 112.783 790.045C113.869 791.697 113.41 793.92 111.757 795.008C110.1 796.097 107.878 795.635 106.79 793.983C105.12 791.421 102.306 788.789 98.8578 786.647C95.3191 784.443 91.1273 782.744 86.9255 781.943C82.7215 781.13 78.5321 781.225 74.898 782.398L74.8961 782.401C73.0172 783.005 70.9951 781.972 70.3883 780.086C69.7829 778.202 70.8172 776.183 72.7012 775.578ZM97.1612 890.641C93.6217 888.445 90.6592 886.046 88.1501 883.54C87.7106 884.427 87.1888 885.388 86.5709 886.38C85.3337 888.367 83.7106 890.502 81.5988 892.492C79.4907 894.479 76.883 896.321 73.7277 897.688C71.9128 898.471 69.8038 897.637 69.0148 895.818C68.2299 894.003 69.0636 891.895 70.8844 891.106C73.2018 890.103 75.1018 888.762 76.684 887.275C78.2655 885.785 79.5186 884.147 80.4868 882.592C81.8231 880.449 82.6089 878.47 83.0001 877.323C81.9347 875.726 81.0278 874.105 80.2714 872.478C77.2371 866.003 76.5381 859.529 76.9757 854.046C77.2663 850.386 78.0575 847.15 79.0444 844.533C79.604 843.04 80.2279 841.744 80.9102 840.649C81.9573 838.967 84.1665 838.452 85.8498 839.5C87.5299 840.546 88.0428 842.756 86.9957 844.438C86.4355 845.326 85.7065 846.921 85.1444 848.9C84.5728 850.887 84.142 853.286 84.0468 855.908C83.8566 861.161 84.9673 867.241 88.8358 873.149C91.4213 877.097 95.2614 881.009 100.95 884.555C102.63 885.602 103.145 887.813 102.1 889.491C101.053 891.172 98.8413 891.687 97.1612 890.641ZM132.417 881.761C130.819 882.928 128.576 882.587 127.406 880.987C126.238 879.398 126.576 877.167 128.162 875.988L128.164 875.984L128.213 875.952C128.264 875.911 128.35 875.839 128.469 875.741C128.701 875.551 129.053 875.238 129.463 874.834C130.295 874.02 131.37 872.808 132.298 871.318L132.424 871.094C127.374 869.918 123.088 868.147 119.515 865.922C114.111 862.567 110.366 858.181 107.963 853.566C105.553 848.947 104.447 844.128 104.113 839.735C103.735 834.739 102.346 829.612 99.9249 825.081C97.4991 820.546 94.0701 816.615 89.5736 813.811C85.619 811.362 80.823 809.739 74.9507 809.409C69.3804 809.109 64.8105 810.479 61.0107 812.735C57.2232 814.994 54.2337 818.197 52.1715 821.513C50.2493 824.581 49.1642 827.76 48.9137 830.046C48.6846 832.016 46.9077 833.423 44.9391 833.2C42.9764 832.971 41.5621 831.196 41.7894 829.226C42.22 825.599 43.6768 821.613 46.0869 817.724C48.4885 813.871 51.8768 810.14 56.2584 807.276C51.9539 805.783 48.2125 803.981 45.0159 801.986C43.2885 800.915 41.7388 799.783 40.3079 798.63C39.9496 798.967 39.5196 799.241 39.0252 799.407L39.0219 799.409L39.0187 799.407L38.9545 799.431C38.8934 799.456 38.792 799.492 38.6586 799.54C38.3888 799.643 37.9793 799.808 37.4564 800.028C36.4154 800.467 34.9215 801.153 33.1767 802.102C29.6883 803.993 25.2313 806.936 21.4198 810.995C20.0661 812.44 17.7948 812.511 16.354 811.153C14.9112 809.799 14.8393 807.533 16.1981 806.087C20.7278 801.27 25.7997 797.952 29.7526 795.804C31.8086 794.687 33.5539 793.892 34.7923 793.372C32.7744 791.082 31.1931 788.834 30.0191 786.816C27.3395 782.195 26.5773 778.755 26.5152 778.478C26.1026 776.541 27.3375 774.639 29.2707 774.227C31.2024 773.814 33.0992 775.044 33.5179 776.966L33.523 776.965L33.5341 777.013L33.61 777.308C33.6876 777.582 33.8227 778.014 34.0249 778.573C34.4278 779.695 35.1176 781.321 36.2178 783.207C38.4194 786.988 42.232 791.804 48.8027 795.905C53.4184 798.779 59.4221 801.293 67.2661 802.802C69.8022 802.309 72.4973 802.091 75.3471 802.254C82.3298 802.635 88.3793 804.623 93.3597 807.729C99.0421 811.268 103.31 816.214 106.244 821.705C109.178 827.206 110.806 833.258 111.26 839.191C111.534 842.792 112.442 846.665 114.315 850.247C116.196 853.833 119.007 857.158 123.302 859.838C126.241 861.668 129.903 863.195 134.474 864.212C134.486 862.171 134.002 859.896 132.552 857.216C131.603 855.478 132.248 853.297 133.983 852.352C135.721 851.402 137.898 852.045 138.846 853.778C141.183 858.049 141.92 862.236 141.57 865.909C141.232 869.59 139.887 872.692 138.382 875.109C135.746 879.315 132.631 881.591 132.417 881.761ZM154.49 843.774C147.378 839.35 142.354 833.559 139.131 827.521C137.811 828.071 136.093 828.708 134.027 829.295C129.397 830.6 123.138 831.627 116.513 830.201C114.578 829.782 113.352 827.872 113.772 825.936C114.194 824.001 116.1 822.776 118.035 823.196C122.905 824.265 127.991 823.541 131.888 822.452C133.678 821.959 135.19 821.393 136.323 820.925C134.894 816.515 134.326 812.153 134.553 808.179C134.783 804.359 135.716 800.868 137.49 798.001C138.535 796.323 140.742 795.81 142.422 796.856C144.102 797.903 144.618 800.111 143.574 801.789C142.608 803.323 141.87 805.711 141.708 808.594C141.538 811.48 141.917 814.84 142.985 818.294C145.122 825.212 149.917 832.482 158.279 837.689C159.958 838.734 160.472 840.945 159.425 842.626C158.378 844.309 156.169 844.819 154.49 843.774ZM151.798 901.551C149.919 902.177 147.886 901.165 147.258 899.289C146.63 897.413 147.642 895.38 149.519 894.752C155.341 892.781 159.093 889.493 161.524 885.613C163.732 882.081 164.784 877.992 164.874 874.063C164.979 870.133 164.093 866.396 162.658 863.728C161.708 861.94 160.538 860.666 159.417 859.972C157.735 858.925 157.219 856.717 158.267 855.035C159.311 853.357 161.523 852.843 163.204 853.89C165.058 855.044 166.585 856.623 167.831 858.449C169.075 860.271 170.039 862.348 170.738 864.588C172.127 869.064 172.477 874.206 171.494 879.358C170.84 882.792 169.589 886.229 167.613 889.403C164.37 894.633 159.108 899.111 151.798 901.551Z" fill="black" fill-opacity="0.08"/>
</g>
<g clip-path="url(#clip2_16_238)">
<path d="M395.413 65.4439C393.9 65.537 392.748 66.8393 392.84 68.3528C392.934 69.8662 394.238 71.0217 395.753 70.9275C398.082 70.7915 399.822 71.1979 401.233 71.8687C399.041 74.7104 396.79 76.7554 394.566 78.1998C391.309 80.3107 388.088 81.1805 384.988 81.3221C381.892 81.4568 378.91 80.8289 376.321 79.8487C372.055 78.2333 367.326 77.3975 362.553 77.6465C357.79 77.8983 352.969 79.2529 348.667 82.0472C344.892 84.4948 341.546 88.0484 339.012 92.7705C337.974 94.6994 337.249 96.6393 336.765 98.5565C333.171 103.514 329.472 106.86 325.978 109.129C321.001 112.362 316.414 113.439 313.075 113.739C311.408 113.89 310.056 113.841 309.148 113.759C308.692 113.715 308.349 113.669 308.133 113.633L307.903 113.589L307.867 113.583L307.866 113.584C306.395 113.251 304.927 114.171 304.584 115.644C304.242 117.12 305.163 118.596 306.64 118.938C306.853 118.985 309.489 119.577 313.564 119.214C315.347 119.055 317.423 118.689 319.668 118.033C319.625 119.059 319.611 120.529 319.717 122.319C319.925 125.764 320.58 130.363 322.452 135.075C323.011 136.482 324.608 137.17 326.018 136.611C327.427 136.049 328.116 134.451 327.553 133.042C325.975 129.076 325.38 125.026 325.201 121.99C325.109 120.472 325.119 119.21 325.153 118.345C325.169 117.911 325.189 117.574 325.206 117.353C325.215 117.246 325.222 117.162 325.226 117.113L325.232 117.063L325.233 117.058L325.232 117.054C325.276 116.657 325.228 116.272 325.109 115.913C326.375 115.296 327.664 114.585 328.968 113.734C331.392 112.164 333.859 110.155 336.294 107.651C336.86 111.623 338.346 115.187 340.241 118.107C342.156 121.044 344.449 123.349 346.827 124.827C348.119 125.625 349.811 125.222 350.608 123.932C351.406 122.642 351.004 120.948 349.713 120.153L349.711 120.15C348.204 119.232 346.352 117.446 344.849 115.115C343.217 112.607 341.965 109.492 341.627 106.127C341.295 102.757 341.83 99.1405 343.849 95.3695C345.987 91.4001 348.67 88.5998 351.659 86.6549C355.064 84.4437 358.91 83.3438 362.843 83.1313C366.776 82.9239 370.784 83.6242 374.374 84.9855C377.533 86.1827 381.239 86.9827 385.228 86.8102C389.21 86.6415 393.471 85.4651 397.558 82.8069C400.263 81.05 402.884 78.6511 405.342 75.5269L405.457 75.6875C406.189 76.8154 406.68 77.9565 406.976 78.7968C407.125 79.2165 407.224 79.5597 407.284 79.7848C407.313 79.8964 407.333 79.9795 407.343 80.0273L407.353 80.0715L407.356 80.078L407.357 80.0772C407.656 81.5582 409.096 82.5197 410.581 82.227C412.068 81.9327 413.036 80.4855 412.742 78.9978C412.693 78.7944 412.127 75.8924 410.063 72.6953C408.875 70.8647 407.158 68.9238 404.716 67.4927C402.282 66.0578 399.135 65.2057 395.413 65.4439Z" fill="black" fill-opacity="0.08"/>
<path d="M390.56 46.7244C384.228 50.8365 377.628 51.8066 372.128 51.0383C369.384 50.6548 366.928 49.8276 364.983 48.7741C363.031 47.7204 361.614 46.4331 360.865 45.2661C360.038 43.9935 358.337 43.6335 357.065 44.4597C355.793 45.2858 355.431 46.9854 356.257 48.258C357.671 50.4208 359.79 52.2011 362.365 53.601C365.053 55.0542 368.263 56.0748 371.791 56.5203C371.746 57.4562 371.646 58.6886 371.408 60.0933C370.897 63.149 369.746 66.9144 367.422 69.9475C366.501 71.1537 366.734 72.879 367.938 73.7962C369.145 74.7171 370.87 74.487 371.789 73.281C374.931 69.146 376.255 64.4672 376.852 60.83C377.116 59.2065 377.232 57.8052 377.28 56.7122C382.52 56.4363 388.17 54.8319 393.553 51.332C394.824 50.5067 395.188 48.8054 394.362 47.5328C393.535 46.2616 391.831 45.899 390.56 46.7244Z" fill="black" fill-opacity="0.08"/>
<path d="M404.458 101.748C400.148 104.547 396.183 105.938 392.605 106.453C387.245 107.214 382.664 106.009 379.078 104.169C377.291 103.252 375.767 102.172 374.572 101.131C373.38 100.096 372.512 99.0735 372.076 98.3956C371.25 97.1233 369.55 96.7615 368.278 97.5879C367.004 98.4152 366.643 100.115 367.469 101.387C368.008 102.217 368.703 103.071 369.561 103.949C371.055 105.48 373.045 107.08 375.489 108.472C379.155 110.558 383.874 112.177 389.356 112.177C390.731 112.182 392.148 112.076 393.606 111.859C394.273 112.501 395.391 113.688 396.443 115.313C397.21 116.494 397.938 117.893 398.457 119.475C398.976 121.055 399.288 122.809 399.233 124.746C399.189 126.265 400.381 127.53 401.898 127.574C403.414 127.617 404.68 126.426 404.725 124.911C404.802 122.276 404.371 119.869 403.677 117.759C402.983 115.646 402.028 113.827 401.05 112.321C400.562 111.569 400.068 110.899 399.592 110.302C402.148 109.377 404.775 108.098 407.451 106.356C408.722 105.531 409.083 103.827 408.257 102.555C407.432 101.285 405.729 100.922 404.458 101.748Z" fill="black" fill-opacity="0.08"/>
<path d="M325.088 86.6315L325.086 86.6285C325.451 83.7261 326.751 80.7921 328.678 78.1344C330.599 75.4765 333.141 73.1207 335.822 71.3839C338.428 69.6832 341.17 68.5865 343.491 68.2589C344.992 68.0396 346.034 66.6495 345.817 65.1451C345.6 63.6446 344.208 62.6058 342.706 62.8206C339.363 63.3085 335.986 64.7293 332.83 66.7753C329.591 68.8783 326.592 71.6573 324.229 74.908C321.875 78.1571 320.152 81.9045 319.637 85.9362C319.445 87.4415 320.511 88.818 322.016 89.0083C323.521 89.2019 324.895 88.1336 325.088 86.6315Z" fill="black" fill-opacity="0.08"/>
<path d="M438.677 25.5751C438.001 25.4263 437.309 25.3174 436.616 25.2184C436.009 23.7779 435.29 22.3769 434.424 21.0425C432.129 17.5049 428.947 14.4506 425.033 12.2662C420.552 9.75758 415.617 8.66396 410.818 8.868C407.46 9.0089 404.17 9.78572 401.114 11.1362C398.892 9.18404 396.363 7.59427 393.609 6.44938C389.023 4.54199 383.827 3.87038 378.586 4.76787C374.838 5.40994 371.37 6.80156 368.35 8.76273C368.35 8.76273 368.255 8.8202 368.095 8.94529C364.289 11.4803 361.21 14.911 359.102 18.8947C356.8 18.1775 354.407 17.7629 351.987 17.6763C346.682 17.4827 341.242 18.858 336.445 21.9061C336.388 21.9388 336.32 21.9791 336.237 22.0288C336.227 22.0355 336.217 22.0422 336.205 22.0497L336.202 22.0517L336.199 22.0536L336.198 22.0545C336.19 22.0592 336.183 22.064 336.176 22.0687C336.131 22.0974 336.08 22.135 336.014 22.1817C331.885 24.9096 328.707 28.6022 326.644 32.7617C325.747 34.5612 325.091 36.4521 324.619 38.3875C319.742 38.4779 314.819 39.8784 310.436 42.6952L310.418 42.7029L310.315 42.7701C310.312 42.772 310.31 42.7731 310.308 42.7748C310.302 42.7787 310.296 42.7826 310.289 42.7872C310.236 42.8217 310.171 42.8676 310.091 42.9282C305.471 45.991 302.048 50.2626 300.041 55.0409C298.877 57.8077 298.191 60.7422 297.985 63.7252C295.743 64.4472 293.569 65.4599 291.535 66.7811C289.842 67.8804 288.25 69.1872 286.794 70.6868C282.51 75.1099 280.003 80.6623 279.316 86.3505L279.318 86.3494C278.833 90.3367 279.251 94.3964 280.529 98.2384C277.969 101.484 276.087 105.359 275.211 109.675C275.211 109.679 275.21 109.684 275.209 109.689C273.743 116.932 275.318 124.14 279.053 129.887L279.058 129.895L279.066 129.907C279.066 129.907 279.07 129.913 279.074 129.919L279.114 129.981L279.115 129.98C280.419 131.975 281.983 133.792 283.768 135.386C283.381 141.267 284.909 147.111 288.104 152.034C290.468 155.677 293.753 158.812 297.796 161.042C302.338 163.545 307.328 164.623 312.175 164.401C315.574 164.245 318.896 163.444 321.987 162.075C326.08 165.113 330.881 166.909 335.815 167.344C341.686 167.868 347.766 166.484 353.025 163.068C353.571 162.714 354.104 162.343 354.622 161.948L354.635 161.939L354.642 161.934L354.644 161.933L354.645 161.932C356.858 160.256 358.743 158.289 360.292 156.137C363.103 157.451 366.101 158.278 369.157 158.582C375.069 159.17 381.223 157.818 386.541 154.399C386.562 154.389 386.578 154.379 386.595 154.368C386.613 154.356 386.63 154.345 386.646 154.334L386.649 154.332C386.651 154.331 386.651 154.331 386.651 154.331L386.655 154.328L386.679 154.313C386.687 154.308 386.69 154.306 386.697 154.301L386.753 154.261L386.769 154.25C387.191 153.972 387.604 153.678 388.01 153.377L388.016 153.373L388.262 153.205C390.07 151.834 391.663 150.274 393.029 148.573C397.329 150.402 402.158 151.165 407.111 150.534L407.109 150.536C411.288 150.004 415.161 148.534 418.492 146.371C421.737 144.264 424.452 141.498 426.515 138.302C433.663 140.048 441.381 138.873 447.801 134.712C449.208 133.799 450.547 132.745 451.795 131.552C456.594 126.975 459.378 121.007 460.061 114.885L460.059 114.886C460.511 110.896 460.057 106.825 458.729 102.978C462.268 100.151 465.164 96.3988 466.964 91.9136C468.681 87.6507 469.246 83.17 468.787 78.8767C468.331 74.5857 466.863 70.4769 464.53 66.8843C462.975 64.4902 461.024 62.3398 458.753 60.52C459.68 57.6395 460.151 54.5549 460.053 51.3661C459.9 46.2186 458.308 41.4018 455.681 37.357C451.84 31.4444 445.78 27.132 438.677 25.5751ZM450.442 51.6547C450.603 56.9727 448.412 61.771 444.791 65.1251C443.677 66.1553 443.61 67.8944 444.638 69.0059C445.668 70.1209 447.406 70.1885 448.519 69.1592C449.353 68.3911 450.124 67.5585 450.838 66.676C453.146 68.0729 455.051 69.9419 456.466 72.1205C457.98 74.449 458.932 77.1207 459.228 79.8961C459.522 82.673 459.163 85.5456 458.048 88.3267C456.638 91.8195 454.262 94.5924 451.337 96.496C451.108 96.6445 450.868 96.7755 450.631 96.9124C450.334 96.5602 450.039 96.2103 449.721 95.8753L449.719 95.8723C447.479 93.5283 444.852 91.7587 442.046 90.5633L441.703 90.4164L441.335 90.3659C438.619 90.0064 434.707 89.0541 431.294 87.7118C429.587 87.0445 428.001 86.2785 426.755 85.4884C425.503 84.7021 424.626 83.8739 424.257 83.287C424.088 83.0273 424.014 82.828 423.98 82.6821C423.951 82.5375 423.95 82.4415 423.979 82.2889C424.295 80.8077 423.346 79.3463 421.864 79.0325C420.379 78.7171 418.92 79.6642 418.606 81.1483L418.604 81.1456C418.408 82.0703 418.423 83.0214 418.623 83.8989C418.824 84.7761 419.192 85.5734 419.651 86.279C420.696 87.8705 422.161 89.0682 423.814 90.127C426.296 91.6965 429.274 92.9226 432.249 93.8742C435.048 94.7683 437.818 95.399 440.156 95.7446C442.203 96.6568 444.104 97.9489 445.744 99.6664C446.434 100.389 447.05 101.152 447.574 101.932L447.583 101.943C447.654 102.048 447.723 102.151 447.791 102.257C450.054 105.741 450.953 109.836 450.508 113.815C450.058 117.792 448.277 121.618 445.159 124.596C444.343 125.374 443.476 126.059 442.568 126.648C437.684 129.824 431.573 130.309 426.319 128.164C426.818 125.733 426.932 123.182 426.605 120.591C426.2 117.379 425.14 114.39 423.594 111.76C422.822 110.448 421.138 110.013 419.832 110.782C418.523 111.552 418.087 113.237 418.856 114.543C420.04 116.557 420.843 118.822 421.152 121.278L421.155 121.285C421.489 123.913 421.224 126.465 420.477 128.835L420.472 128.846C419.239 132.728 416.671 136.091 413.257 138.308C411.105 139.706 408.618 140.649 405.896 140.998C400.851 141.638 396.056 140.093 392.431 137.093L392.427 137.091C391.049 135.954 389.844 134.609 388.864 133.1C387.466 130.948 386.524 128.463 386.172 125.728C385.982 124.223 384.606 123.161 383.102 123.353C381.598 123.544 380.534 124.92 380.725 126.424C381.177 129.983 382.422 133.267 384.257 136.093C385.147 137.462 386.183 138.716 387.329 139.86C386.168 142.012 384.545 143.956 382.457 145.543L382.453 145.546C382.111 145.801 381.764 146.043 381.416 146.269C377.958 148.515 373.975 149.398 370.104 149.015C366.736 148.684 363.479 147.387 360.767 145.198C361.35 142.545 361.478 139.801 361.112 137.088C360.909 135.587 359.524 134.53 358.022 134.734C356.519 134.937 355.463 136.32 355.667 137.824C356.009 140.347 355.799 142.918 355.062 145.349C354.019 148.791 351.922 151.937 348.831 154.276L348.826 154.279C348.486 154.534 348.141 154.779 347.791 155.006C340.478 159.759 330.729 158.418 324.978 151.87L324.964 151.853L324.949 151.837C324.671 151.532 324.397 151.197 324.129 150.843C323.87 150.498 323.627 150.153 323.397 149.799C322.791 148.865 322.286 147.897 321.874 146.901C321.291 145.5 319.684 144.835 318.281 145.414C316.881 145.996 316.217 147.603 316.798 149.005C317.335 150.301 317.998 151.571 318.79 152.79L318.881 152.92C316.66 154.034 314.222 154.682 311.735 154.795C308.599 154.938 305.397 154.252 302.438 152.623C299.803 151.169 297.698 149.153 296.169 146.801C294.198 143.766 293.204 140.173 293.329 136.55C294.609 137.061 295.952 137.465 297.347 137.747C300.526 138.394 303.697 138.345 306.682 137.716C308.167 137.407 309.118 135.95 308.806 134.465C308.494 132.98 307.038 132.029 305.555 132.341C303.275 132.818 300.87 132.857 298.439 132.362L298.435 132.361C296.299 131.93 294.338 131.13 292.593 130.043C290.383 128.666 288.525 126.822 287.129 124.673C284.701 120.931 283.686 116.307 284.633 111.591C285.446 107.592 287.537 104.202 290.397 101.737L290.4 101.735L290.403 101.733L290.41 101.724C291.015 101.205 291.652 100.725 292.324 100.293C296.065 97.8673 300.697 96.8486 305.411 97.7955C306.897 98.0936 308.346 97.1319 308.646 95.6447C308.946 94.1575 307.982 92.7096 306.496 92.4112C300.494 91.2006 294.545 92.4537 289.721 95.4566C288.832 92.8985 288.537 90.177 288.862 87.5106C289.311 83.8197 290.914 80.2603 293.701 77.3758C294.649 76.3988 295.679 75.5542 296.771 74.8451C298.702 73.5913 300.827 72.7565 303.018 72.333C303.638 74.3684 304.542 76.3545 305.756 78.2229C306.582 79.4951 308.283 79.8556 309.555 79.0294C310.827 78.2032 311.189 76.5038 310.362 75.2313C309.053 73.2149 308.209 71.0266 307.799 68.8081C307.178 65.4168 307.579 61.9163 308.9 58.7706C310.226 55.6222 312.465 52.842 315.548 50.8357C319.988 47.9564 325.215 47.3241 329.943 48.6561L329.95 48.6561C333.923 49.773 337.509 52.2796 339.942 56.0217C340.768 57.2939 342.467 57.6554 343.741 56.8282C345.014 56.0017 345.375 54.3026 344.548 53.0301C341.788 48.7751 337.846 45.7186 333.439 44.0346C333.559 41.6071 334.17 39.2202 335.255 37.0386C336.611 34.3066 338.685 31.9024 341.436 30.1157C344.597 28.0634 348.145 27.1609 351.641 27.287C355.136 27.41 358.564 28.5712 361.429 30.66L361.426 30.6582C363.119 31.8959 364.612 33.441 365.825 35.3059C366.651 36.5781 368.351 36.9397 369.623 36.1133C370.896 35.2871 371.258 33.5865 370.432 32.314C369.197 30.4126 367.72 28.7615 366.082 27.3575C367.159 23.0443 369.846 19.2551 373.582 16.8288C375.533 15.5617 377.764 14.6668 380.21 14.2451C383.624 13.6613 386.952 14.0977 389.925 15.3315C392.895 16.5633 395.496 18.5971 397.404 21.2022C397.599 21.4704 397.79 21.7449 397.972 22.0252C399.238 23.9775 400.135 26.2033 400.557 28.649C400.814 30.1442 402.233 31.1488 403.728 30.8916C405.225 30.6371 406.227 29.2143 405.97 27.7191C405.536 25.1803 404.691 22.8035 403.527 20.6467C405.884 19.3307 408.528 18.5869 411.224 18.4732C414.303 18.3456 417.442 19.0353 420.338 20.655L420.34 20.6576C422.871 22.0698 424.89 24.0155 426.362 26.2791C427.037 27.3182 427.584 28.4231 428.018 29.5727C426.278 29.9384 424.611 30.4963 423.04 31.2274C421.666 31.868 421.071 33.5012 421.714 34.8795C422.354 36.2525 423.988 36.8489 425.363 36.2075C426.941 35.4729 428.636 34.9641 430.42 34.72C430.917 34.9555 431.487 35.0511 432.07 34.9497C432.434 34.8857 432.767 34.7531 433.061 34.5659C434.279 34.5809 435.465 34.7132 436.612 34.9673L436.56 34.9552L436.622 34.9694C441.191 35.9648 445.129 38.759 447.618 42.5944C449.318 45.2118 450.343 48.3029 450.442 51.6547Z" fill="black" fill-opacity="0.08"/>
</g>
<g clip-path="url(#clip3_16_238)">
<path d="M113.386 67.2113C111.168 61.7785 106.815 57.0022 101.004 53.1865C95.1842 49.3708 87.8681 46.5 79.5245 44.9609L79.4317 44.9452C79.4317 44.9452 79.4317 44.9452 79.4301 44.9449L79.3402 44.9296L79.3399 44.9311C68.2312 42.9192 57.9885 43.7365 49.9699 46.9781C45.9528 48.6085 42.4867 50.8616 39.8183 53.7243C37.1509 56.581 35.3035 60.0691 34.5872 63.9803L34.5751 64.0459L34.5764 64.0462C34.1384 66.4627 34.0269 68.1222 34.1065 69.4091C34.1466 70.0541 34.2417 70.609 34.3625 71.0716C34.4807 71.5247 34.6263 71.8859 34.6983 72.0626L34.6994 72.0657C34.8211 72.3635 34.9268 72.5331 35.0249 72.6881C35.2071 72.9691 35.3751 73.1769 35.5622 73.3998C36.1856 74.1315 37.0446 74.976 37.952 75.8206C37.163 76.8501 36.5787 78.4625 36.1734 80.6214C36.0491 80.5852 35.9326 80.5461 35.7961 80.5195C35.2727 80.4187 34.6223 80.4256 33.9939 80.638C33.5248 80.7946 33.0931 81.0596 32.7558 81.3641C32.2465 81.8269 31.9393 82.343 31.7222 82.8345C31.5483 83.2354 31.4387 83.6379 31.3484 84.0482C31.321 84.1316 31.3013 84.2002 31.2786 84.2753C31.1456 84.7486 31.0025 85.3893 30.8216 86.2201C30.2891 88.6857 29.5524 92.443 29.4453 93.0241L29.4317 93.098L29.4347 93.0986C29.1555 94.661 29.2213 96.2456 29.5879 97.7636C30.2378 100.462 31.7633 102.931 33.8533 105.189C37.0006 108.573 41.4711 111.545 46.8815 114.042C52.293 116.534 58.6528 118.531 65.5764 119.808L65.6277 119.818L65.628 119.816L65.6605 119.824L65.6946 119.83C76.2768 121.758 86.2078 121.674 93.9862 119.775C97.8777 118.818 101.247 117.409 103.902 115.427C105.226 114.436 106.37 113.294 107.264 111.983C108.157 110.677 108.79 109.197 109.08 107.614C109.118 107.409 109.217 106.836 109.355 106.022C109.56 104.808 109.839 103.113 110.067 101.647C110.181 100.913 110.282 100.238 110.356 99.6949C110.393 99.422 110.424 99.1833 110.447 98.9696L110.474 98.6536C110.476 98.6172 110.478 98.5779 110.48 98.54C110.536 98.1761 110.573 97.8133 110.569 97.4373C110.554 96.7425 110.425 95.9249 109.882 95.1211C109.613 94.7284 109.24 94.3712 108.827 94.1199C108.414 93.867 107.977 93.7203 107.582 93.6473C107.453 93.6251 107.339 93.6216 107.219 93.61C107.594 91.4912 107.624 89.8019 107.274 88.5665C107.916 88.3241 108.557 88.0726 109.146 87.825C109.662 87.608 110.129 87.3966 110.548 87.1851C110.758 87.0794 110.955 86.9731 111.165 86.8424C111.382 86.6953 111.591 86.5925 111.982 86.1742C112.188 85.9442 112.452 85.6028 112.686 85.1996C113.39 83.9659 113.953 82.2688 114.614 78.7315L114.628 78.6561L114.629 78.6476C115.348 74.7393 114.862 70.8257 113.386 67.2113ZM43.7241 57.3625C46.7771 54.076 51.5472 51.5391 57.5498 50.2156C63.5456 48.8896 70.734 48.7786 78.4699 50.1955L78.5198 50.2047L78.5284 50.2063L78.5568 50.2116C88.8573 52.1024 97.2768 56.2 102.671 61.2226C105.372 63.7317 107.316 66.4548 108.441 69.2243C109.566 71.9994 109.9 74.8088 109.379 77.6871L109.365 77.764C108.965 79.9389 108.604 81.2181 108.35 81.8956C108.245 82.1753 108.168 82.3319 108.114 82.4339C107.948 82.5169 107.714 82.6282 107.447 82.7438C106.721 83.0651 105.735 83.4532 104.816 83.7888C103.902 84.1239 103.016 84.4157 102.581 84.5327C99.3444 85.4117 94.539 86.215 89.1407 86.5114C83.7403 86.812 77.7299 86.6115 72.0096 85.5631C71.9455 85.5513 71.9014 85.5432 71.9014 85.5432C66.1936 84.4913 60.5212 82.5521 55.5941 80.3646C50.6707 78.1805 46.4781 75.7383 43.7696 73.7768C43.5241 73.5991 43.083 73.244 42.6072 72.8294C41.8872 72.2049 41.0542 71.4284 40.415 70.7821C40.0973 70.4614 39.8241 70.1697 39.6557 69.9722L39.5753 69.8735C39.5567 69.8228 39.5432 69.7761 39.5261 69.717C39.4812 69.5379 39.4113 69.1981 39.4223 68.4507C39.4339 67.7093 39.5373 66.5885 39.8332 64.9674L39.8353 64.956L39.8369 64.9474C40.3713 62.069 41.6849 59.5605 43.7241 57.3625ZM102.853 108.976C101.969 110.281 100.434 111.56 98.2539 112.637C94.9922 114.261 90.3465 115.387 84.8966 115.756C79.4528 116.133 73.2061 115.775 66.6803 114.584L66.5438 114.557C56.6122 112.735 47.9701 109.3 42.2374 105.34C39.3687 103.368 37.245 101.268 36.0111 99.3108C35.3904 98.3321 34.9874 97.395 34.7776 96.52C34.5702 95.6411 34.5435 94.8263 34.6917 94.0055L34.6938 93.9941L34.6943 93.9913C34.7542 93.6665 35.1527 91.6241 35.5592 89.6418C35.7395 88.7592 35.9201 87.8914 36.0774 87.1739C38.4448 89.676 40.7257 91.5541 44.0806 93.4682C51.0058 97.4464 59.3033 100.953 68.7377 102.693L68.8216 102.709L68.826 102.709C78.2963 104.439 87.3294 104.098 95.2369 102.825C99.0572 102.222 101.854 101.273 104.955 99.7684C104.601 102.152 103.905 106.257 103.831 106.647C103.678 107.47 103.362 108.226 102.853 108.976Z" fill="black" fill-opacity="0.08"/>
<path d="M34.703 72.0755C34.702 72.0724 34.7002 72.066 34.699 72.0643L34.678 72.0131L34.703 72.0755Z" fill="black" fill-opacity="0.08"/>
<path d="M53.0189 64.3911C54.0145 64.573 54.9547 63.9939 55.1184 63.0979C55.282 62.2019 54.6081 61.3283 53.6124 61.1462C52.6153 60.9638 51.6751 61.5431 51.51 62.4387C51.3479 63.3351 52.0218 64.2086 53.0189 64.3911Z" fill="black" fill-opacity="0.08"/>
<path d="M76.1526 62.9059C75.1554 62.7234 74.2152 63.3041 74.0515 64.2001C73.8874 65.0975 74.5614 65.9713 75.5572 66.1532C76.5544 66.3355 77.4944 65.7563 77.6597 64.8592C77.8218 63.9627 77.1498 63.088 76.1526 62.9059Z" fill="black" fill-opacity="0.08"/>
<path d="M74.2321 73.4069C73.2349 73.2246 72.2947 73.8052 72.1308 74.7011C71.967 75.5987 72.6408 76.4722 73.6366 76.6541C74.6337 76.8366 75.5739 76.2573 75.7392 75.3601C75.9015 74.4639 75.2293 73.5891 74.2321 73.4069Z" fill="black" fill-opacity="0.08"/>
<path d="M62.2031 58.8124C63.2 58.9962 64.1402 58.4155 64.3056 57.5183C64.4677 56.622 63.7943 55.7455 62.7971 55.5646C61.8016 55.3811 60.8613 55.9618 60.6962 56.8575C60.5335 57.7552 61.2069 58.6319 62.2031 58.8124Z" fill="black" fill-opacity="0.08"/>
<path d="M76.9151 58.7364C77.9123 58.9187 78.8526 58.3381 79.0153 57.4404C79.1803 56.5446 78.5052 55.6692 77.5082 55.4869C76.5126 55.3049 75.5721 55.8855 75.4083 56.7815C75.2444 57.6791 75.918 58.5541 76.9151 58.7364Z" fill="black" fill-opacity="0.08"/>
<path d="M64.9612 67.2397C65.9573 67.4204 66.8959 66.8409 67.061 65.945C67.225 65.0475 66.5514 64.1724 65.5539 63.9916C64.557 63.8079 63.617 64.3871 63.4545 65.2847C63.2894 66.1806 63.9644 67.056 64.9612 67.2397Z" fill="black" fill-opacity="0.08"/>
<path d="M97.2623 72.4827C98.2595 72.6651 99.1997 72.0858 99.363 71.1913C99.5268 70.2938 98.8531 69.4201 97.856 69.2378C96.8588 69.0557 95.92 69.635 95.7564 70.531C95.5928 71.4271 96.2653 72.3004 97.2623 72.4827Z" fill="black" fill-opacity="0.08"/>
<path d="M90.6463 64.0159C91.642 64.198 92.5823 63.6173 92.7462 62.7199C92.9101 61.8237 92.2363 60.9487 91.2408 60.7653C90.2434 60.5844 89.3018 61.1633 89.1397 62.0595C88.9743 62.957 89.6494 63.8322 90.6463 64.0159Z" fill="black" fill-opacity="0.08"/>
<path d="M85.0862 70.9191C86.0831 71.1028 87.0221 70.5219 87.1858 69.6261C87.3511 68.7287 86.6758 67.8549 85.6789 67.6712C84.6831 67.4905 83.7432 68.0683 83.5791 68.9658C83.4139 69.8613 84.0888 70.7382 85.0862 70.9191Z" fill="black" fill-opacity="0.08"/>
</g>
<path fill-rule="evenodd" clip-rule="evenodd" d="M117.919 245.261C117.012 224.981 132.994 206 155.5 206C178.007 206 193.988 224.982 193.08 245.263C196.417 247.126 198.806 250.422 199.39 254.489C200.09 259.304 198.285 263.654 194.51 266.42C191.687 268.487 188.073 269.462 184.155 269.5L171.004 293.61L159.56 314.59C158.75 316.075 157.192 317 155.5 317C153.808 317 152.25 316.075 151.44 314.59L139.997 293.611L126.842 269.494C122.931 269.45 119.322 268.477 116.503 266.414C112.729 263.652 110.921 259.31 111.609 254.495C112.192 250.416 114.582 247.122 117.919 245.261ZM127.132 243.865C128.951 244.21 130.549 244.836 131.871 245.405C132.575 245.708 133.191 245.984 133.745 246.234C135.391 246.973 136.501 247.472 137.781 247.692L137.802 247.695C140.006 248.083 141.342 247.763 143.81 247.073C143.873 247.055 143.937 247.038 144.001 247.02C146.655 246.277 150.1 245.312 155.5 245.312C160.903 245.312 164.354 246.275 167.012 247.017C167.073 247.034 167.133 247.051 167.193 247.067C169.67 247.758 171.008 248.078 173.204 247.694C174.483 247.471 175.589 246.974 177.222 246.24C177.785 245.987 178.411 245.706 179.129 245.398C180.453 244.83 182.051 244.207 183.868 243.863C184.012 228.928 172.057 215.25 155.5 215.25C138.942 215.25 126.987 228.929 127.132 243.865ZM138.041 270.708L144.583 282.702L150.24 274.783C147.118 274.12 144.206 273.01 141.693 272.051C141.392 271.936 141.095 271.823 140.805 271.714C139.831 271.346 138.914 271.008 138.041 270.708ZM160.762 274.783C163.884 274.119 166.796 273.009 169.31 272.051C169.611 271.936 169.907 271.823 170.197 271.714C171.17 271.346 172.087 271.009 172.958 270.709L166.417 282.701L160.762 274.783ZM161.495 291.725L155.5 283.332L149.505 291.726L155.5 302.717L161.495 291.725ZM181.662 254.397C179.859 255.217 177.343 256.361 174.796 256.806C170.444 257.566 167.409 256.73 164.71 255.978C164.657 255.963 164.604 255.948 164.551 255.933C162.111 255.253 159.636 254.562 155.5 254.562C151.372 254.562 148.904 255.253 146.469 255.935C146.413 255.95 146.357 255.966 146.301 255.981C143.601 256.736 140.566 257.572 136.208 256.807C133.643 256.365 131.121 255.216 129.316 254.395C128.911 254.211 128.542 254.043 128.217 253.903C126.095 252.99 124.836 252.707 123.652 252.913C122.031 253.195 120.981 254.299 120.766 255.804C120.546 257.34 121.033 258.266 121.965 258.949C123.103 259.781 125.388 260.534 129.016 260.14C134.643 259.528 139.912 261.487 144.077 263.061C144.215 263.114 144.352 263.166 144.489 263.217C148.842 264.865 152.172 266.125 155.5 266.125C158.829 266.125 162.161 264.864 166.517 263.216C166.652 263.165 166.788 263.114 166.926 263.062C171.091 261.487 176.36 259.528 181.984 260.14L181.994 260.141C185.624 260.544 187.907 259.79 189.043 258.958C189.974 258.276 190.459 257.349 190.236 255.817L190.234 255.805C190.02 254.305 188.965 253.194 187.348 252.913C186.161 252.706 184.896 252.99 182.776 253.899C182.447 254.04 182.073 254.211 181.662 254.397Z" fill="black" fill-opacity="0.08"/>
<path d="M283.406 418.45H352.647C360.135 418.45 364.512 414.231 364.512 406.796V358.649L371.314 364.872C372.422 365.927 373.635 366.665 375.112 366.665C377.59 366.665 379.594 365.136 379.594 362.605C379.594 361.023 379.013 360.021 378.012 359.124L359.713 342.407V311.347C359.713 309.026 358.237 307.55 355.917 307.55H349.008C346.74 307.55 345.158 309.026 345.158 311.347V329.171L324.328 310.187C322.483 308.499 320.268 307.55 318 307.55C315.733 307.55 313.518 308.499 311.672 310.187L257.988 359.124C257.039 360.021 256.406 361.023 256.406 362.605C256.406 365.136 258.41 366.665 260.889 366.665C262.418 366.665 263.631 365.927 264.686 364.872L271.488 358.702V406.796C271.488 414.231 275.865 418.45 283.406 418.45ZM333.188 374.944C333.188 372.519 331.606 370.989 329.18 370.989H306.82C304.395 370.989 302.76 372.519 302.76 374.944V409.96H285.2C281.825 409.96 279.979 408.114 279.979 404.686V350.95L316.155 317.991C316.682 317.464 317.315 317.148 318 317.148C318.686 317.148 319.319 317.411 319.899 317.991L356.021 350.95V404.686C356.021 408.114 354.176 409.96 350.854 409.96H333.188V374.944Z" fill="black" fill-opacity="0.08"/>
<path fill-rule="evenodd" clip-rule="evenodd" d="M177.858 562.162C184 563.126 190.424 566.023 195.269 569.925C198.481 568.919 201.924 568.375 205.5 568.375C209.1 568.375 212.566 568.926 215.796 569.945C220.756 566.109 226.883 563.104 233.111 562.167C234.436 561.972 235.815 562.642 236.42 563.852C238.85 569.592 238.932 576.437 237.438 582.414L237.415 582.507C237.015 584.11 236.497 586.183 234.836 586.881C236.071 589.916 236.75 593.208 236.75 596.664C236.75 605.328 233.193 614.242 230.004 622.234L229.681 623.042C227.744 627.902 223.411 631.249 218.391 632.181L211.297 633.499C209.109 633.905 206.926 633.116 205.5 631.526C204.074 633.116 201.891 633.905 199.704 633.499L192.61 632.181C187.589 631.249 183.256 627.902 181.319 623.042L180.997 622.234C177.807 614.242 174.25 605.328 174.25 596.664C174.25 593.208 174.929 589.916 176.164 586.881C174.501 586.183 173.997 584.16 173.597 582.552L173.562 582.414C172.135 576.704 171.86 569.302 174.58 563.852C175.182 562.648 176.528 561.956 177.858 562.162ZM188.577 572.877C185.047 574.94 181.984 577.641 179.605 580.817C178.674 577.014 178.664 572.786 179.484 568.961C182.651 569.876 185.751 571.173 188.577 572.877ZM231.395 580.817C229.032 577.662 225.993 574.975 222.492 572.917C225.301 571.189 228.326 569.805 231.507 568.92C232.339 572.756 232.329 577.002 231.395 580.817ZM195.668 576.397C198.677 575.259 201.999 574.625 205.5 574.625C209.001 574.625 212.323 575.259 215.333 576.397C224.423 579.833 230.5 587.744 230.5 596.664C230.5 604.211 227.341 612.086 224.52 619.119C224.302 619.66 224.087 620.197 223.875 620.728C222.778 623.481 220.284 625.472 217.249 626.036L210.155 627.354L208.35 623.342C207.845 622.221 206.73 621.5 205.5 621.5C204.27 621.5 203.155 622.221 202.65 623.342L200.845 627.354L193.751 626.036C190.716 625.472 188.222 623.481 187.125 620.728C186.914 620.198 186.699 619.662 186.482 619.121C183.66 612.089 180.5 604.211 180.5 596.664C180.5 587.744 186.577 579.833 195.668 576.397ZM200.812 609C199.629 609 198.547 609.668 198.017 610.727C197.488 611.786 197.602 613.053 198.312 614L203 620.25C203.59 621.037 204.516 621.5 205.5 621.5C206.484 621.5 207.41 621.037 208 620.25L212.688 614C213.398 613.053 213.512 611.786 212.982 610.727C212.453 609.668 211.371 609 210.188 609H200.812ZM198.067 593.754C198.067 596.343 195.968 598.441 193.379 598.441C190.79 598.441 188.692 596.343 188.692 593.754C188.692 591.165 190.79 589.066 193.379 589.066C195.968 589.066 198.067 591.165 198.067 593.754ZM218 598.062C220.589 598.062 222.687 595.964 222.687 593.375C222.687 590.786 220.589 588.687 218 588.687C215.411 588.687 213.312 590.786 213.312 593.375C213.312 595.964 215.411 598.062 218 598.062Z" fill="black" fill-opacity="0.08"/>
<path d="M305.192 755.926L305.399 757.886L326.403 755.647L326.193 753.687L305.192 755.926Z" fill="black" fill-opacity="0.08"/>
<path d="M324.93 727.089C322.03 727.089 319.675 729.444 319.675 732.342C319.675 735.244 322.03 737.596 324.93 737.596C327.83 737.596 330.18 735.244 330.18 732.342C330.18 729.444 327.83 727.089 324.93 727.089Z" fill="black" fill-opacity="0.08"/>
<path d="M305.568 747.39L327.09 749.09L327.242 747.125L305.72 745.431L305.568 747.39Z" fill="black" fill-opacity="0.08"/>
<path d="M363.914 704.107L359.483 710.017L366.869 711.493L363.914 704.107Z" fill="black" fill-opacity="0.08"/>
<path d="M321.07 704.107L318.115 711.493L325.503 710.017L321.07 704.107Z" fill="black" fill-opacity="0.08"/>
<path d="M365.312 732.341C365.312 729.444 362.959 727.089 360.057 727.089C357.157 727.089 354.804 729.444 354.804 732.341C354.804 735.244 357.157 737.596 360.057 737.596C362.959 737.596 365.312 735.244 365.312 732.341Z" fill="black" fill-opacity="0.08"/>
<path d="M379.794 755.926L358.794 753.687L358.583 755.647L379.587 757.886L379.794 755.926Z" fill="black" fill-opacity="0.08"/>
<path d="M379.261 745.431L357.747 747.125L357.901 749.09L379.416 747.39L379.261 745.431Z" fill="black" fill-opacity="0.08"/>
<path d="M353.958 758.012C352.463 758.371 351.2 758.52 350.149 758.52C348.756 758.52 347.746 758.26 346.991 757.881C345.873 757.31 345.222 756.454 344.774 755.35C344.34 754.258 344.18 752.947 344.18 751.766C344.18 751.026 344.246 750.375 344.311 749.833L347.444 746.702C348.023 746.128 348.194 745.258 347.883 744.503C347.57 743.751 346.834 743.262 346.022 743.262H338.964C338.13 743.262 337.382 743.773 337.086 744.554C336.785 745.332 336.997 746.21 337.614 746.771L340.627 749.5C340.714 750.081 340.801 750.872 340.801 751.771C340.808 753.348 340.512 755.143 339.687 756.373C339.267 756.995 338.747 757.498 337.99 757.882C337.238 758.26 336.23 758.521 334.837 758.521C333.786 758.521 332.523 758.371 331.028 758.01C330.219 757.819 329.399 758.321 329.206 759.13C329.016 759.94 329.517 760.76 330.329 760.955C332.007 761.353 333.497 761.541 334.837 761.543C336.607 761.543 338.111 761.203 339.355 760.579C340.811 759.849 341.828 758.733 342.51 757.52L342.778 758.041C343.443 759.046 344.393 759.955 345.632 760.579C346.875 761.203 348.382 761.543 350.149 761.543C351.487 761.543 352.979 761.353 354.66 760.953C355.472 760.755 355.971 759.94 355.775 759.13C355.583 758.32 354.768 757.819 353.958 758.012Z" fill="black" fill-opacity="0.08"/>
<path d="M418.582 772.263C418.802 772.036 419.124 771.827 419.354 771.713L419.489 771.65L426.648 769.264L425.732 767.43C428.309 764.274 429.398 759.974 428.287 755.787C426.771 750.049 421.569 746.041 415.636 746.041C414.506 746.041 413.38 746.188 412.281 746.474L412.184 746.503L412.09 746.532C408.402 747.605 404.818 749.577 401.684 752.24C398.724 754.781 396.378 757.818 394.686 761.285C392.702 765.332 391.654 770.069 391.661 774.969C391.664 781.157 393.199 787.69 396.354 794.924C397.858 798.388 398.625 802.158 398.625 806.14C398.64 811.496 397.176 817.019 394.643 821.379C393.852 818.793 392.789 816.327 391.473 814.025C385.29 803.199 377.482 786.513 373.662 778.17C382.985 774.306 389.61 768.215 393.402 760.002C404.165 736.675 390.068 717.116 380.038 709.021C370.986 690.002 365.422 690.002 363.012 690H363.009C362.571 690 362.132 690.036 361.701 690.109C357.793 690.762 352.83 694.766 346.928 702.026H342.773H338.612C332.711 694.766 327.75 690.762 323.84 690.109C323.411 690.036 322.972 690 322.531 690H322.502C320.077 690 314.521 690.077 305.506 709.022C295.475 717.117 281.381 736.681 292.144 760.002C295.801 767.926 302.097 773.88 310.91 777.763C307.959 785.027 300.632 802.554 294.07 814.028C287.718 825.143 287.544 840.252 293.65 850.769C297.421 857.273 303.235 861 309.599 861H340.96H344.591H375.952C380.843 861 385.353 858.842 388.92 854.853C393.609 854.332 398.237 852.73 402.468 850.143C409.215 846.011 414.904 839.556 418.929 831.468C422.779 823.685 424.811 814.932 424.816 806.146C424.819 798.543 423.319 791.248 420.361 784.46C418.286 779.699 417.852 776.669 417.854 774.965C417.857 773.538 418.127 772.974 418.242 772.733L418.582 772.263ZM417.415 765.441L417.276 765.484C417.112 765.547 416.818 765.658 416.454 765.843C415.719 766.205 414.733 766.826 413.877 767.711C413.305 768.302 412.778 769.006 412.341 769.898C411.767 771.091 411.312 772.638 411.305 774.96C411.302 777.759 412.028 781.729 414.359 787.078C417.073 793.307 418.271 799.825 418.269 806.14C418.264 814.17 416.362 821.886 413.067 828.554C409.755 835.207 405.052 840.884 399.052 844.56C395.072 846.99 390.456 848.489 385.574 848.494C383.159 852.124 379.852 854.453 375.951 854.453C366.864 854.453 351.542 854.453 344.59 854.453C344.59 854.453 343.212 854.453 340.96 854.453C334.005 854.453 318.686 854.453 309.598 854.453C297.57 854.453 291.008 832.584 299.756 817.275C308.504 801.966 318.344 776.814 318.344 776.814L319.255 773.834C310.652 771.313 302.352 766.497 298.091 757.257C286.084 731.245 310.758 713.241 310.758 713.241C310.758 713.241 318.465 696.547 322.531 696.547L322.765 696.569C326.766 697.234 335.435 708.574 335.435 708.574H342.772H350.105C350.105 708.574 358.779 697.234 362.78 696.569L363.011 696.547C367.08 696.55 374.782 713.241 374.782 713.241C374.782 713.241 399.461 731.245 387.454 757.257C382.961 766.996 373.985 771.809 364.894 774.215L365.364 775.72C365.364 775.72 377.043 801.966 385.789 817.275C388.556 822.116 389.788 827.607 389.805 832.859L389.499 834.665C390.408 834.339 391.316 833.935 392.24 833.375C394.486 832.011 396.718 829.906 398.664 827.199C402.574 821.795 405.194 814.042 405.172 806.141C405.172 801.469 404.29 796.749 402.354 792.311C399.483 785.723 398.213 780.001 398.21 774.96C398.203 770.809 399.107 767.143 400.57 764.154C402.031 761.162 404.003 758.879 405.924 757.23C409.803 753.933 413.382 752.978 413.956 752.809C414.518 752.66 415.08 752.588 415.636 752.588C418.534 752.588 421.185 754.525 421.959 757.464C422.875 760.919 420.841 764.455 417.41 765.431L417.415 765.441Z" fill="black" fill-opacity="0.08"/>
<path d="M92.8739 413.573C93.6826 410.803 94.1304 407.87 94.1304 404.843C94.1304 389.996 83.8606 377.552 70.0511 374.132C66.2491 358.029 51.784 346 34.5 346C17.216 346 2.75092 358.029 -1.07276 374.133C-14.8607 377.552 -25.1304 389.996 -25.1304 404.844C-25.1304 407.87 -24.6826 410.804 -23.8739 413.573C-32.5156 420.281 -38.0768 430.715 -38.0768 442.492C-38.0768 462.682 -21.7217 479.048 -1.52061 479.048C3.59243 479.048 8.46529 478.01 12.8791 476.11C13.5511 476.667 14.223 477.202 14.9222 477.705V525H54.0785V477.677C54.7777 477.174 55.4496 476.667 56.0887 476.11C60.5354 478.011 65.4079 479.048 70.521 479.048C90.7217 479.048 107.077 462.682 107.077 442.492C107.077 430.715 101.516 420.281 92.8739 413.573ZM42.8906 513.812H26.1094V482.992C28.7972 483.692 31.594 484.052 34.5 484.052C37.4059 484.052 40.2032 483.692 42.8906 482.992V513.812ZM70.5206 467.861C67.0574 467.861 63.7032 467.189 60.513 465.818L54.1655 463.075L54.0781 463.163L48.8777 467.577C47.0587 469.09 45.0428 470.319 42.8906 471.187C40.2357 472.28 37.4059 472.865 34.5 472.865C31.594 472.865 28.7643 472.28 26.1094 471.187C23.9572 470.319 21.9413 469.09 20.1223 467.577L14.9219 463.163L14.8345 463.075L8.48696 465.818C5.29677 467.189 1.94262 467.861 -1.52061 467.861C-15.505 467.861 -26.8893 456.477 -26.8893 442.492C-26.8893 434.604 -23.3114 427.306 -17.0184 422.439L-11.037 417.796L-13.1346 410.492C-13.659 408.591 -13.9433 406.69 -13.9433 404.844C-13.9433 395.421 -7.54088 387.254 1.60875 385.014L8.2349 383.365L9.83016 376.711C12.5403 365.218 22.7007 357.188 34.5 357.188C46.2993 357.188 56.46 365.218 59.1695 376.711L60.7319 383.365L67.3909 385.014C76.5409 387.254 82.9429 395.421 82.9429 404.844C82.9429 406.69 82.6587 408.591 82.1343 410.492L80.0366 417.796L86.0181 422.439C92.3111 427.306 95.8889 434.604 95.8889 442.492C95.8893 456.477 84.505 467.861 70.5206 467.861Z" fill="black" fill-opacity="0.08"/>
</g>
<defs>
<linearGradient id="paint0_linear_16_238" x1="196.5" y1="0" x2="196.5" y2="852" gradientUnits="userSpaceOnUse">
<stop stop-color="#151414"/>
<stop offset="1" stop-color="#2E7C5E"/>
</linearGradient>
<clipPath id="clip0_16_238">
<rect width="393" height="852" fill="white"/>
</clipPath>
<clipPath id="clip1_16_238">
<rect width="239.788" height="239.788" fill="white" transform="translate(54.746 674) rotate(31.9093)"/>
</clipPath>
<clipPath id="clip2_16_238">
<rect width="203" height="203" fill="white" transform="translate(230 62.5617) rotate(-33)"/>
</clipPath>
<clipPath id="clip3_16_238">
<rect width="81.3748" height="81.3748" fill="white" transform="translate(39.9279 35) rotate(10.4418)"/>
</clipPath>
</defs>
</svg>
