<svg width="57" height="41" viewBox="0 0 57 41" fill="none" xmlns="http://www.w3.org/2000/svg">
<path d="M38.0064 17.8453C37.6407 17.6513 37.1764 17.7721 36.9695 18.1152C36.7628 18.4584 36.8915 18.895 37.2578 19.089C37.8196 19.3892 38.1625 19.7241 38.3892 20.0701C37.4509 20.3793 36.6193 20.5065 35.8844 20.5065C34.8089 20.5056 33.9293 20.2393 33.1875 19.8312C32.4476 19.4222 31.8493 18.863 31.3957 18.2827C30.648 17.3264 29.6751 16.4745 28.5285 15.8531C27.3835 15.2335 26.0589 14.8463 24.6372 14.8463C23.3906 14.8455 22.0769 15.1466 20.7752 15.8173C20.243 16.091 19.7817 16.4112 19.3799 16.7608C17.7964 17.3328 16.4319 17.5386 15.2775 17.5386C13.633 17.5386 12.4045 17.124 11.5831 16.7168C11.173 16.5136 10.8663 16.3114 10.6678 16.165C10.5682 16.0909 10.4957 16.0322 10.4507 15.9939L10.4039 15.9517L10.3965 15.9453H10.3962C10.1045 15.6643 9.6246 15.6571 9.3227 15.9298C9.02035 16.2033 9.01157 16.6554 9.30325 16.9391C9.34566 16.9794 9.86894 17.4818 10.8707 17.9797C11.3091 18.1975 11.8466 18.4116 12.4674 18.5864C12.3025 18.8042 12.0773 19.1226 11.832 19.528C11.3603 20.3086 10.8185 21.4041 10.5424 22.6963C10.46 23.0824 10.7273 23.4587 11.1394 23.5364C11.5515 23.6132 11.9528 23.3624 12.0348 22.9755C12.2664 21.8874 12.7395 20.9201 13.1559 20.2328C13.3637 19.8887 13.5564 19.615 13.6949 19.431C13.7642 19.3387 13.8197 19.2682 13.8569 19.2224C13.8753 19.2003 13.8895 19.183 13.8979 19.1729L13.9066 19.1628L13.9076 19.1619L13.9081 19.161C13.9783 19.0804 14.0252 18.9898 14.0519 18.8947C14.4392 18.9394 14.8459 18.967 15.2775 18.966C16.0778 18.967 16.9541 18.8782 17.8979 18.6769C17.4301 19.6232 17.2376 20.6106 17.237 21.5157C17.2389 22.4272 17.4238 23.2545 17.7535 23.9134C17.9334 24.2703 18.3874 24.4222 18.7673 24.2538C19.1472 24.0854 19.3096 23.659 19.1297 23.303V23.3021C18.9181 22.8885 18.757 22.2369 18.7595 21.5157C18.759 20.7378 18.938 19.8813 19.3672 19.0997C19.7987 18.3182 20.4689 17.6053 21.5072 17.069C22.603 16.5062 23.6491 16.2755 24.6372 16.2747C25.7622 16.2747 26.8221 16.5795 27.7681 17.09C28.7133 17.6016 29.539 18.3218 30.168 19.127C30.7215 19.8354 31.4619 20.5346 32.4149 21.0617C33.3659 21.5888 34.5335 21.9356 35.8844 21.9347C36.7782 21.9347 37.7493 21.7827 38.792 21.4496L38.7945 21.5008C38.7945 21.8505 38.7365 22.1689 38.6784 22.394C38.6497 22.5066 38.6209 22.5954 38.6009 22.653C38.5907 22.6814 38.5829 22.7024 38.578 22.7143L38.5736 22.7253L38.5732 22.727H38.5736C38.4195 23.0922 38.6092 23.5059 38.9984 23.6523C39.3885 23.7987 39.8318 23.6202 39.9879 23.2542C40.0074 23.2029 40.3138 22.4901 40.3166 21.5007C40.3166 20.9333 40.2107 20.2671 39.8591 19.6092C39.51 18.9517 38.9072 18.3202 38.0064 17.8453Z" fill="#214336"/>
<path d="M39.7028 13.0764C37.6107 13.0764 35.9305 12.3534 34.7684 11.4072C34.1885 10.935 33.7427 10.4069 33.4497 9.90183C33.1551 9.39572 33.02 8.91435 33.022 8.55378C33.022 8.1593 32.6811 7.83997 32.2608 7.83997C31.8404 7.83997 31.4998 8.1593 31.4998 8.55378C31.5018 9.22544 31.7256 9.91369 32.1129 10.5836C32.5182 11.281 33.1102 11.9581 33.8628 12.5548C33.7111 12.7525 33.5018 13.007 33.2346 13.2796C32.6547 13.8735 31.8189 14.5315 30.821 14.8637C30.425 14.9964 30.2187 15.4055 30.3602 15.776C30.5016 16.1476 30.9372 16.3417 31.3327 16.2089C32.687 15.7522 33.7008 14.9196 34.3886 14.2111C34.6949 13.8945 34.9333 13.6053 35.1094 13.3738C36.3687 14.0556 37.9239 14.5058 39.703 14.5049C40.1229 14.5049 40.4644 14.1855 40.4644 13.7911C40.464 13.3968 40.1227 13.0764 39.7028 13.0764Z" fill="#214336"/>
<path d="M34.6282 27.0416C33.2042 27.0416 32.0728 26.7834 31.1636 26.3891C29.803 25.7961 28.9202 24.8846 28.3648 23.9758C28.0878 23.5228 27.8966 23.0717 27.7761 22.6754C27.6551 22.281 27.6078 21.9351 27.6088 21.7255C27.6088 21.3311 27.2684 21.0116 26.848 21.0116C26.4271 21.0116 26.0867 21.331 26.0867 21.7255C26.0867 21.9827 26.1194 22.2673 26.1863 22.5802C26.3023 23.1256 26.5232 23.7563 26.8813 24.406C27.4183 25.3797 28.2707 26.4009 29.5446 27.1771C29.8635 27.3728 30.2088 27.5505 30.5804 27.7096C30.6384 27.9439 30.7189 28.3612 30.7184 28.8645C30.7184 29.2306 30.6764 29.6387 30.5584 30.057C30.4404 30.4752 30.2482 30.9017 29.9429 31.3162C29.7035 31.6411 29.7898 32.0858 30.1356 32.3101C30.4815 32.5343 30.9554 32.4538 31.1945 32.1298C31.61 31.5661 31.8732 30.9804 32.0303 30.4221C32.1879 29.863 32.2405 29.3313 32.2405 28.8645C32.2405 28.6311 32.2269 28.4152 32.2063 28.2176C32.9399 28.3778 33.7436 28.471 34.6282 28.4701C35.0482 28.4701 35.3891 28.1498 35.3891 27.7554C35.3891 27.3618 35.0482 27.0416 34.6282 27.0416Z" fill="#214336"/>
<path d="M44.9673 16.3143C44.5904 16.0096 44.1837 15.7597 43.7544 15.5821C43.3257 15.4046 42.8727 15.2985 42.4088 15.2985C41.9885 15.2985 41.6476 15.6178 41.6476 16.0123C41.6476 16.4077 41.9885 16.727 42.4088 16.727C42.6888 16.7261 43.0428 16.8176 43.415 17.0199C43.9728 17.32 44.5528 17.859 44.9746 18.5344C45.3989 19.2088 45.6676 20.0115 45.6672 20.8406C45.6638 21.753 45.3575 22.7047 44.5284 23.6511C44.2607 23.9558 44.3065 24.4051 44.6308 24.6567C44.9547 24.9075 45.4346 24.8645 45.7023 24.5606C46.7469 23.3781 47.1926 22.0668 47.1892 20.8406C47.1892 20.0956 47.0302 19.3828 46.763 18.733C46.3611 17.7591 45.7208 16.9255 44.9673 16.3143Z" fill="#214336"/>
<path d="M18.466 12.507V12.5061C18.9889 11.925 19.7336 11.4693 20.5826 11.1627C21.4302 10.8552 22.3764 10.7014 23.2616 10.7024C24.1238 10.7005 24.9265 10.8497 25.5153 11.1068C25.8972 11.2716 26.3492 11.116 26.5258 10.7573C26.7018 10.3994 26.5351 9.97576 26.1537 9.81001C25.3033 9.44306 24.3039 9.27463 23.2617 9.2738C22.1917 9.2738 21.0753 9.45501 20.0355 9.82919C18.9983 10.2044 18.0322 10.7774 17.3041 11.5836C17.0324 11.8847 17.0724 12.3357 17.3933 12.5902C17.714 12.8457 18.1944 12.8072 18.466 12.507Z" fill="#214336"/>
<path d="M52.9137 10.4437L52.914 10.4443L52.9137 10.4437Z" fill="#214336"/>
<path d="M36.9314 34.2848V34.2854H36.9312L36.9314 34.2848Z" fill="#214336"/>
<path d="M54.0765 15.2782C53.9419 15.1501 53.7975 15.0284 53.6513 14.9086C53.7278 14.5086 53.7721 14.1014 53.7721 13.6877C53.7726 12.5914 53.4942 11.4749 52.9143 10.4445C52.2515 9.263 51.2698 8.32581 50.1237 7.69075C49.322 7.24597 48.4402 6.94952 47.5263 6.81129C47.3045 6.07098 46.9566 5.36624 46.4894 4.72664C45.7116 3.66143 44.6055 2.77929 43.252 2.23287C42.284 1.84211 41.2681 1.6545 40.2704 1.6545C40.2704 1.6545 40.2396 1.65358 40.1836 1.65821C38.9165 1.67203 37.6832 1.98404 36.5921 2.55417C36.1654 2.07187 35.6719 1.64265 35.1227 1.28116C33.919 0.487765 32.4472 0.0173172 30.8724 0.00268013C30.8543 0.00175243 30.8324 0.000927701 30.8056 0C30.8022 0 30.7988 0 30.795 0L30.794 0L30.793 0L30.7925 0C30.7901 0 30.7877 0 30.7853 0C30.7707 0 30.7531 0.000927919 30.7307 0.00175254C29.3594 0.0118542 28.0635 0.366958 26.9564 0.981818C26.4766 1.24724 26.0386 1.56658 25.6368 1.92168C24.4898 1.25085 23.1344 0.859155 21.6908 0.852764L21.6855 0.851939H21.6513C21.6504 0.851939 21.6498 0.851939 21.6489 0.851939C21.647 0.851939 21.645 0.851939 21.6427 0.851939C21.6251 0.851939 21.6031 0.852764 21.5753 0.854619C20.0395 0.868329 18.5993 1.31497 17.4119 2.07269C16.7238 2.51108 16.1215 3.05379 15.6235 3.67504C14.9934 3.51496 14.3355 3.42806 13.6634 3.42806C13.1041 3.42806 12.5369 3.48754 11.9722 3.60835C10.309 3.96613 8.88851 4.82178 7.87051 5.96481H7.87106C7.15662 6.76552 6.64114 7.70992 6.35824 8.72854C5.27356 9.07364 4.25139 9.65201 3.39643 10.4691C3.39599 10.47 3.395 10.471 3.39401 10.4719C1.96018 11.8437 1.23838 13.6382 1.23893 15.42V15.4227V15.4264C1.23893 15.4264 1.23893 15.4282 1.23893 15.43V15.4492H1.23937C1.24124 16.0687 1.33056 16.6865 1.50469 17.2868C0.527235 18.5141 0.000549816 20.0049 4.98238e-07 21.5305C-0.000438956 22.6597 0.28982 23.8082 0.892971 24.867C1.57083 26.0558 2.56773 26.9975 3.72745 27.6353C4.54088 28.0828 5.43385 28.3785 6.3589 28.5175C6.85153 29.7594 7.69616 30.831 8.77689 31.6244C10.0624 32.5698 11.6841 33.1289 13.4217 33.1289C13.6022 33.1289 13.7822 33.1236 13.962 33.1107H13.9664H13.9688H13.9694H13.9698C14.7369 33.0585 15.4719 32.8966 16.1565 32.6467C16.6116 33.3312 17.1835 33.936 17.8479 34.4349C19.1329 35.4004 20.7672 35.977 22.5189 35.9843C22.5253 35.9852 22.5306 35.9852 22.5361 35.9852C22.542 35.9852 22.5477 35.9852 22.5532 35.9852H22.5542C22.5548 35.9852 22.5548 35.9852 22.5548 35.9852H22.5562H22.564C22.5665 35.9852 22.5675 35.9852 22.5699 35.9852L22.5889 35.9843H22.5943C22.7343 35.9834 22.8748 35.9779 23.0146 35.9697H23.0166L23.099 35.9678C23.7261 35.9247 24.3319 35.8103 24.9059 35.6329C25.6292 36.6405 26.6363 37.4906 27.8824 38.0544H27.8818C28.9332 38.5302 30.0549 38.7581 31.1557 38.7581C32.2276 38.7581 33.2761 38.5395 34.2379 38.1349C35.6355 39.5277 37.6064 40.3642 39.7263 40.3661C40.1911 40.3661 40.6612 40.3258 41.1315 40.2426C42.9374 39.9242 44.4848 39.0172 45.5675 37.779H45.5671C46.2742 36.9728 46.783 36.0211 47.0551 34.9942C48.304 34.879 49.5433 34.4708 50.6386 33.7478C51.6809 33.0614 52.4885 32.1645 53.0298 31.1635C53.5712 30.1632 53.8501 29.0594 53.8501 27.9458C53.8501 27.2036 53.7214 26.4586 53.4683 25.7402C54.1183 25.2434 54.6932 24.6375 55.1517 23.9283C55.8931 22.7843 56.25 21.5087 56.25 20.2548C56.2497 18.4218 55.4923 16.6235 54.0765 15.2782ZM52.8748 22.6305C52.1096 23.8128 50.8761 24.5486 49.5287 24.7674C49.1141 24.8342 48.8362 25.2039 48.9073 25.5918C48.9785 25.9808 49.3721 26.2416 49.7862 26.1748C50.0959 26.1254 50.4008 26.0531 50.6997 25.9616C51.0253 26.5931 51.186 27.2703 51.186 27.9457C51.1864 28.6677 51.0046 29.3852 50.6544 30.0322C50.3037 30.6793 49.7867 31.2548 49.1079 31.7033C48.253 32.2652 47.2825 32.5334 46.3154 32.5342C46.2398 32.5342 46.1642 32.5287 46.0886 32.5251C46.0726 32.4062 46.0569 32.2881 46.0335 32.17V32.1691C45.8667 31.3409 45.5234 30.5831 45.0517 29.9252L44.9942 29.8446L44.9162 29.7814C44.3391 29.3184 43.574 28.5569 42.9833 27.781C42.6874 27.3938 42.4342 27.0021 42.264 26.6535C42.0918 26.3048 42.0129 26 42.0158 25.8198C42.0158 25.7393 42.0285 25.6853 42.0427 25.6487C42.0577 25.613 42.0719 25.5919 42.1017 25.5627C42.3986 25.2845 42.3986 24.8315 42.1017 24.5533C41.8042 24.2742 41.3223 24.2742 41.0252 24.5533V24.5524C40.84 24.7262 40.7 24.9358 40.6141 25.1555C40.5283 25.3751 40.4937 25.6012 40.4937 25.8199C40.4966 26.315 40.6561 26.7835 40.8804 27.2483C41.2205 27.9421 41.7276 28.6311 42.2753 29.2598C42.7907 29.8511 43.3394 30.3809 43.8305 30.7872C44.1684 31.2759 44.4153 31.8269 44.5372 32.4336C44.5884 32.6889 44.6167 32.9424 44.6206 33.1867L44.6211 33.1904C44.6216 33.2234 44.622 33.2554 44.622 33.2883C44.622 34.3683 44.2128 35.3885 43.5091 36.1929C42.8044 36.9965 41.8128 37.5785 40.6391 37.7862C40.3319 37.8403 40.027 37.8668 39.7271 37.8668C38.1129 37.8677 36.6195 37.1082 35.7222 35.8965C36.2051 35.4371 36.6166 34.8971 36.9316 34.2859C37.3223 33.5282 37.5271 32.7264 37.5646 31.934C37.5832 31.5386 37.2575 31.2055 36.838 31.1881C36.4177 31.1708 36.062 31.4763 36.0435 31.87C36.0147 32.4767 35.8597 33.0843 35.5607 33.6635L35.5603 33.6654C35.2412 34.2858 34.7945 34.8047 34.2635 35.2157L34.2606 35.2174C33.3882 35.8892 32.2839 36.2589 31.156 36.2589C30.4449 36.2589 29.7246 36.1124 29.0393 35.8031C27.7703 35.2283 26.8891 34.2126 26.4994 33.0449L26.4989 33.044C26.3501 32.601 26.2731 32.137 26.2731 31.6695C26.2731 31.0023 26.4292 30.327 26.7602 29.6809C26.9431 29.3258 26.7837 28.8993 26.4051 28.7282C26.0268 28.5571 25.5717 28.7063 25.3893 29.0614C24.9571 29.9015 24.7509 30.7937 24.7509 31.6696C24.7509 32.0941 24.8027 32.5143 24.8963 32.9261C24.3018 33.2308 23.6312 33.4248 22.9064 33.4753H22.905C22.787 33.4826 22.6699 33.4862 22.5549 33.4862C21.4122 33.4862 20.3534 33.1146 19.5116 32.4833C18.7791 31.9341 18.2178 31.1902 17.9179 30.3289C18.4538 29.8329 18.8976 29.2528 19.2219 28.6094C19.4013 28.2534 19.239 27.8269 18.8591 27.6585C18.4791 27.4901 18.0251 27.642 17.8456 27.999C17.5442 28.5974 17.1073 29.1283 16.5693 29.5538C15.8075 30.1568 14.8453 30.5458 13.7739 30.6181H13.7724C13.6548 30.6254 13.5378 30.6299 13.4222 30.6299C11.0052 30.6309 8.94234 28.958 8.59407 26.7159L8.59319 26.7104L8.59221 26.7048C8.57364 26.5987 8.56045 26.487 8.55167 26.3718C8.54343 26.26 8.53914 26.1503 8.53914 26.0405C8.53914 25.7512 8.56793 25.4685 8.62242 25.1931C8.69855 24.805 8.42543 24.4326 8.01191 24.3602C7.59882 24.2888 7.20188 24.5451 7.12531 24.9331C7.05456 25.2918 7.01698 25.6625 7.01698 26.0405L7.01852 26.0816C6.33429 26.0102 5.67006 25.8062 5.07503 25.4786C4.32445 25.0658 3.68416 24.4628 3.24229 23.6886C2.8492 22.9985 2.66441 22.2609 2.66386 21.5315C2.66386 20.5907 2.9751 19.6665 3.55101 18.8942C3.77139 19.187 4.02265 19.4652 4.30401 19.7242C4.9454 20.3154 5.6895 20.7538 6.47821 21.0392C6.86987 21.1821 7.31076 20.999 7.46237 20.6312C7.61409 20.2633 7.41908 19.8496 7.02742 19.7077C6.42559 19.4889 5.86089 19.1568 5.37068 18.7047L5.36969 18.7039C4.93858 18.3076 4.6035 17.8556 4.36202 17.3714C4.05627 16.7583 3.90268 16.0929 3.90268 15.4267C3.90312 14.2672 4.36499 13.1151 5.29696 12.221C6.0894 11.4642 7.08686 11.0212 8.12353 10.8885H8.12452H8.1255L8.12836 10.8876C8.34743 10.8602 8.56782 10.8456 8.78919 10.8465C10.0246 10.8474 11.255 11.2813 12.2075 12.1552C12.5078 12.4306 12.9897 12.426 13.2838 12.1442C13.5779 11.8624 13.5725 11.4103 13.2722 11.1348C12.0602 10.021 10.4884 9.45184 8.91411 9.42349C9.09362 8.73988 9.43596 8.10481 9.91386 7.56943C10.5751 6.82819 11.4848 6.2791 12.5678 6.0448C12.9357 5.96605 13.3024 5.9277 13.6632 5.9277C14.301 5.9277 14.921 6.04666 15.4939 6.26446C15.331 6.79614 15.2414 7.35719 15.2414 7.93638C15.2414 8.33076 15.5823 8.6502 16.0026 8.6502C16.4229 8.6502 16.7634 8.33086 16.7634 7.93638C16.7634 7.31132 16.8976 6.7147 17.1371 6.17293C17.5047 5.34562 18.126 4.63913 18.9078 4.14033C19.6912 3.64164 20.6309 3.3524 21.6501 3.35148C23.1166 3.3524 24.4266 3.95459 25.3244 4.91455L25.326 4.91548C26.0808 5.72165 26.5359 6.77593 26.5364 7.93628C26.5364 8.33066 26.8768 8.6501 27.2977 8.6501C27.7181 8.6501 28.0585 8.33076 28.0585 7.93628C28.059 6.6176 27.6044 5.39314 26.8344 4.40194C27.2285 3.88954 27.7308 3.45569 28.312 3.13357C29.0397 2.73002 29.8844 2.49943 30.7934 2.49943C31.8376 2.49943 32.7983 2.80506 33.5919 3.32767C34.3853 3.84924 35.0067 4.58779 35.3573 5.44891L35.3568 5.44808C35.5637 5.9578 35.6773 6.50597 35.6777 7.08434C35.6777 7.47872 36.0182 7.79826 36.4386 7.79826C36.859 7.79826 37.1999 7.47882 37.1999 7.08434C37.1999 6.49494 37.1057 5.92574 36.937 5.38768C37.8382 4.59975 39.0345 4.15404 40.2689 4.15404C40.9136 4.15404 41.5672 4.27485 42.1992 4.52925C43.0806 4.88528 43.7882 5.45169 44.2929 6.14169C44.7972 6.83077 45.0947 7.64251 45.145 8.48074C45.1498 8.56681 45.1528 8.6537 45.1528 8.7406C45.1522 9.34546 45.0249 9.95784 44.7539 10.5509C44.588 10.9133 44.7661 11.3332 45.1522 11.4888C45.5385 11.6452 45.9861 11.4769 46.152 11.1145C46.4344 10.4995 46.5967 9.86167 46.6518 9.22661C47.398 9.2733 48.1247 9.48554 48.7684 9.8425C49.5033 10.2507 50.1285 10.8454 50.5572 11.6087V11.6096C50.9323 12.2759 51.1078 12.986 51.1083 13.6879C51.1083 14.01 51.0687 14.3285 50.9961 14.6406C50.5367 14.474 50.065 14.3596 49.5895 14.2965C49.1735 14.2416 48.7888 14.5135 48.7303 14.9051C48.6717 15.295 48.9614 15.6564 49.3779 15.7113C49.8554 15.7745 50.326 15.9036 50.7776 16.103C50.8576 16.2248 50.9756 16.3263 51.1263 16.3867C51.2204 16.4242 51.318 16.4426 51.4146 16.4434C51.6954 16.6192 51.951 16.8159 52.1792 17.0337L52.169 17.0237L52.1812 17.0356C53.0926 17.8995 53.5861 19.0663 53.5857 20.255C53.5858 21.0665 53.3576 21.8856 52.8748 22.6305Z" fill="#214336"/>
</svg>
