<svg width="119" height="65" viewBox="0 0 119 65" fill="none" xmlns="http://www.w3.org/2000/svg">
<rect x="0.5" y="0.5" width="118" height="64" rx="5.5" fill="#80F3D0" fill-opacity="0.1"/>
<rect x="0.5" y="0.5" width="118" height="64" rx="5.5" stroke="black"/>
<g clip-path="url(#clip0_16_466)">
<path d="M33.4567 8.69023L32.5 8.29395L31.5433 8.69023L16.3405 14.9874L15.3838 15.3837L14.9875 16.3404L8.6903 31.5432L8.29402 32.4999L8.6903 33.4566L14.9875 48.6594L15.3838 49.6161L16.3405 50.0124L31.5433 56.3096L32.5 56.7059L33.4567 56.3096L48.6595 50.0124L49.6162 49.6161L50.0125 48.6594L56.3097 33.4566L56.706 32.4999L56.3097 31.5432L50.0125 16.3404L49.6162 15.3837L48.6595 14.9874L33.4567 8.69023Z" stroke="black" stroke-width="5"/>
<path d="M24.2789 24.2784L32.5007 20.8728L40.7225 24.2784L44.128 32.5001L40.7225 40.7219L32.5007 44.1275L24.2789 40.7219L20.8733 32.5001L24.2789 24.2784Z" stroke="#80F3D0" stroke-width="5"/>
<mask id="mask0_16_466" style="mask-type:luminance" maskUnits="userSpaceOnUse" x="28" y="28" width="9" height="9">
<path d="M32.4996 36.8001C34.8744 36.8001 36.7996 35.0353 36.7996 32.8584C36.7996 30.6815 34.8744 28.9167 32.4996 28.9167C30.1248 28.9167 28.1996 30.6815 28.1996 32.8584C28.1996 35.0353 30.1248 36.8001 32.4996 36.8001Z" fill="white"/>
</mask>
<g mask="url(#mask0_16_466)">
<path d="M32.7996 32.8584C32.7996 32.8051 32.8128 32.7533 32.8297 32.7168C32.8446 32.6845 32.8538 32.6818 32.8372 32.6969C32.8015 32.7297 32.6925 32.8 32.4996 32.8V40.8C36.7488 40.8 40.7996 37.5649 40.7996 32.8584H32.7996ZM32.4996 32.8C32.3066 32.8 32.1977 32.7297 32.1619 32.6969C32.1454 32.6818 32.1546 32.6845 32.1695 32.7168C32.1863 32.7533 32.1996 32.8051 32.1996 32.8584H24.1996C24.1996 37.5649 28.2504 40.8 32.4996 40.8V32.8ZM32.1996 32.8584C32.1996 32.9116 32.1863 32.9635 32.1695 33C32.1546 33.0323 32.1454 33.0349 32.1619 33.0198C32.1977 32.987 32.3066 32.9167 32.4996 32.9167V24.9167C28.2504 24.9167 24.1996 28.1518 24.1996 32.8584H32.1996ZM32.4996 32.9167C32.6925 32.9167 32.8015 32.987 32.8372 33.0198C32.8538 33.0349 32.8446 33.0323 32.8297 33C32.8128 32.9635 32.7996 32.9116 32.7996 32.8584H40.7996C40.7996 28.1518 36.7488 24.9167 32.4996 24.9167V32.9167Z" fill="black"/>
</g>
</g>
<g clip-path="url(#clip1_16_466)">
<path d="M67.54 30.5V17.46H72.02C72.98 17.46 73.8467 17.5933 74.62 17.86C75.4067 18.1133 76.0333 18.5467 76.5 19.16C76.9667 19.7733 77.2 20.6067 77.2 21.66C77.2 22.6733 76.9667 23.5067 76.5 24.16C76.0333 24.8133 75.4133 25.3 74.64 25.62C73.8667 25.9267 73.02 26.08 72.1 26.08H70.48V30.5H67.54ZM70.48 23.74H71.92C72.7333 23.74 73.3333 23.56 73.72 23.2C74.12 22.84 74.32 22.3267 74.32 21.66C74.32 20.9667 74.1067 20.4867 73.68 20.22C73.2533 19.94 72.64 19.8 71.84 19.8H70.48V23.74ZM81.4541 30.5V17.46H84.3941V30.5H81.4541ZM87.8097 30.5L91.8897 17.46H95.4097L99.5097 30.5H96.3897L94.6897 23.9C94.503 23.2467 94.323 22.5533 94.1497 21.82C93.9764 21.0867 93.803 20.38 93.6297 19.7H93.5497C93.403 20.38 93.243 21.0867 93.0697 21.82C92.8964 22.5533 92.7164 23.2467 92.5297 23.9L90.8097 30.5H87.8097ZM90.4897 27.4V25.1H96.7697V27.4H90.4897ZM102.935 30.5V17.46H107.635C108.555 17.46 109.395 17.5867 110.155 17.84C110.915 18.08 111.521 18.5 111.975 19.1C112.428 19.6867 112.655 20.4933 112.655 21.52C112.655 22.52 112.428 23.3333 111.975 23.96C111.521 24.5867 110.915 25.0533 110.155 25.36C109.395 25.6533 108.555 25.8 107.635 25.8H105.875V30.5H102.935ZM105.875 23.46H107.395C108.168 23.46 108.755 23.3 109.155 22.98C109.568 22.6467 109.775 22.16 109.775 21.52C109.775 20.88 109.568 20.4333 109.155 20.18C108.755 19.9267 108.168 19.8 107.395 19.8H105.875V23.46ZM109.995 30.5L107.095 25.04L109.135 23.14L113.295 30.5H109.995Z" fill="white"/>
<path d="M71.408 47.692C70.5013 47.692 69.7067 47.468 69.024 47.02C68.352 46.572 67.824 45.9373 67.44 45.116C67.0667 44.2947 66.88 43.324 66.88 42.204C66.88 41.372 66.992 40.6253 67.216 39.964C67.44 39.292 67.7547 38.716 68.16 38.236C68.576 37.756 69.0667 37.3933 69.632 37.148C70.208 36.892 70.8427 36.764 71.536 36.764C72.2507 36.764 72.8373 36.9027 73.296 37.18C73.7653 37.4467 74.1387 37.7293 74.416 38.028L73.984 38.508C73.7173 38.2093 73.3867 37.9587 72.992 37.756C72.608 37.5427 72.128 37.436 71.552 37.436C70.7413 37.436 70.0427 37.6333 69.456 38.028C68.88 38.412 68.432 38.9613 68.112 39.676C67.8027 40.38 67.648 41.2227 67.648 42.204C67.648 43.1747 67.7973 44.0227 68.096 44.748C68.4053 45.4733 68.8427 46.0333 69.408 46.428C69.9733 46.8227 70.656 47.02 71.456 47.02C71.936 47.02 72.384 46.9507 72.8 46.812C73.2267 46.6733 73.568 46.476 73.824 46.22V42.94H71.296V42.316H74.528V46.492C74.1973 46.844 73.7653 47.132 73.232 47.356C72.7093 47.58 72.1013 47.692 71.408 47.692ZM75.7999 47.5L79.5119 36.956H80.2479L83.9599 47.5H83.1919L81.0799 41.292C80.8665 40.6627 80.6639 40.06 80.4719 39.484C80.2799 38.8973 80.0932 38.284 79.9119 37.644H79.8479C79.6665 38.284 79.4799 38.8973 79.2879 39.484C79.0959 40.06 78.8932 40.6627 78.6799 41.292L76.5359 47.5H75.7999ZM77.4959 43.884V43.26H82.2159V43.884H77.4959ZM85.6458 47.5V36.956H86.7178L88.9098 43.148C89.0484 43.532 89.1871 43.916 89.3258 44.3C89.4644 44.684 89.5978 45.0787 89.7258 45.484H89.7898C89.9284 45.0787 90.0618 44.684 90.1898 44.3C90.3178 43.916 90.4458 43.532 90.5738 43.148L92.7658 36.956H93.8378V47.5H93.1178V40.572C93.1178 40.284 93.1231 39.9747 93.1337 39.644C93.1444 39.3133 93.1551 38.9773 93.1658 38.636C93.1871 38.2947 93.2031 37.98 93.2138 37.692H93.1498L92.3338 40.076L90.0618 46.348H89.4058L87.1178 40.076L86.3018 37.692H86.2378C86.2484 37.98 86.2591 38.2947 86.2698 38.636C86.2911 38.9773 86.3071 39.3133 86.3178 39.644C86.3284 39.9747 86.3338 40.284 86.3338 40.572V47.5H85.6458ZM96.9426 47.5V36.956H102.719V37.596H97.6786V41.58H101.903V42.22H97.6786V46.86H102.879V47.5H96.9426ZM107.929 47.692C107.161 47.692 106.478 47.5427 105.881 47.244C105.294 46.9453 104.788 46.5667 104.361 46.108L104.825 45.628C105.198 46.0547 105.652 46.396 106.185 46.652C106.729 46.8973 107.31 47.02 107.929 47.02C108.74 47.02 109.38 46.828 109.849 46.444C110.318 46.0493 110.553 45.5373 110.553 44.908C110.553 44.4707 110.468 44.1187 110.297 43.852C110.126 43.5853 109.897 43.3667 109.609 43.196C109.321 43.0253 109.006 42.86 108.665 42.7L107.065 41.98C106.745 41.8413 106.42 41.6653 106.089 41.452C105.769 41.2387 105.492 40.9667 105.257 40.636C105.033 40.2947 104.921 39.868 104.921 39.356C104.921 38.844 105.054 38.396 105.321 38.012C105.588 37.6173 105.95 37.3133 106.409 37.1C106.868 36.876 107.396 36.764 107.993 36.764C108.633 36.764 109.204 36.8867 109.705 37.132C110.206 37.3773 110.612 37.6707 110.921 38.012L110.521 38.492C110.201 38.172 109.828 37.916 109.401 37.724C108.985 37.532 108.516 37.436 107.993 37.436C107.3 37.436 106.734 37.6067 106.297 37.948C105.87 38.2893 105.657 38.748 105.657 39.324C105.657 39.7293 105.753 40.06 105.945 40.316C106.148 40.572 106.393 40.78 106.681 40.94C106.969 41.1 107.236 41.2387 107.481 41.356L109.081 42.06C109.486 42.2413 109.86 42.4493 110.201 42.684C110.542 42.908 110.809 43.1907 111.001 43.532C111.204 43.8733 111.305 44.316 111.305 44.86C111.305 45.3933 111.166 45.8787 110.889 46.316C110.622 46.7427 110.233 47.0787 109.721 47.324C109.22 47.5693 108.622 47.692 107.929 47.692Z" fill="white"/>
</g>
<defs>
<clipPath id="clip0_16_466">
<rect width="55" height="55" fill="white" transform="translate(5 5)"/>
</clipPath>
<clipPath id="clip1_16_466">
<rect width="48" height="36" fill="white" transform="translate(66 14.5)"/>
</clipPath>
</defs>
</svg>
