<svg width="326" height="324" viewBox="0 0 326 324" fill="none" xmlns="http://www.w3.org/2000/svg">
<rect x="0.5" y="0.5" width="325" height="323" rx="4.5" stroke="#8A38F5" stroke-dasharray="10 5"/>
<g filter="url(#filter0_d_22_220)">
<g filter="url(#filter1_d_22_220)">
<rect x="20" y="248" width="286" height="56" rx="10" fill="white" shape-rendering="crispEdges"/>
<rect x="21.5" y="249.5" width="283" height="53" rx="8.5" stroke="#D2D2D2" stroke-width="3" shape-rendering="crispEdges"/>
<path d="M134.456 264.48C135.992 264.48 137.272 264.555 138.296 264.704C139.341 264.832 140.216 265.035 140.92 265.312C141.986 265.76 142.701 266.357 143.064 267.104C143.448 267.829 143.64 268.661 143.64 269.6C143.64 270.859 143.298 271.883 142.616 272.672C141.954 273.461 140.952 273.856 139.608 273.856C139.032 273.856 138.424 273.803 137.784 273.696C137.144 273.589 136.482 273.429 135.8 273.216V272.32C136.226 273.109 136.6 273.995 136.92 274.976C137.261 275.957 137.538 276.949 137.752 277.952C137.986 278.933 138.157 279.872 138.264 280.768C138.392 281.643 138.456 282.389 138.456 283.008C138.456 284.672 138.093 285.963 137.368 286.88C136.642 287.776 135.437 288.224 133.752 288.224C132.258 288.224 131.128 287.829 130.36 287.04C129.592 286.229 129.208 285.013 129.208 283.392C129.208 282.624 129.293 281.76 129.464 280.8C129.634 279.84 129.869 278.848 130.168 277.824C130.466 276.8 130.808 275.819 131.192 274.88C131.576 273.941 131.97 273.12 132.376 272.416L132.504 273.216C132.162 273.344 131.746 273.472 131.256 273.6C130.786 273.707 130.306 273.803 129.816 273.888C129.346 273.952 128.92 273.984 128.536 273.984C127.064 273.984 126.018 273.664 125.4 273.024C124.802 272.363 124.504 271.445 124.504 270.272C124.504 269.269 124.728 268.373 125.176 267.584C125.645 266.795 126.381 266.144 127.384 265.632C128.173 265.227 129.133 264.939 130.264 264.768C131.394 264.576 132.792 264.48 134.456 264.48ZM153.699 288.256C151.075 288.256 148.985 287.904 147.427 287.2C145.87 286.496 144.739 285.483 144.035 284.16C143.353 282.837 143.011 281.259 143.011 279.424C143.011 277.099 143.491 275.125 144.451 273.504C145.433 271.861 146.766 270.603 148.451 269.728C150.158 268.853 152.089 268.416 154.243 268.416C156.803 268.416 158.681 268.928 159.875 269.952C161.07 270.955 161.667 272.277 161.667 273.92C161.667 275.221 161.305 276.352 160.579 277.312C159.875 278.272 158.883 279.008 157.603 279.52C156.345 280.032 154.883 280.288 153.219 280.288C152.451 280.288 151.705 280.235 150.979 280.128C150.254 280.021 149.603 279.883 149.027 279.712L149.795 277.92C149.731 278.432 149.699 278.944 149.699 279.456C149.699 280.373 150.03 281.024 150.691 281.408C151.374 281.792 152.313 281.984 153.507 281.984C154.659 281.984 155.641 281.867 156.451 281.632C157.262 281.376 157.977 281.131 158.595 280.896C159.214 280.64 159.801 280.512 160.355 280.512C160.739 280.512 161.134 280.608 161.539 280.8C161.945 280.992 162.286 281.291 162.563 281.696C162.841 282.101 162.979 282.645 162.979 283.328C162.979 284.267 162.627 285.109 161.923 285.856C161.219 286.603 160.174 287.189 158.787 287.616C157.422 288.043 155.726 288.256 153.699 288.256ZM151.843 277.088C152.867 277.088 153.753 276.843 154.499 276.352C155.246 275.84 155.619 275.221 155.619 274.496C155.619 274.027 155.449 273.643 155.107 273.344C154.766 273.045 154.297 272.896 153.699 272.896C153.038 272.896 152.409 273.024 151.811 273.28C151.235 273.536 150.766 273.867 150.403 274.272C150.041 274.677 149.859 275.125 149.859 275.616C149.859 276.085 150.03 276.448 150.371 276.704C150.734 276.96 151.225 277.088 151.843 277.088ZM167.381 288.288C166.208 288.288 165.237 287.904 164.469 287.136C163.701 286.347 163.317 285.365 163.317 284.192C163.317 283.296 163.584 282.485 164.117 281.76C164.65 281.013 165.418 280.363 166.421 279.808C167.445 279.253 168.672 278.816 170.101 278.496V278.368C167.776 277.707 166.058 276.832 164.949 275.744C163.861 274.635 163.317 273.429 163.317 272.128C163.317 271.339 163.52 270.656 163.925 270.08C164.33 269.483 164.864 269.024 165.525 268.704C166.186 268.384 166.88 268.224 167.605 268.224C168.65 268.224 169.589 268.523 170.421 269.12C171.253 269.696 171.957 270.496 172.533 271.52C173.109 272.544 173.525 273.717 173.781 275.04H173.909C174.485 272.629 175.306 270.848 176.373 269.696C177.44 268.523 178.624 267.936 179.925 267.936C181.162 267.936 182.112 268.299 182.773 269.024C183.434 269.749 183.765 270.677 183.765 271.808C183.765 273.067 183.242 274.251 182.197 275.36C181.152 276.469 179.584 277.344 177.493 277.984V278.112C179.52 278.709 180.97 279.499 181.845 280.48C182.741 281.44 183.189 282.549 183.189 283.808C183.189 284.981 182.805 285.931 182.037 286.656C181.29 287.36 180.416 287.712 179.413 287.712C178.453 287.712 177.61 287.424 176.885 286.848C176.181 286.251 175.584 285.461 175.093 284.48C174.624 283.477 174.24 282.368 173.941 281.152H173.813C173.45 282.752 172.928 284.085 172.245 285.152C171.562 286.197 170.794 286.987 169.941 287.52C169.109 288.032 168.256 288.288 167.381 288.288ZM190.05 268.736H189.73C189.623 267.797 189.655 266.912 189.826 266.08C189.996 265.227 190.359 264.544 190.914 264.032C191.468 263.499 192.268 263.232 193.314 263.232C194.38 263.232 195.159 263.477 195.65 263.968C196.14 264.459 196.386 265.141 196.386 266.016C196.386 267.125 196.13 268.075 195.618 268.864L195.362 268.8C196.108 268.395 196.93 268.192 197.826 268.192C198.935 268.192 199.82 268.459 200.482 268.992C201.164 269.504 201.506 270.389 201.506 271.648C201.506 272.821 201.122 273.717 200.354 274.336C199.586 274.933 198.626 275.232 197.474 275.232C197.068 275.232 196.631 275.211 196.162 275.168C195.714 275.104 195.276 275.008 194.85 274.88L195.01 274.528C195.287 275.168 195.554 275.893 195.81 276.704C196.066 277.493 196.29 278.325 196.482 279.2C196.695 280.053 196.855 280.896 196.962 281.728C197.09 282.539 197.154 283.264 197.154 283.904C197.154 285.269 196.812 286.347 196.13 287.136C195.468 287.925 194.444 288.32 193.058 288.32C192.204 288.32 191.49 288.171 190.914 287.872C190.338 287.573 189.879 287.157 189.538 286.624C189.196 286.091 188.951 285.461 188.802 284.736C188.652 283.989 188.578 283.189 188.578 282.336C188.578 281.611 188.631 280.8 188.738 279.904C188.866 278.987 189.047 278.037 189.282 277.056C189.516 276.075 189.794 275.136 190.114 274.24L190.434 275.04C189.751 275.595 188.887 275.872 187.842 275.872C186.668 275.872 185.751 275.584 185.09 275.008C184.428 274.411 184.098 273.504 184.098 272.288C184.098 271.029 184.45 270.059 185.154 269.376C185.879 268.693 186.85 268.352 188.066 268.352C188.45 268.352 188.812 268.395 189.154 268.48C189.495 268.544 189.794 268.629 190.05 268.736Z" fill="#D2D2D2"/>
</g>
</g>
<g filter="url(#filter2_d_22_220)">
<g filter="url(#filter3_d_22_220)">
<rect x="20" y="172" width="286" height="56" rx="10" fill="white" shape-rendering="crispEdges"/>
<rect x="20.5" y="172.5" width="285" height="55" rx="9.5" stroke="#E50004" shape-rendering="crispEdges"/>
<path d="M134.456 188.48C135.992 188.48 137.272 188.555 138.296 188.704C139.341 188.832 140.216 189.035 140.92 189.312C141.986 189.76 142.701 190.357 143.064 191.104C143.448 191.829 143.64 192.661 143.64 193.6C143.64 194.859 143.298 195.883 142.616 196.672C141.954 197.461 140.952 197.856 139.608 197.856C139.032 197.856 138.424 197.803 137.784 197.696C137.144 197.589 136.482 197.429 135.8 197.216V196.32C136.226 197.109 136.6 197.995 136.92 198.976C137.261 199.957 137.538 200.949 137.752 201.952C137.986 202.933 138.157 203.872 138.264 204.768C138.392 205.643 138.456 206.389 138.456 207.008C138.456 208.672 138.093 209.963 137.368 210.88C136.642 211.776 135.437 212.224 133.752 212.224C132.258 212.224 131.128 211.829 130.36 211.04C129.592 210.229 129.208 209.013 129.208 207.392C129.208 206.624 129.293 205.76 129.464 204.8C129.634 203.84 129.869 202.848 130.168 201.824C130.466 200.8 130.808 199.819 131.192 198.88C131.576 197.941 131.97 197.12 132.376 196.416L132.504 197.216C132.162 197.344 131.746 197.472 131.256 197.6C130.786 197.707 130.306 197.803 129.816 197.888C129.346 197.952 128.92 197.984 128.536 197.984C127.064 197.984 126.018 197.664 125.4 197.024C124.802 196.363 124.504 195.445 124.504 194.272C124.504 193.269 124.728 192.373 125.176 191.584C125.645 190.795 126.381 190.144 127.384 189.632C128.173 189.227 129.133 188.939 130.264 188.768C131.394 188.576 132.792 188.48 134.456 188.48ZM153.699 212.256C151.075 212.256 148.985 211.904 147.427 211.2C145.87 210.496 144.739 209.483 144.035 208.16C143.353 206.837 143.011 205.259 143.011 203.424C143.011 201.099 143.491 199.125 144.451 197.504C145.433 195.861 146.766 194.603 148.451 193.728C150.158 192.853 152.089 192.416 154.243 192.416C156.803 192.416 158.681 192.928 159.875 193.952C161.07 194.955 161.667 196.277 161.667 197.92C161.667 199.221 161.305 200.352 160.579 201.312C159.875 202.272 158.883 203.008 157.603 203.52C156.345 204.032 154.883 204.288 153.219 204.288C152.451 204.288 151.705 204.235 150.979 204.128C150.254 204.021 149.603 203.883 149.027 203.712L149.795 201.92C149.731 202.432 149.699 202.944 149.699 203.456C149.699 204.373 150.03 205.024 150.691 205.408C151.374 205.792 152.313 205.984 153.507 205.984C154.659 205.984 155.641 205.867 156.451 205.632C157.262 205.376 157.977 205.131 158.595 204.896C159.214 204.64 159.801 204.512 160.355 204.512C160.739 204.512 161.134 204.608 161.539 204.8C161.945 204.992 162.286 205.291 162.563 205.696C162.841 206.101 162.979 206.645 162.979 207.328C162.979 208.267 162.627 209.109 161.923 209.856C161.219 210.603 160.174 211.189 158.787 211.616C157.422 212.043 155.726 212.256 153.699 212.256ZM151.843 201.088C152.867 201.088 153.753 200.843 154.499 200.352C155.246 199.84 155.619 199.221 155.619 198.496C155.619 198.027 155.449 197.643 155.107 197.344C154.766 197.045 154.297 196.896 153.699 196.896C153.038 196.896 152.409 197.024 151.811 197.28C151.235 197.536 150.766 197.867 150.403 198.272C150.041 198.677 149.859 199.125 149.859 199.616C149.859 200.085 150.03 200.448 150.371 200.704C150.734 200.96 151.225 201.088 151.843 201.088ZM167.381 212.288C166.208 212.288 165.237 211.904 164.469 211.136C163.701 210.347 163.317 209.365 163.317 208.192C163.317 207.296 163.584 206.485 164.117 205.76C164.65 205.013 165.418 204.363 166.421 203.808C167.445 203.253 168.672 202.816 170.101 202.496V202.368C167.776 201.707 166.058 200.832 164.949 199.744C163.861 198.635 163.317 197.429 163.317 196.128C163.317 195.339 163.52 194.656 163.925 194.08C164.33 193.483 164.864 193.024 165.525 192.704C166.186 192.384 166.88 192.224 167.605 192.224C168.65 192.224 169.589 192.523 170.421 193.12C171.253 193.696 171.957 194.496 172.533 195.52C173.109 196.544 173.525 197.717 173.781 199.04H173.909C174.485 196.629 175.306 194.848 176.373 193.696C177.44 192.523 178.624 191.936 179.925 191.936C181.162 191.936 182.112 192.299 182.773 193.024C183.434 193.749 183.765 194.677 183.765 195.808C183.765 197.067 183.242 198.251 182.197 199.36C181.152 200.469 179.584 201.344 177.493 201.984V202.112C179.52 202.709 180.97 203.499 181.845 204.48C182.741 205.44 183.189 206.549 183.189 207.808C183.189 208.981 182.805 209.931 182.037 210.656C181.29 211.36 180.416 211.712 179.413 211.712C178.453 211.712 177.61 211.424 176.885 210.848C176.181 210.251 175.584 209.461 175.093 208.48C174.624 207.477 174.24 206.368 173.941 205.152H173.813C173.45 206.752 172.928 208.085 172.245 209.152C171.562 210.197 170.794 210.987 169.941 211.52C169.109 212.032 168.256 212.288 167.381 212.288ZM190.05 192.736H189.73C189.623 191.797 189.655 190.912 189.826 190.08C189.996 189.227 190.359 188.544 190.914 188.032C191.468 187.499 192.268 187.232 193.314 187.232C194.38 187.232 195.159 187.477 195.65 187.968C196.14 188.459 196.386 189.141 196.386 190.016C196.386 191.125 196.13 192.075 195.618 192.864L195.362 192.8C196.108 192.395 196.93 192.192 197.826 192.192C198.935 192.192 199.82 192.459 200.482 192.992C201.164 193.504 201.506 194.389 201.506 195.648C201.506 196.821 201.122 197.717 200.354 198.336C199.586 198.933 198.626 199.232 197.474 199.232C197.068 199.232 196.631 199.211 196.162 199.168C195.714 199.104 195.276 199.008 194.85 198.88L195.01 198.528C195.287 199.168 195.554 199.893 195.81 200.704C196.066 201.493 196.29 202.325 196.482 203.2C196.695 204.053 196.855 204.896 196.962 205.728C197.09 206.539 197.154 207.264 197.154 207.904C197.154 209.269 196.812 210.347 196.13 211.136C195.468 211.925 194.444 212.32 193.058 212.32C192.204 212.32 191.49 212.171 190.914 211.872C190.338 211.573 189.879 211.157 189.538 210.624C189.196 210.091 188.951 209.461 188.802 208.736C188.652 207.989 188.578 207.189 188.578 206.336C188.578 205.611 188.631 204.8 188.738 203.904C188.866 202.987 189.047 202.037 189.282 201.056C189.516 200.075 189.794 199.136 190.114 198.24L190.434 199.04C189.751 199.595 188.887 199.872 187.842 199.872C186.668 199.872 185.751 199.584 185.09 199.008C184.428 198.411 184.098 197.504 184.098 196.288C184.098 195.029 184.45 194.059 185.154 193.376C185.879 192.693 186.85 192.352 188.066 192.352C188.45 192.352 188.812 192.395 189.154 192.48C189.495 192.544 189.794 192.629 190.05 192.736Z" fill="#E50004"/>
</g>
</g>
<g filter="url(#filter4_d_22_220)">
<g filter="url(#filter5_d_22_220)">
<rect x="20" y="96" width="286" height="56" rx="10" fill="white" shape-rendering="crispEdges"/>
<rect x="20.5" y="96.5" width="285" height="55" rx="9.5" stroke="#E2C800" shape-rendering="crispEdges"/>
<path d="M134.456 112.48C135.992 112.48 137.272 112.555 138.296 112.704C139.341 112.832 140.216 113.035 140.92 113.312C141.986 113.76 142.701 114.357 143.064 115.104C143.448 115.829 143.64 116.661 143.64 117.6C143.64 118.859 143.298 119.883 142.616 120.672C141.954 121.461 140.952 121.856 139.608 121.856C139.032 121.856 138.424 121.803 137.784 121.696C137.144 121.589 136.482 121.429 135.8 121.216V120.32C136.226 121.109 136.6 121.995 136.92 122.976C137.261 123.957 137.538 124.949 137.752 125.952C137.986 126.933 138.157 127.872 138.264 128.768C138.392 129.643 138.456 130.389 138.456 131.008C138.456 132.672 138.093 133.963 137.368 134.88C136.642 135.776 135.437 136.224 133.752 136.224C132.258 136.224 131.128 135.829 130.36 135.04C129.592 134.229 129.208 133.013 129.208 131.392C129.208 130.624 129.293 129.76 129.464 128.8C129.634 127.84 129.869 126.848 130.168 125.824C130.466 124.8 130.808 123.819 131.192 122.88C131.576 121.941 131.97 121.12 132.376 120.416L132.504 121.216C132.162 121.344 131.746 121.472 131.256 121.6C130.786 121.707 130.306 121.803 129.816 121.888C129.346 121.952 128.92 121.984 128.536 121.984C127.064 121.984 126.018 121.664 125.4 121.024C124.802 120.363 124.504 119.445 124.504 118.272C124.504 117.269 124.728 116.373 125.176 115.584C125.645 114.795 126.381 114.144 127.384 113.632C128.173 113.227 129.133 112.939 130.264 112.768C131.394 112.576 132.792 112.48 134.456 112.48ZM153.699 136.256C151.075 136.256 148.985 135.904 147.427 135.2C145.87 134.496 144.739 133.483 144.035 132.16C143.353 130.837 143.011 129.259 143.011 127.424C143.011 125.099 143.491 123.125 144.451 121.504C145.433 119.861 146.766 118.603 148.451 117.728C150.158 116.853 152.089 116.416 154.243 116.416C156.803 116.416 158.681 116.928 159.875 117.952C161.07 118.955 161.667 120.277 161.667 121.92C161.667 123.221 161.305 124.352 160.579 125.312C159.875 126.272 158.883 127.008 157.603 127.52C156.345 128.032 154.883 128.288 153.219 128.288C152.451 128.288 151.705 128.235 150.979 128.128C150.254 128.021 149.603 127.883 149.027 127.712L149.795 125.92C149.731 126.432 149.699 126.944 149.699 127.456C149.699 128.373 150.03 129.024 150.691 129.408C151.374 129.792 152.313 129.984 153.507 129.984C154.659 129.984 155.641 129.867 156.451 129.632C157.262 129.376 157.977 129.131 158.595 128.896C159.214 128.64 159.801 128.512 160.355 128.512C160.739 128.512 161.134 128.608 161.539 128.8C161.945 128.992 162.286 129.291 162.563 129.696C162.841 130.101 162.979 130.645 162.979 131.328C162.979 132.267 162.627 133.109 161.923 133.856C161.219 134.603 160.174 135.189 158.787 135.616C157.422 136.043 155.726 136.256 153.699 136.256ZM151.843 125.088C152.867 125.088 153.753 124.843 154.499 124.352C155.246 123.84 155.619 123.221 155.619 122.496C155.619 122.027 155.449 121.643 155.107 121.344C154.766 121.045 154.297 120.896 153.699 120.896C153.038 120.896 152.409 121.024 151.811 121.28C151.235 121.536 150.766 121.867 150.403 122.272C150.041 122.677 149.859 123.125 149.859 123.616C149.859 124.085 150.03 124.448 150.371 124.704C150.734 124.96 151.225 125.088 151.843 125.088ZM167.381 136.288C166.208 136.288 165.237 135.904 164.469 135.136C163.701 134.347 163.317 133.365 163.317 132.192C163.317 131.296 163.584 130.485 164.117 129.76C164.65 129.013 165.418 128.363 166.421 127.808C167.445 127.253 168.672 126.816 170.101 126.496V126.368C167.776 125.707 166.058 124.832 164.949 123.744C163.861 122.635 163.317 121.429 163.317 120.128C163.317 119.339 163.52 118.656 163.925 118.08C164.33 117.483 164.864 117.024 165.525 116.704C166.186 116.384 166.88 116.224 167.605 116.224C168.65 116.224 169.589 116.523 170.421 117.12C171.253 117.696 171.957 118.496 172.533 119.52C173.109 120.544 173.525 121.717 173.781 123.04H173.909C174.485 120.629 175.306 118.848 176.373 117.696C177.44 116.523 178.624 115.936 179.925 115.936C181.162 115.936 182.112 116.299 182.773 117.024C183.434 117.749 183.765 118.677 183.765 119.808C183.765 121.067 183.242 122.251 182.197 123.36C181.152 124.469 179.584 125.344 177.493 125.984V126.112C179.52 126.709 180.97 127.499 181.845 128.48C182.741 129.44 183.189 130.549 183.189 131.808C183.189 132.981 182.805 133.931 182.037 134.656C181.29 135.36 180.416 135.712 179.413 135.712C178.453 135.712 177.61 135.424 176.885 134.848C176.181 134.251 175.584 133.461 175.093 132.48C174.624 131.477 174.24 130.368 173.941 129.152H173.813C173.45 130.752 172.928 132.085 172.245 133.152C171.562 134.197 170.794 134.987 169.941 135.52C169.109 136.032 168.256 136.288 167.381 136.288ZM190.05 116.736H189.73C189.623 115.797 189.655 114.912 189.826 114.08C189.996 113.227 190.359 112.544 190.914 112.032C191.468 111.499 192.268 111.232 193.314 111.232C194.38 111.232 195.159 111.477 195.65 111.968C196.14 112.459 196.386 113.141 196.386 114.016C196.386 115.125 196.13 116.075 195.618 116.864L195.362 116.8C196.108 116.395 196.93 116.192 197.826 116.192C198.935 116.192 199.82 116.459 200.482 116.992C201.164 117.504 201.506 118.389 201.506 119.648C201.506 120.821 201.122 121.717 200.354 122.336C199.586 122.933 198.626 123.232 197.474 123.232C197.068 123.232 196.631 123.211 196.162 123.168C195.714 123.104 195.276 123.008 194.85 122.88L195.01 122.528C195.287 123.168 195.554 123.893 195.81 124.704C196.066 125.493 196.29 126.325 196.482 127.2C196.695 128.053 196.855 128.896 196.962 129.728C197.09 130.539 197.154 131.264 197.154 131.904C197.154 133.269 196.812 134.347 196.13 135.136C195.468 135.925 194.444 136.32 193.058 136.32C192.204 136.32 191.49 136.171 190.914 135.872C190.338 135.573 189.879 135.157 189.538 134.624C189.196 134.091 188.951 133.461 188.802 132.736C188.652 131.989 188.578 131.189 188.578 130.336C188.578 129.611 188.631 128.8 188.738 127.904C188.866 126.987 189.047 126.037 189.282 125.056C189.516 124.075 189.794 123.136 190.114 122.24L190.434 123.04C189.751 123.595 188.887 123.872 187.842 123.872C186.668 123.872 185.751 123.584 185.09 123.008C184.428 122.411 184.098 121.504 184.098 120.288C184.098 119.029 184.45 118.059 185.154 117.376C185.879 116.693 186.85 116.352 188.066 116.352C188.45 116.352 188.812 116.395 189.154 116.48C189.495 116.544 189.794 116.629 190.05 116.736Z" fill="#E2C800"/>
</g>
</g>
<g filter="url(#filter6_d_22_220)">
<g filter="url(#filter7_d_22_220)">
<rect x="20" y="20" width="286" height="56" rx="10" fill="white" shape-rendering="crispEdges"/>
<rect x="20.5" y="20.5" width="285" height="55" rx="9.5" stroke="#00E51F" shape-rendering="crispEdges"/>
<path d="M134.456 36.48C135.992 36.48 137.272 36.5547 138.296 36.704C139.341 36.832 140.216 37.0347 140.92 37.312C141.986 37.76 142.701 38.3573 143.064 39.104C143.448 39.8293 143.64 40.6613 143.64 41.6C143.64 42.8587 143.298 43.8827 142.616 44.672C141.954 45.4613 140.952 45.856 139.608 45.856C139.032 45.856 138.424 45.8027 137.784 45.696C137.144 45.5893 136.482 45.4293 135.8 45.216V44.32C136.226 45.1093 136.6 45.9947 136.92 46.976C137.261 47.9573 137.538 48.9493 137.752 49.952C137.986 50.9333 138.157 51.872 138.264 52.768C138.392 53.6427 138.456 54.3893 138.456 55.008C138.456 56.672 138.093 57.9627 137.368 58.88C136.642 59.776 135.437 60.224 133.752 60.224C132.258 60.224 131.128 59.8293 130.36 59.04C129.592 58.2293 129.208 57.0133 129.208 55.392C129.208 54.624 129.293 53.76 129.464 52.8C129.634 51.84 129.869 50.848 130.168 49.824C130.466 48.8 130.808 47.8187 131.192 46.88C131.576 45.9413 131.97 45.12 132.376 44.416L132.504 45.216C132.162 45.344 131.746 45.472 131.256 45.6C130.786 45.7067 130.306 45.8027 129.816 45.888C129.346 45.952 128.92 45.984 128.536 45.984C127.064 45.984 126.018 45.664 125.4 45.024C124.802 44.3627 124.504 43.4453 124.504 42.272C124.504 41.2693 124.728 40.3733 125.176 39.584C125.645 38.7947 126.381 38.144 127.384 37.632C128.173 37.2267 129.133 36.9387 130.264 36.768C131.394 36.576 132.792 36.48 134.456 36.48ZM153.699 60.256C151.075 60.256 148.985 59.904 147.427 59.2C145.87 58.496 144.739 57.4827 144.035 56.16C143.353 54.8373 143.011 53.2587 143.011 51.424C143.011 49.0987 143.491 47.1253 144.451 45.504C145.433 43.8613 146.766 42.6027 148.451 41.728C150.158 40.8533 152.089 40.416 154.243 40.416C156.803 40.416 158.681 40.928 159.875 41.952C161.07 42.9547 161.667 44.2773 161.667 45.92C161.667 47.2213 161.305 48.352 160.579 49.312C159.875 50.272 158.883 51.008 157.603 51.52C156.345 52.032 154.883 52.288 153.219 52.288C152.451 52.288 151.705 52.2347 150.979 52.128C150.254 52.0213 149.603 51.8827 149.027 51.712L149.795 49.92C149.731 50.432 149.699 50.944 149.699 51.456C149.699 52.3733 150.03 53.024 150.691 53.408C151.374 53.792 152.313 53.984 153.507 53.984C154.659 53.984 155.641 53.8667 156.451 53.632C157.262 53.376 157.977 53.1307 158.595 52.896C159.214 52.64 159.801 52.512 160.355 52.512C160.739 52.512 161.134 52.608 161.539 52.8C161.945 52.992 162.286 53.2907 162.563 53.696C162.841 54.1013 162.979 54.6453 162.979 55.328C162.979 56.2667 162.627 57.1093 161.923 57.856C161.219 58.6027 160.174 59.1893 158.787 59.616C157.422 60.0427 155.726 60.256 153.699 60.256ZM151.843 49.088C152.867 49.088 153.753 48.8427 154.499 48.352C155.246 47.84 155.619 47.2213 155.619 46.496C155.619 46.0267 155.449 45.6427 155.107 45.344C154.766 45.0453 154.297 44.896 153.699 44.896C153.038 44.896 152.409 45.024 151.811 45.28C151.235 45.536 150.766 45.8667 150.403 46.272C150.041 46.6773 149.859 47.1253 149.859 47.616C149.859 48.0853 150.03 48.448 150.371 48.704C150.734 48.96 151.225 49.088 151.843 49.088ZM167.381 60.288C166.208 60.288 165.237 59.904 164.469 59.136C163.701 58.3467 163.317 57.3653 163.317 56.192C163.317 55.296 163.584 54.4853 164.117 53.76C164.65 53.0133 165.418 52.3627 166.421 51.808C167.445 51.2533 168.672 50.816 170.101 50.496V50.368C167.776 49.7067 166.058 48.832 164.949 47.744C163.861 46.6347 163.317 45.4293 163.317 44.128C163.317 43.3387 163.52 42.656 163.925 42.08C164.33 41.4827 164.864 41.024 165.525 40.704C166.186 40.384 166.88 40.224 167.605 40.224C168.65 40.224 169.589 40.5227 170.421 41.12C171.253 41.696 171.957 42.496 172.533 43.52C173.109 44.544 173.525 45.7173 173.781 47.04H173.909C174.485 44.6293 175.306 42.848 176.373 41.696C177.44 40.5227 178.624 39.936 179.925 39.936C181.162 39.936 182.112 40.2987 182.773 41.024C183.434 41.7493 183.765 42.6773 183.765 43.808C183.765 45.0667 183.242 46.2507 182.197 47.36C181.152 48.4693 179.584 49.344 177.493 49.984V50.112C179.52 50.7093 180.97 51.4987 181.845 52.48C182.741 53.44 183.189 54.5493 183.189 55.808C183.189 56.9813 182.805 57.9307 182.037 58.656C181.29 59.36 180.416 59.712 179.413 59.712C178.453 59.712 177.61 59.424 176.885 58.848C176.181 58.2507 175.584 57.4613 175.093 56.48C174.624 55.4773 174.24 54.368 173.941 53.152H173.813C173.45 54.752 172.928 56.0853 172.245 57.152C171.562 58.1973 170.794 58.9867 169.941 59.52C169.109 60.032 168.256 60.288 167.381 60.288ZM190.05 40.736H189.73C189.623 39.7973 189.655 38.912 189.826 38.08C189.996 37.2267 190.359 36.544 190.914 36.032C191.468 35.4987 192.268 35.232 193.314 35.232C194.38 35.232 195.159 35.4773 195.65 35.968C196.14 36.4587 196.386 37.1413 196.386 38.016C196.386 39.1253 196.13 40.0747 195.618 40.864L195.362 40.8C196.108 40.3947 196.93 40.192 197.826 40.192C198.935 40.192 199.82 40.4587 200.482 40.992C201.164 41.504 201.506 42.3893 201.506 43.648C201.506 44.8213 201.122 45.7173 200.354 46.336C199.586 46.9333 198.626 47.232 197.474 47.232C197.068 47.232 196.631 47.2107 196.162 47.168C195.714 47.104 195.276 47.008 194.85 46.88L195.01 46.528C195.287 47.168 195.554 47.8933 195.81 48.704C196.066 49.4933 196.29 50.3253 196.482 51.2C196.695 52.0533 196.855 52.896 196.962 53.728C197.09 54.5387 197.154 55.264 197.154 55.904C197.154 57.2693 196.812 58.3467 196.13 59.136C195.468 59.9253 194.444 60.32 193.058 60.32C192.204 60.32 191.49 60.1707 190.914 59.872C190.338 59.5733 189.879 59.1573 189.538 58.624C189.196 58.0907 188.951 57.4613 188.802 56.736C188.652 55.9893 188.578 55.1893 188.578 54.336C188.578 53.6107 188.631 52.8 188.738 51.904C188.866 50.9867 189.047 50.0373 189.282 49.056C189.516 48.0747 189.794 47.136 190.114 46.24L190.434 47.04C189.751 47.5947 188.887 47.872 187.842 47.872C186.668 47.872 185.751 47.584 185.09 47.008C184.428 46.4107 184.098 45.504 184.098 44.288C184.098 43.0293 184.45 42.0587 185.154 41.376C185.879 40.6933 186.85 40.352 188.066 40.352C188.45 40.352 188.812 40.3947 189.154 40.48C189.495 40.544 189.794 40.6293 190.05 40.736Z" fill="#00E51F"/>
</g>
</g>
<defs>
<filter id="filter0_d_22_220" x="16" y="248" width="294" height="64" filterUnits="userSpaceOnUse" color-interpolation-filters="sRGB">
<feFlood flood-opacity="0" result="BackgroundImageFix"/>
<feColorMatrix in="SourceAlpha" type="matrix" values="0 0 0 0 0 0 0 0 0 0 0 0 0 0 0 0 0 0 127 0" result="hardAlpha"/>
<feOffset dy="4"/>
<feGaussianBlur stdDeviation="2"/>
<feComposite in2="hardAlpha" operator="out"/>
<feColorMatrix type="matrix" values="0 0 0 0 0 0 0 0 0 0 0 0 0 0 0 0 0 0 0.25 0"/>
<feBlend mode="normal" in2="BackgroundImageFix" result="effect1_dropShadow_22_220"/>
<feBlend mode="normal" in="SourceGraphic" in2="effect1_dropShadow_22_220" result="shape"/>
</filter>
<filter id="filter1_d_22_220" x="16" y="248" width="294" height="64" filterUnits="userSpaceOnUse" color-interpolation-filters="sRGB">
<feFlood flood-opacity="0" result="BackgroundImageFix"/>
<feColorMatrix in="SourceAlpha" type="matrix" values="0 0 0 0 0 0 0 0 0 0 0 0 0 0 0 0 0 0 127 0" result="hardAlpha"/>
<feOffset dy="4"/>
<feGaussianBlur stdDeviation="2"/>
<feComposite in2="hardAlpha" operator="out"/>
<feColorMatrix type="matrix" values="0 0 0 0 0 0 0 0 0 0 0 0 0 0 0 0 0 0 0.25 0"/>
<feBlend mode="normal" in2="BackgroundImageFix" result="effect1_dropShadow_22_220"/>
<feBlend mode="normal" in="SourceGraphic" in2="effect1_dropShadow_22_220" result="shape"/>
</filter>
<filter id="filter2_d_22_220" x="16" y="172" width="294" height="64" filterUnits="userSpaceOnUse" color-interpolation-filters="sRGB">
<feFlood flood-opacity="0" result="BackgroundImageFix"/>
<feColorMatrix in="SourceAlpha" type="matrix" values="0 0 0 0 0 0 0 0 0 0 0 0 0 0 0 0 0 0 127 0" result="hardAlpha"/>
<feOffset dy="4"/>
<feGaussianBlur stdDeviation="2"/>
<feComposite in2="hardAlpha" operator="out"/>
<feColorMatrix type="matrix" values="0 0 0 0 0 0 0 0 0 0 0 0 0 0 0 0 0 0 0.25 0"/>
<feBlend mode="normal" in2="BackgroundImageFix" result="effect1_dropShadow_22_220"/>
<feBlend mode="normal" in="SourceGraphic" in2="effect1_dropShadow_22_220" result="shape"/>
</filter>
<filter id="filter3_d_22_220" x="16" y="172" width="294" height="64" filterUnits="userSpaceOnUse" color-interpolation-filters="sRGB">
<feFlood flood-opacity="0" result="BackgroundImageFix"/>
<feColorMatrix in="SourceAlpha" type="matrix" values="0 0 0 0 0 0 0 0 0 0 0 0 0 0 0 0 0 0 127 0" result="hardAlpha"/>
<feOffset dy="4"/>
<feGaussianBlur stdDeviation="2"/>
<feComposite in2="hardAlpha" operator="out"/>
<feColorMatrix type="matrix" values="0 0 0 0 0 0 0 0 0 0 0 0 0 0 0 0 0 0 0.25 0"/>
<feBlend mode="normal" in2="BackgroundImageFix" result="effect1_dropShadow_22_220"/>
<feBlend mode="normal" in="SourceGraphic" in2="effect1_dropShadow_22_220" result="shape"/>
</filter>
<filter id="filter4_d_22_220" x="16" y="96" width="294" height="64" filterUnits="userSpaceOnUse" color-interpolation-filters="sRGB">
<feFlood flood-opacity="0" result="BackgroundImageFix"/>
<feColorMatrix in="SourceAlpha" type="matrix" values="0 0 0 0 0 0 0 0 0 0 0 0 0 0 0 0 0 0 127 0" result="hardAlpha"/>
<feOffset dy="4"/>
<feGaussianBlur stdDeviation="2"/>
<feComposite in2="hardAlpha" operator="out"/>
<feColorMatrix type="matrix" values="0 0 0 0 0 0 0 0 0 0 0 0 0 0 0 0 0 0 0.25 0"/>
<feBlend mode="normal" in2="BackgroundImageFix" result="effect1_dropShadow_22_220"/>
<feBlend mode="normal" in="SourceGraphic" in2="effect1_dropShadow_22_220" result="shape"/>
</filter>
<filter id="filter5_d_22_220" x="16" y="96" width="294" height="64" filterUnits="userSpaceOnUse" color-interpolation-filters="sRGB">
<feFlood flood-opacity="0" result="BackgroundImageFix"/>
<feColorMatrix in="SourceAlpha" type="matrix" values="0 0 0 0 0 0 0 0 0 0 0 0 0 0 0 0 0 0 127 0" result="hardAlpha"/>
<feOffset dy="4"/>
<feGaussianBlur stdDeviation="2"/>
<feComposite in2="hardAlpha" operator="out"/>
<feColorMatrix type="matrix" values="0 0 0 0 0 0 0 0 0 0 0 0 0 0 0 0 0 0 0.25 0"/>
<feBlend mode="normal" in2="BackgroundImageFix" result="effect1_dropShadow_22_220"/>
<feBlend mode="normal" in="SourceGraphic" in2="effect1_dropShadow_22_220" result="shape"/>
</filter>
<filter id="filter6_d_22_220" x="16" y="20" width="294" height="64" filterUnits="userSpaceOnUse" color-interpolation-filters="sRGB">
<feFlood flood-opacity="0" result="BackgroundImageFix"/>
<feColorMatrix in="SourceAlpha" type="matrix" values="0 0 0 0 0 0 0 0 0 0 0 0 0 0 0 0 0 0 127 0" result="hardAlpha"/>
<feOffset dy="4"/>
<feGaussianBlur stdDeviation="2"/>
<feComposite in2="hardAlpha" operator="out"/>
<feColorMatrix type="matrix" values="0 0 0 0 0 0 0 0 0 0 0 0 0 0 0 0 0 0 0.25 0"/>
<feBlend mode="normal" in2="BackgroundImageFix" result="effect1_dropShadow_22_220"/>
<feBlend mode="normal" in="SourceGraphic" in2="effect1_dropShadow_22_220" result="shape"/>
</filter>
<filter id="filter7_d_22_220" x="16" y="20" width="294" height="64" filterUnits="userSpaceOnUse" color-interpolation-filters="sRGB">
<feFlood flood-opacity="0" result="BackgroundImageFix"/>
<feColorMatrix in="SourceAlpha" type="matrix" values="0 0 0 0 0 0 0 0 0 0 0 0 0 0 0 0 0 0 127 0" result="hardAlpha"/>
<feOffset dy="4"/>
<feGaussianBlur stdDeviation="2"/>
<feComposite in2="hardAlpha" operator="out"/>
<feColorMatrix type="matrix" values="0 0 0 0 0 0 0 0 0 0 0 0 0 0 0 0 0 0 0.25 0"/>
<feBlend mode="normal" in2="BackgroundImageFix" result="effect1_dropShadow_22_220"/>
<feBlend mode="normal" in="SourceGraphic" in2="effect1_dropShadow_22_220" result="shape"/>
</filter>
</defs>
</svg>
