<svg width="146" height="146" viewBox="0 0 146 146" fill="none" xmlns="http://www.w3.org/2000/svg">
<g filter="url(#filter0_d_13_811)">
<g clip-path="url(#clip0_13_811)">
<rect x="9" y="9" width="128" height="128" rx="50" fill="white"/>
<path d="M90.4845 70.8695C89.8928 70.5557 89.1417 70.7511 88.807 71.3063C88.4725 71.8614 88.6808 72.5678 89.2734 72.8816C90.1823 73.3672 90.737 73.909 91.1037 74.4688C89.5859 74.9691 88.2404 75.1749 87.0515 75.1749C85.3117 75.1734 83.8886 74.7425 82.6885 74.0823C81.4916 73.4206 80.5237 72.5159 79.7898 71.5772C78.5802 70.0301 77.0063 68.652 75.1513 67.6466C73.299 66.6442 71.156 66.0179 68.8561 66.0179C66.8394 66.0166 64.714 66.5036 62.6082 67.5887C61.7473 68.0315 61.001 68.5496 60.351 69.1151C57.7891 70.0404 55.5816 70.3734 53.7142 70.3734C51.0537 70.3734 49.0662 69.7027 47.7375 69.0439C47.074 68.7152 46.5778 68.388 46.2566 68.1512C46.0956 68.0313 45.9783 67.9364 45.9054 67.8744L45.8297 67.8062L45.8178 67.7959H45.8173C45.3454 67.3413 44.569 67.3296 44.0806 67.7707C43.5915 68.2132 43.5773 68.9446 44.0492 69.4036C44.1178 69.4688 44.9643 70.2815 46.5849 71.087C47.2942 71.4393 48.1637 71.7857 49.1681 72.0685C48.9013 72.4209 48.537 72.936 48.1401 73.5918C47.3771 74.8547 46.5005 76.627 46.0538 78.7174C45.9205 79.3421 46.353 79.9508 47.0196 80.0765C47.6863 80.2008 48.3356 79.795 48.4682 79.169C48.8428 77.4087 49.6082 75.8439 50.282 74.732C50.6181 74.1753 50.9298 73.7326 51.1539 73.4349C51.2659 73.2855 51.3558 73.1714 51.4159 73.0974C51.4458 73.0617 51.4687 73.0337 51.4822 73.0174L51.4964 73.001L51.498 72.9995L51.4987 72.998C51.6123 72.8678 51.6882 72.7212 51.7314 72.5673C52.3579 72.6396 53.0159 72.6842 53.7142 72.6827C55.0088 72.6842 56.4266 72.5406 57.9533 72.2149C57.1965 73.7457 56.8852 75.3433 56.8843 76.8074C56.8873 78.282 57.1864 79.6204 57.7198 80.6864C58.0107 81.2638 58.7453 81.5095 59.3599 81.2372C59.9745 80.9647 60.2372 80.2748 59.9461 79.699V79.6975C59.6038 79.0283 59.3432 77.9742 59.3473 76.8074C59.3464 75.5491 59.636 74.1633 60.3304 72.899C61.0285 71.6346 62.1127 70.4813 63.7925 69.6137C65.5652 68.7032 67.2576 68.33 68.8561 68.3286C70.6761 68.3286 72.3907 68.8217 73.9212 69.6477C75.4503 70.4753 76.7861 71.6404 77.8036 72.9431C78.6991 74.0891 79.897 75.2202 81.4387 76.073C82.9771 76.9258 84.8661 77.4868 87.0515 77.4853C88.4976 77.4853 90.0686 77.2395 91.7555 76.7005L91.7594 76.7834C91.7594 77.349 91.6655 77.8642 91.5717 78.2284C91.5251 78.4104 91.4786 78.5542 91.4462 78.6474C91.4297 78.6933 91.4171 78.7273 91.4092 78.7465L91.4021 78.7643L91.4014 78.7671H91.4021C91.1528 79.358 91.4597 80.0272 92.0893 80.264C92.7204 80.5009 93.4375 80.2121 93.6901 79.6199C93.7216 79.5371 94.2173 78.3838 94.2219 76.7832C94.2219 75.8652 94.0506 74.7875 93.4818 73.7232C92.917 72.6595 91.9417 71.6379 90.4845 70.8695Z" fill="#214336"/>
<path d="M93.2301 63.1547C89.8455 63.1547 87.1274 61.985 85.2473 60.4542C84.3093 59.6903 83.588 58.836 83.114 58.0189C82.6375 57.2001 82.4189 56.4213 82.4221 55.838C82.4221 55.1998 81.8706 54.6832 81.1905 54.6832C80.5105 54.6832 79.9596 55.1998 79.9596 55.838C79.9628 56.9246 80.3248 58.038 80.9513 59.1218C81.607 60.2501 82.5648 61.3455 83.7823 62.3107C83.5368 62.6305 83.1982 63.0423 82.766 63.4833C81.8279 64.4442 80.4757 65.5086 78.8613 66.0461C78.2208 66.2607 77.887 66.9225 78.1159 67.522C78.3447 68.1232 79.0494 68.4372 79.6892 68.2222C81.8802 67.4835 83.5203 66.1364 84.6329 64.9903C85.1284 64.478 85.5141 64.0103 85.799 63.6358C87.8362 64.7387 90.3522 65.4671 93.2305 65.4656C93.9098 65.4656 94.4622 64.949 94.4622 64.3108C94.4616 63.6729 93.9094 63.1547 93.2301 63.1547Z" fill="#214336"/>
<path d="M85.0215 85.7471C82.7178 85.7471 80.8873 85.3295 79.4166 84.6915C77.2153 83.7322 75.7872 82.2577 74.8886 80.7874C74.4406 80.0545 74.1313 79.3248 73.9363 78.6836C73.7406 78.0456 73.664 77.4859 73.6656 77.1469C73.6656 76.5089 73.115 75.992 72.4348 75.992C71.7539 75.992 71.2033 76.5087 71.2033 77.1469C71.2033 77.563 71.2561 78.0234 71.3643 78.5297C71.552 79.412 71.9094 80.4322 72.4887 81.4833C73.3574 83.0586 74.7365 84.7107 76.7973 85.9664C77.3133 86.283 77.8719 86.5704 78.473 86.8278C78.5668 87.2069 78.6971 87.8819 78.6962 88.6962C78.6962 89.2885 78.6283 89.9487 78.4375 90.6254C78.2466 91.3019 77.9357 91.992 77.4418 92.6625C77.0545 93.1881 77.194 93.9075 77.7535 94.2704C78.313 94.6331 79.0798 94.5028 79.4665 93.9787C80.1387 93.0667 80.5646 92.1192 80.8187 91.2161C81.0736 90.3116 81.1587 89.4514 81.1587 88.6962C81.1587 88.3187 81.1367 87.9693 81.1035 87.6496C82.2902 87.9088 83.5903 88.0597 85.0215 88.0582C85.7009 88.0582 86.2524 87.5401 86.2524 86.9019C86.2524 86.2652 85.7009 85.7471 85.0215 85.7471Z" fill="#214336"/>
<path d="M101.747 68.3928C101.137 67.8999 100.479 67.4957 99.785 67.2084C99.0915 66.9212 98.3585 66.7494 97.6081 66.7494C96.9281 66.7494 96.3766 67.266 96.3766 67.9042C96.3766 68.5439 96.9281 69.0605 97.6081 69.0605C98.061 69.059 98.6338 69.2071 99.2358 69.5343C100.138 70.0199 101.077 70.8918 101.759 71.9844C102.445 73.0755 102.88 74.3741 102.879 75.7153C102.874 77.1914 102.378 78.7311 101.037 80.2621C100.604 80.755 100.678 81.4819 101.203 81.889C101.727 82.2947 102.503 82.2252 102.936 81.7336C104.626 79.8205 105.347 77.699 105.342 75.7153C105.342 74.5101 105.084 73.357 104.652 72.3058C104.002 70.7303 102.966 69.3817 101.747 68.3928Z" fill="#214336"/>
<path d="M58.8724 62.2338V62.2323C59.7182 61.2921 60.9231 60.5549 62.2966 60.059C63.6679 59.5615 65.1985 59.3127 66.6305 59.3142C68.0254 59.3112 69.3241 59.5525 70.2766 59.9686C70.8944 60.2351 71.6256 59.9834 71.9114 59.4031C72.1961 58.8241 71.9263 58.1388 71.3094 57.8706C69.9335 57.277 68.3169 57.0045 66.6307 57.0031C64.8997 57.0031 63.0936 57.2963 61.4115 57.9016C59.7335 58.5086 58.1705 59.4356 56.9927 60.7398C56.5531 61.2269 56.6178 61.9567 57.137 62.3684C57.6558 62.7816 58.433 62.7194 58.8724 62.2338Z" fill="#214336"/>
<path d="M114.603 58.8953L114.604 58.8973L114.603 58.8953Z" fill="#214336"/>
<path d="M88.7472 97.4653V97.4673H88.7462L88.7472 97.4653Z" fill="#214336"/>
<path d="M116.484 66.7168C116.266 66.5095 116.032 66.3125 115.796 66.1188C115.92 65.4717 115.991 64.8129 115.991 64.1437C115.992 62.3701 115.542 60.5639 114.604 58.8968C113.531 56.9855 111.943 55.4693 110.089 54.4419C108.792 53.7224 107.366 53.2428 105.887 53.0192C105.528 51.8215 104.965 50.6814 104.21 49.6467C102.951 47.9234 101.162 46.4963 98.9722 45.6123C97.4062 44.9801 95.7627 44.6766 94.1485 44.6766C94.1485 44.6766 94.0987 44.6751 94.0081 44.6826C91.9583 44.705 89.963 45.2097 88.1979 46.1321C87.5076 45.3518 86.7092 44.6574 85.8207 44.0726C83.8735 42.7891 81.4923 42.028 78.9447 42.0043C78.9154 42.0028 78.88 42.0015 78.8366 42C78.8311 42 78.8256 42 78.8194 42H78.8178H78.8162H78.8155C78.8116 42 78.8077 42 78.8038 42C78.7801 42 78.7517 42.0015 78.7154 42.0028C76.4969 42.0192 74.4006 42.5937 72.6095 43.5884C71.8332 44.0178 71.1247 44.5344 70.4746 45.1089C68.619 44.0236 66.4263 43.3899 64.0909 43.3796L64.0823 43.3782H64.0271C64.0255 43.3782 64.0246 43.3782 64.0232 43.3782C64.02 43.3782 64.0168 43.3782 64.013 43.3782C63.9846 43.3782 63.949 43.3796 63.9041 43.3826C61.4195 43.4048 59.0896 44.1273 57.1686 45.3532C56.0553 46.0624 55.081 46.9403 54.2753 47.9454C53.256 47.6864 52.1917 47.5458 51.1043 47.5458C50.1995 47.5458 49.2818 47.6421 48.3683 47.8375C45.6777 48.4163 43.3796 49.8006 41.7327 51.6497H41.7336C40.5778 52.9451 39.7439 54.4729 39.2862 56.1208C37.5314 56.6791 35.8778 57.6148 34.4947 58.9367C34.494 58.9382 34.4924 58.9397 34.4908 58.9412C32.1711 61.1604 31.0034 64.0637 31.0043 66.9462V66.9506V66.9566C31.0043 66.9566 31.0043 66.9594 31.0043 66.9624V66.9934H31.005C31.008 67.9956 31.1525 68.995 31.4343 69.9662C29.8529 71.9518 29.0009 74.3634 29 76.8316C28.9993 78.6584 29.4689 80.5164 30.4446 82.2293C31.5413 84.1526 33.154 85.6759 35.0302 86.7078C36.3461 87.4317 37.7908 87.9101 39.2873 88.1351C40.0842 90.1441 41.4507 91.8778 43.199 93.1613C45.2787 94.6908 47.9023 95.5953 50.7133 95.5953C51.0053 95.5953 51.2965 95.5866 51.5874 95.5658H51.5945H51.5984H51.5993H51.6C52.841 95.4814 54.03 95.2194 55.1377 94.8152C55.8738 95.9224 56.7991 96.901 57.8739 97.7081C59.9529 99.2699 62.5967 100.203 65.4306 100.215C65.4409 100.216 65.4495 100.216 65.4584 100.216C65.468 100.216 65.4772 100.216 65.4861 100.216H65.4877C65.4886 100.216 65.4886 100.216 65.4886 100.216H65.4909H65.5035C65.5076 100.216 65.5092 100.216 65.5131 100.216L65.5439 100.215H65.5526C65.779 100.213 66.0063 100.204 66.2326 100.191H66.2358L66.3691 100.188C67.3836 100.118 68.3636 99.9331 69.2923 99.6461C70.4623 101.276 72.0916 102.651 74.1075 103.564H74.1066C75.8075 104.333 77.6222 104.702 79.4031 104.702C81.1371 104.702 82.8334 104.348 84.3893 103.694C86.6504 105.947 89.8388 107.3 93.2683 107.303C94.0203 107.303 94.7809 107.238 95.5416 107.104C98.4632 106.588 100.967 105.121 102.718 103.118H102.717C103.861 101.814 104.684 100.274 105.125 98.6129C107.145 98.4265 109.15 97.7661 110.922 96.5965C112.608 95.486 113.915 94.0351 114.79 92.4155C115.666 90.7973 116.118 89.0117 116.118 87.2101C116.118 86.0094 115.909 84.8041 115.5 83.6419C116.551 82.8382 117.481 81.858 118.223 80.7107C119.423 78.86 120 76.7962 120 74.7678C119.999 71.8024 118.774 68.8931 116.484 66.7168ZM114.54 78.611C113.302 80.5238 111.306 81.7142 109.126 82.0681C108.456 82.1762 108.006 82.7743 108.121 83.4018C108.236 84.0312 108.873 84.4531 109.543 84.345C110.044 84.2651 110.537 84.1481 111.021 84.0001C111.548 85.0217 111.807 86.1173 111.807 87.2099C111.808 88.378 111.514 89.5387 110.948 90.5854C110.38 91.6323 109.544 92.5633 108.446 93.2889C107.063 94.1978 105.493 94.6318 103.928 94.6331C103.806 94.6331 103.683 94.6242 103.561 94.6184C103.535 94.426 103.51 94.235 103.472 94.0439V94.0424C103.202 92.7025 102.647 91.4767 101.884 90.4123L101.791 90.2819L101.664 90.1797C100.731 89.4306 99.493 88.1988 98.5375 86.9434C98.0586 86.3171 97.6491 85.6834 97.3738 85.1194C97.0951 84.5553 96.9675 84.0622 96.9722 83.7707C96.9722 83.6404 96.9928 83.5531 97.0157 83.4939C97.04 83.4362 97.063 83.402 97.1111 83.3548C97.5916 82.9047 97.5916 82.1718 97.1111 81.7217C96.6298 81.2703 95.8503 81.2703 95.3697 81.7217V81.7204C95.07 82.0016 94.8436 82.3406 94.7046 82.6959C94.5658 83.0513 94.5098 83.417 94.5098 83.7709C94.5144 84.5718 94.7725 85.3297 95.1354 86.0818C95.6855 87.2041 96.506 88.3188 97.392 89.3359C98.2259 90.2924 99.1135 91.1495 99.908 91.8069C100.455 92.5975 100.854 93.4888 101.051 94.4703C101.134 94.8834 101.18 95.2934 101.186 95.6887L101.187 95.6947C101.188 95.748 101.189 95.7999 101.189 95.8531C101.189 97.6002 100.526 99.2508 99.3881 100.552C98.2479 101.852 96.6439 102.794 94.745 103.13C94.248 103.217 93.7548 103.26 93.2696 103.26C90.6581 103.262 88.2422 102.033 86.7906 100.073C87.5718 99.3293 88.2376 98.4558 88.7471 97.467C89.3792 96.2411 89.7104 94.9441 89.7712 93.6621C89.8013 93.0224 89.2743 92.4836 88.5957 92.4554C87.9157 92.4274 87.3404 92.9217 87.3103 93.5585C87.2638 94.54 87.013 95.5231 86.5294 96.4601L86.5286 96.4631C86.0125 97.4668 85.2898 98.3062 84.4307 98.9711L84.426 98.9739C83.0146 100.061 81.2282 100.659 79.4034 100.659C78.2531 100.659 77.0877 100.422 75.9792 99.9215C73.9262 98.9916 72.5006 97.3484 71.8701 95.4594L71.8693 95.4579C71.6286 94.7411 71.504 93.9906 71.504 93.2342C71.504 92.1549 71.7566 91.0623 72.2921 90.0171C72.588 89.4426 72.3301 88.7527 71.7177 88.4759C71.1055 88.1991 70.3694 88.4404 70.0743 89.0149C69.3751 90.3739 69.0415 91.8174 69.0415 93.2343C69.0415 93.9212 69.1252 94.6009 69.2766 95.2671C68.3149 95.76 67.23 96.0739 66.0575 96.1556H66.0552C65.8643 96.1674 65.6748 96.1733 65.4888 96.1733C63.6401 96.1733 61.9273 95.5721 60.5655 94.5507C59.3804 93.6622 58.4723 92.4587 57.9871 91.0655C58.8541 90.263 59.5721 89.3245 60.0968 88.2836C60.3871 87.7077 60.1244 87.0178 59.5098 86.7453C58.8952 86.4728 58.1606 86.7186 57.8702 87.2961C57.3826 88.2643 56.6758 89.1231 55.8054 89.8115C54.573 90.787 53.0164 91.4163 51.2831 91.5332H51.2806C51.0905 91.5451 50.9012 91.5524 50.7142 91.5524C46.804 91.5539 43.4667 88.8476 42.9033 85.2205L42.9019 85.2115L42.9003 85.2025C42.8702 85.0309 42.8489 84.8501 42.8347 84.6637C42.8214 84.4829 42.8144 84.3053 42.8144 84.1277C42.8144 83.6598 42.861 83.2024 42.9492 82.7568C43.0723 82.129 42.6305 81.5265 41.9615 81.4094C41.2932 81.2938 40.651 81.7086 40.5272 82.3362C40.4127 82.9166 40.3519 83.5162 40.3519 84.1277L40.3544 84.1942C39.2475 84.0787 38.1729 83.7487 37.2103 83.2187C35.996 82.5509 34.9602 81.5753 34.2453 80.3228C33.6094 79.2065 33.3104 78.0132 33.3095 76.8333C33.3095 75.3113 33.8131 73.8161 34.7447 72.5666C35.1013 73.0404 35.5078 73.4904 35.9629 73.9093C37.0006 74.8658 38.2043 75.5751 39.4803 76.0368C40.1139 76.2679 40.8272 75.9718 41.0725 75.3766C41.3179 74.7815 41.0024 74.1123 40.3688 73.8827C39.3952 73.5288 38.4816 72.9915 37.6886 72.2601L37.687 72.2588C36.9895 71.6176 36.4474 70.8864 36.0568 70.1031C35.5621 69.1112 35.3137 68.0348 35.3137 66.9571C35.3144 65.0812 36.0616 63.2174 37.5693 61.7709C38.8513 60.5466 40.465 59.8298 42.1421 59.6152H42.1437H42.1453L42.1499 59.6137C42.5043 59.5694 42.8608 59.5457 43.219 59.5472C45.2176 59.5487 47.208 60.2506 48.749 61.6643C49.2349 62.1099 50.0145 62.1026 50.4903 61.6467C50.9661 61.1908 50.9573 60.4594 50.4714 60.0136C48.5107 58.2118 45.968 57.291 43.421 57.2451C43.7115 56.1392 44.2653 55.1118 45.0384 54.2457C46.1082 53.0465 47.5799 52.1582 49.332 51.7791C49.927 51.6517 50.5203 51.5897 51.104 51.5897C52.1359 51.5897 53.1389 51.7821 54.0658 52.1345C53.8022 52.9946 53.6571 53.9023 53.6571 54.8393C53.6571 55.4773 54.2086 55.9941 54.8887 55.9941C55.5687 55.9941 56.1195 55.4775 56.1195 54.8393C56.1195 53.8281 56.3365 52.8629 56.7239 51.9864C57.3187 50.648 58.3239 49.5051 59.5887 48.6981C60.8559 47.8914 62.3763 47.4234 64.0251 47.4219C66.3975 47.4234 68.5168 48.3976 69.9693 49.9507L69.9718 49.9522C71.193 51.2564 71.9292 52.962 71.93 54.8391C71.93 55.4772 72.4807 55.9939 73.1616 55.9939C73.8418 55.9939 74.3924 55.4773 74.3924 54.8391C74.3933 52.7058 73.6578 50.7249 72.4121 49.1214C73.0496 48.2924 73.8622 47.5905 74.8026 47.0694C75.9797 46.4166 77.3463 46.0435 78.8169 46.0435C80.5061 46.0435 82.0604 46.538 83.3442 47.3834C84.6278 48.2272 85.633 49.422 86.2002 50.8151L86.1995 50.8138C86.5342 51.6384 86.7179 52.5252 86.7186 53.4609C86.7186 54.0989 87.2694 54.6159 87.9496 54.6159C88.6296 54.6159 89.1812 54.0991 89.1812 53.4609C89.1812 52.5074 89.0288 51.5865 88.7558 50.7161C90.2138 49.4414 92.1491 48.7203 94.1462 48.7203C95.1891 48.7203 96.2465 48.9158 97.269 49.3273C98.6948 49.9033 99.8395 50.8196 100.656 51.9359C101.472 53.0507 101.953 54.3639 102.035 55.72C102.042 55.8592 102.047 55.9998 102.047 56.1403C102.046 57.1189 101.84 58.1096 101.402 59.0689C101.133 59.6553 101.422 60.3346 102.046 60.5863C102.671 60.8394 103.395 60.5671 103.664 59.9808C104.12 58.9859 104.383 57.954 104.472 56.9266C105.679 57.0021 106.855 57.3455 107.896 57.923C109.085 58.5833 110.097 59.5455 110.79 60.7804V60.7817C111.397 61.8596 111.681 63.0084 111.682 64.144C111.682 64.6651 111.618 65.1803 111.5 65.6852C110.757 65.4157 109.994 65.2306 109.225 65.1286C108.552 65.0397 107.93 65.4796 107.835 66.1131C107.74 66.7439 108.209 67.3286 108.883 67.4175C109.655 67.5197 110.416 67.7285 111.147 68.0511C111.276 68.2481 111.467 68.4123 111.711 68.5101C111.863 68.5708 112.021 68.6004 112.177 68.6018C112.632 68.8861 113.045 69.2044 113.414 69.5568L113.398 69.5406L113.418 69.5598C114.892 70.9574 115.69 72.8451 115.69 74.7681C115.69 76.0808 115.321 77.4061 114.54 78.611Z" fill="#214336"/>
</g>
<rect x="11.5" y="11.5" width="123" height="123" rx="47.5" stroke="black" stroke-width="5"/>
</g>
<defs>
<filter id="filter0_d_13_811" x="0" y="0" width="146" height="146" filterUnits="userSpaceOnUse" color-interpolation-filters="sRGB">
<feFlood flood-opacity="0" result="BackgroundImageFix"/>
<feColorMatrix in="SourceAlpha" type="matrix" values="0 0 0 0 0 0 0 0 0 0 0 0 0 0 0 0 0 0 127 0" result="hardAlpha"/>
<feMorphology radius="1" operator="dilate" in="SourceAlpha" result="effect1_dropShadow_13_811"/>
<feOffset/>
<feGaussianBlur stdDeviation="4"/>
<feComposite in2="hardAlpha" operator="out"/>
<feColorMatrix type="matrix" values="0 0 0 0 0.576471 0 0 0 0 0.47451 0 0 0 0 0.0117647 0 0 0 1 0"/>
<feBlend mode="normal" in2="BackgroundImageFix" result="effect1_dropShadow_13_811"/>
<feBlend mode="normal" in="SourceGraphic" in2="effect1_dropShadow_13_811" result="shape"/>
</filter>
<clipPath id="clip0_13_811">
<rect x="9" y="9" width="128" height="128" rx="50" fill="white"/>
</clipPath>
</defs>
</svg>
