<svg width="356" height="97" viewBox="0 0 356 97" fill="none" xmlns="http://www.w3.org/2000/svg">
<g filter="url(#filter0_dd_10_360)">
<mask id="path-1-outside-1_10_360" maskUnits="userSpaceOnUse" x="4" y="12" width="347" height="73" fill="black">
<rect fill="white" x="4" y="12" width="347" height="73"/>
<path d="M54.28 77.64C52.36 77.64 50.68 77.2933 49.24 76.6C47.8 75.8533 46.68 74.5733 45.88 72.76C45.08 70.9467 44.68 68.4133 44.68 65.16C44.68 62.28 44.8933 59.24 45.32 56.04C45.7467 52.7867 46.28 49.48 46.92 46.12C47.6133 42.76 48.2533 39.5333 48.84 36.44H48.52C46.8667 43.3733 45.08 48.3333 43.16 51.32C41.24 54.3067 39.08 55.8 36.68 55.8C35.1867 55.8 33.8267 55.2667 32.6 54.2C31.4267 53.1333 30.28 51.1333 29.16 48.2C28.04 45.2667 26.8667 41.0267 25.64 35.48H25.32C25.6933 37.6133 26.0667 39.88 26.44 42.28C26.8667 44.68 27.2667 47.1067 27.64 49.56C28.0133 51.96 28.3067 54.2533 28.52 56.44C28.7867 58.6267 28.92 60.5733 28.92 62.28C28.92 64.7333 28.6267 66.9733 28.04 69C27.4533 70.9733 26.44 72.5467 25 73.72C23.56 74.8933 21.56 75.48 19 75.48C15.5867 75.48 13.0533 74.4667 11.4 72.44C9.8 70.36 9 66.9467 9 62.2C9 60.2267 9.05333 57.9333 9.16 55.32C9.32 52.6533 9.50667 49.9067 9.72 47.08C9.98667 44.2533 10.28 41.5067 10.6 38.84C10.92 36.1733 11.24 33.8533 11.56 31.88C12.3067 27.4 13.6133 24.2267 15.48 22.36C17.4 20.44 19.8267 19.48 22.76 19.48C24.68 19.48 26.5467 20.0133 28.36 21.08C30.1733 22.0933 31.8267 24.0133 33.32 26.84C34.8667 29.6133 36.0933 33.6133 37 38.84H37.32C38.1733 33.4 39.2667 29.16 40.6 26.12C41.9867 23.08 43.5333 20.9733 45.24 19.8C46.9467 18.5733 48.7867 17.96 50.76 17.96C53.8533 17.96 56.3067 18.9733 58.12 21C59.9333 22.9733 61.2667 25.7733 62.12 29.4C62.8133 32.3333 63.4 35.72 63.88 39.56C64.4133 43.4 64.8133 47.3467 65.08 51.4C65.3467 55.4 65.48 59.16 65.48 62.68C65.48 68.1733 64.4667 72.04 62.44 74.28C60.4133 76.52 57.6933 77.64 54.28 77.64ZM98.5088 19.72C103.255 19.72 106.562 20.44 108.429 21.88C110.349 23.32 111.309 25.4 111.309 28.12C111.309 31.2133 110.189 33.5333 107.949 35.08C105.709 36.5733 102.242 37.32 97.5488 37.32C95.8954 37.32 94.0288 37.2933 91.9488 37.24C89.8688 37.1333 87.6821 36.9733 85.3888 36.76L85.7888 36.12C86.3221 37.2933 86.5888 38.6 86.5888 40.04C86.5888 41.48 86.3754 42.84 85.9488 44.12L84.6688 44.36C86.0021 43.88 87.6021 43.4533 89.4688 43.08C91.3354 42.7067 93.2554 42.4133 95.2288 42.2C97.2554 41.9867 99.0954 41.88 100.749 41.88C104.535 41.88 107.175 42.44 108.669 43.56C110.162 44.6267 110.909 45.9333 110.909 47.48C110.909 49.1867 109.922 50.6533 107.949 51.88C105.975 53.1067 102.589 53.72 97.7888 53.72C95.8154 53.72 93.6821 53.6667 91.3888 53.56C89.0954 53.4 86.7754 53.1867 84.4288 52.92L85.7088 52.76C86.1888 53.6667 86.4821 54.7333 86.5888 55.96C86.7488 57.1333 86.7221 58.3067 86.5088 59.48C86.2954 60.6533 85.8954 61.72 85.3088 62.68V61.88C86.6954 61.4533 88.2688 61.1067 90.0288 60.84C91.7888 60.52 93.6021 60.28 95.4688 60.12C97.3354 59.96 99.0688 59.88 100.669 59.88C104.455 59.88 107.282 60.3867 109.149 61.4C111.015 62.4133 111.949 64.0933 111.949 66.44C111.949 68.7333 111.202 70.7067 109.709 72.36C108.269 74.0133 106.349 75.2933 103.949 76.2C101.602 77.0533 99.0154 77.48 96.1888 77.48C89.9488 77.48 84.9088 76.7067 81.0688 75.16C77.2821 73.56 74.4554 71.24 72.5888 68.2C71.8421 66.92 71.1488 65.4533 70.5088 63.8C69.9221 62.1467 69.4688 60.2267 69.1488 58.04C68.8288 55.8 68.6688 53.24 68.6688 50.36C68.6688 45.8267 69.1488 41.7733 70.1087 38.2C71.0688 34.6267 72.3754 31.6933 74.0288 29.4C76.5354 25.9867 79.8688 23.5333 84.0288 22.04C88.1888 20.4933 93.0154 19.72 98.5088 19.72ZM163.261 79.24C161.341 79.24 159.661 78.8667 158.221 78.12C156.781 77.4267 155.661 76.1733 154.861 74.36C154.061 72.5467 153.661 70.0133 153.661 66.76C153.661 64.68 153.741 62.4667 153.901 60.12C154.061 57.7733 154.275 55.4 154.541 53C154.808 50.6 155.101 48.28 155.421 46.04H155.101C153.608 52.12 151.955 56.4667 150.141 59.08C148.328 61.6933 146.301 63 144.061 63C142.675 63 141.421 62.52 140.301 61.56C139.181 60.6 138.115 58.84 137.101 56.28C136.088 53.6667 134.995 49.9333 133.821 45.08H133.501C133.661 46.5733 133.795 48.1733 133.901 49.88C134.061 51.5333 134.195 53.2133 134.301 54.92C134.408 56.6267 134.488 58.2533 134.541 59.8C134.648 61.3467 134.701 62.7067 134.701 63.88C134.701 66.3333 134.435 68.5733 133.901 70.6C133.368 72.5733 132.435 74.1467 131.101 75.32C129.768 76.4933 127.928 77.08 125.581 77.08C121.901 77.08 119.181 75.3733 117.421 71.96C115.661 68.5467 114.781 62.8933 114.781 55C114.781 47.8 115.395 41.6933 116.621 36.68C117.848 31.6133 119.608 27.7467 121.901 25.08C124.248 22.4133 126.995 21.08 130.141 21.08C131.581 21.08 133.021 21.4 134.461 22.04C135.955 22.6267 137.341 23.7733 138.621 25.48C139.955 27.1867 141.128 29.64 142.141 32.84C143.155 35.9867 143.901 40.12 144.381 45.24H144.701C145.181 39.96 145.901 35.64 146.861 32.28C147.821 28.92 148.941 26.3333 150.221 24.52C151.501 22.6533 152.888 21.3733 154.381 20.68C155.875 19.9333 157.395 19.56 158.941 19.56C161.768 19.56 164.115 20.28 165.981 21.72C167.901 23.16 169.421 25.16 170.541 27.72C171.661 30.2267 172.488 33.1333 173.021 36.44C173.608 39.6933 173.981 43.16 174.141 46.84C174.355 50.4667 174.461 54.1467 174.461 57.88C174.461 63.1067 173.981 67.2933 173.021 70.44C172.115 73.5333 170.835 75.7733 169.181 77.16C167.528 78.5467 165.555 79.24 163.261 79.24ZM206.293 76.44C200.48 76.44 195.413 75.4 191.093 73.32C186.826 71.24 183.52 68.28 181.173 64.44C178.826 60.5467 177.653 55.96 177.653 50.68C177.653 44.8133 178.826 39.6667 181.173 35.24C183.573 30.8133 186.933 27.3733 191.253 24.92C195.626 22.4133 200.72 21.16 206.533 21.16C212.72 21.16 218.08 22.36 222.613 24.76C227.146 27.16 230.666 30.52 233.173 34.84C235.68 39.1067 236.933 44.0933 236.933 49.8C236.933 55.2933 235.68 60.04 233.173 64.04C230.666 67.9867 227.12 71.0533 222.533 73.24C217.946 75.3733 212.533 76.44 206.293 76.44ZM207.573 54.52C209.546 54.52 211.253 54.1467 212.693 53.4C214.133 52.6533 215.253 51.6667 216.053 50.44C216.853 49.16 217.253 47.72 217.253 46.12C217.253 44.52 216.853 43.1067 216.053 41.88C215.253 40.6 214.133 39.5867 212.693 38.84C211.253 38.0933 209.546 37.72 207.573 37.72C205.653 37.72 203.946 38.0933 202.453 38.84C201.013 39.5867 199.893 40.6 199.093 41.88C198.293 43.1067 197.893 44.52 197.893 46.12C197.893 47.72 198.293 49.16 199.093 50.44C199.893 51.6667 201.013 52.6533 202.453 53.4C203.946 54.1467 205.653 54.52 207.573 54.52ZM252.652 79.16C249.399 79.16 246.865 78.3333 245.052 76.68C243.239 74.9733 241.959 72.2267 241.212 68.44C240.519 64.6533 240.172 59.5867 240.172 53.24C240.172 47.5333 240.732 42.6533 241.852 38.6C242.972 34.5467 244.412 31.24 246.172 28.68C248.679 25.0533 251.879 22.4933 255.772 21C259.665 19.4533 263.879 18.68 268.412 18.68C275.559 18.68 280.839 20.2267 284.252 23.32C287.665 26.4133 289.372 30.4933 289.372 35.56C289.372 38.92 288.599 41.8 287.052 44.2C285.559 46.5467 283.505 48.36 280.892 49.64C278.279 50.8667 275.265 51.5333 271.852 51.64V51.96C278.679 53.9333 283.505 56.2267 286.332 58.84C289.159 61.4 290.572 64.1733 290.572 67.16C290.572 69.56 289.825 71.48 288.332 72.92C286.839 74.3067 284.812 75 282.252 75C279.319 75 276.652 74.36 274.252 73.08C271.905 71.7467 269.639 69.48 267.452 66.28C265.265 63.0267 262.892 58.5467 260.332 52.84H260.012C260.385 54.0133 260.732 55.48 261.052 57.24C261.372 58.9467 261.639 60.7333 261.852 62.6C262.065 64.4133 262.172 66.0933 262.172 67.64C262.172 71.3733 261.452 74.2267 260.012 76.2C258.625 78.1733 256.172 79.16 252.652 79.16ZM267.532 43.48C269.452 43.48 271.132 43.16 272.572 42.52C274.012 41.88 275.132 40.9733 275.932 39.8C276.785 38.6267 277.212 37.24 277.212 35.64C277.212 33.6133 276.545 31.9067 275.212 30.52C273.879 29.1333 271.772 28.44 268.892 28.44C266.759 28.44 264.892 28.84 263.292 29.64C261.745 30.3867 260.545 31.4 259.692 32.68C258.839 33.9067 258.412 35.2667 258.412 36.76C258.412 38.7333 259.212 40.36 260.812 41.64C262.465 42.8667 264.705 43.48 267.532 43.48ZM315.671 76.92C312.577 76.92 310.071 76.0667 308.151 74.36C306.231 72.6533 305.271 69.5867 305.271 65.16C305.271 62.4933 305.591 59.8267 306.231 57.16C306.924 54.4933 307.777 52.0133 308.791 49.72C309.857 47.3733 310.977 45.48 312.151 44.04L312.631 46.28C309.217 45.6933 306.257 44.92 303.751 43.96C301.244 43 299.164 41.8533 297.511 40.52C295.911 39.1867 294.711 37.72 293.911 36.12C293.164 34.52 292.791 32.8133 292.791 31C292.791 28.3333 293.351 26.04 294.471 24.12C295.644 22.2 297.164 20.7067 299.031 19.64C300.897 18.5733 302.924 18.04 305.111 18.04C307.671 18.04 309.857 18.7067 311.671 20.04C313.537 21.32 315.031 23.1333 316.151 25.48C317.324 27.7733 318.124 30.4133 318.551 33.4H318.871C319.617 30.9467 320.551 28.8667 321.671 27.16C322.791 25.4 324.017 23.96 325.351 22.84C326.737 21.72 328.177 20.8933 329.671 20.36C331.217 19.8267 332.737 19.56 334.231 19.56C337.644 19.56 340.284 20.7067 342.151 23C344.071 25.24 345.031 28.0667 345.031 31.48C345.031 33.56 344.471 35.4533 343.351 37.16C342.284 38.8667 340.711 40.3867 338.631 41.72C336.604 43 334.097 44.04 331.111 44.84C328.177 45.64 324.817 46.1467 321.031 46.36L321.751 44.84C322.977 46.6533 324.097 48.7067 325.111 51C326.124 53.2933 326.924 55.6133 327.511 57.96C328.097 60.2533 328.391 62.4133 328.391 64.44C328.391 68.4933 327.217 71.5867 324.871 73.72C322.524 75.8533 319.457 76.92 315.671 76.92Z"/>
</mask>
<path d="M54.28 77.64C52.36 77.64 50.68 77.2933 49.24 76.6C47.8 75.8533 46.68 74.5733 45.88 72.76C45.08 70.9467 44.68 68.4133 44.68 65.16C44.68 62.28 44.8933 59.24 45.32 56.04C45.7467 52.7867 46.28 49.48 46.92 46.12C47.6133 42.76 48.2533 39.5333 48.84 36.44H48.52C46.8667 43.3733 45.08 48.3333 43.16 51.32C41.24 54.3067 39.08 55.8 36.68 55.8C35.1867 55.8 33.8267 55.2667 32.6 54.2C31.4267 53.1333 30.28 51.1333 29.16 48.2C28.04 45.2667 26.8667 41.0267 25.64 35.48H25.32C25.6933 37.6133 26.0667 39.88 26.44 42.28C26.8667 44.68 27.2667 47.1067 27.64 49.56C28.0133 51.96 28.3067 54.2533 28.52 56.44C28.7867 58.6267 28.92 60.5733 28.92 62.28C28.92 64.7333 28.6267 66.9733 28.04 69C27.4533 70.9733 26.44 72.5467 25 73.72C23.56 74.8933 21.56 75.48 19 75.48C15.5867 75.48 13.0533 74.4667 11.4 72.44C9.8 70.36 9 66.9467 9 62.2C9 60.2267 9.05333 57.9333 9.16 55.32C9.32 52.6533 9.50667 49.9067 9.72 47.08C9.98667 44.2533 10.28 41.5067 10.6 38.84C10.92 36.1733 11.24 33.8533 11.56 31.88C12.3067 27.4 13.6133 24.2267 15.48 22.36C17.4 20.44 19.8267 19.48 22.76 19.48C24.68 19.48 26.5467 20.0133 28.36 21.08C30.1733 22.0933 31.8267 24.0133 33.32 26.84C34.8667 29.6133 36.0933 33.6133 37 38.84H37.32C38.1733 33.4 39.2667 29.16 40.6 26.12C41.9867 23.08 43.5333 20.9733 45.24 19.8C46.9467 18.5733 48.7867 17.96 50.76 17.96C53.8533 17.96 56.3067 18.9733 58.12 21C59.9333 22.9733 61.2667 25.7733 62.12 29.4C62.8133 32.3333 63.4 35.72 63.88 39.56C64.4133 43.4 64.8133 47.3467 65.08 51.4C65.3467 55.4 65.48 59.16 65.48 62.68C65.48 68.1733 64.4667 72.04 62.44 74.28C60.4133 76.52 57.6933 77.64 54.28 77.64ZM98.5088 19.72C103.255 19.72 106.562 20.44 108.429 21.88C110.349 23.32 111.309 25.4 111.309 28.12C111.309 31.2133 110.189 33.5333 107.949 35.08C105.709 36.5733 102.242 37.32 97.5488 37.32C95.8954 37.32 94.0288 37.2933 91.9488 37.24C89.8688 37.1333 87.6821 36.9733 85.3888 36.76L85.7888 36.12C86.3221 37.2933 86.5888 38.6 86.5888 40.04C86.5888 41.48 86.3754 42.84 85.9488 44.12L84.6688 44.36C86.0021 43.88 87.6021 43.4533 89.4688 43.08C91.3354 42.7067 93.2554 42.4133 95.2288 42.2C97.2554 41.9867 99.0954 41.88 100.749 41.88C104.535 41.88 107.175 42.44 108.669 43.56C110.162 44.6267 110.909 45.9333 110.909 47.48C110.909 49.1867 109.922 50.6533 107.949 51.88C105.975 53.1067 102.589 53.72 97.7888 53.72C95.8154 53.72 93.6821 53.6667 91.3888 53.56C89.0954 53.4 86.7754 53.1867 84.4288 52.92L85.7088 52.76C86.1888 53.6667 86.4821 54.7333 86.5888 55.96C86.7488 57.1333 86.7221 58.3067 86.5088 59.48C86.2954 60.6533 85.8954 61.72 85.3088 62.68V61.88C86.6954 61.4533 88.2688 61.1067 90.0288 60.84C91.7888 60.52 93.6021 60.28 95.4688 60.12C97.3354 59.96 99.0688 59.88 100.669 59.88C104.455 59.88 107.282 60.3867 109.149 61.4C111.015 62.4133 111.949 64.0933 111.949 66.44C111.949 68.7333 111.202 70.7067 109.709 72.36C108.269 74.0133 106.349 75.2933 103.949 76.2C101.602 77.0533 99.0154 77.48 96.1888 77.48C89.9488 77.48 84.9088 76.7067 81.0688 75.16C77.2821 73.56 74.4554 71.24 72.5888 68.2C71.8421 66.92 71.1488 65.4533 70.5088 63.8C69.9221 62.1467 69.4688 60.2267 69.1488 58.04C68.8288 55.8 68.6688 53.24 68.6688 50.36C68.6688 45.8267 69.1488 41.7733 70.1087 38.2C71.0688 34.6267 72.3754 31.6933 74.0288 29.4C76.5354 25.9867 79.8688 23.5333 84.0288 22.04C88.1888 20.4933 93.0154 19.72 98.5088 19.72ZM163.261 79.24C161.341 79.24 159.661 78.8667 158.221 78.12C156.781 77.4267 155.661 76.1733 154.861 74.36C154.061 72.5467 153.661 70.0133 153.661 66.76C153.661 64.68 153.741 62.4667 153.901 60.12C154.061 57.7733 154.275 55.4 154.541 53C154.808 50.6 155.101 48.28 155.421 46.04H155.101C153.608 52.12 151.955 56.4667 150.141 59.08C148.328 61.6933 146.301 63 144.061 63C142.675 63 141.421 62.52 140.301 61.56C139.181 60.6 138.115 58.84 137.101 56.28C136.088 53.6667 134.995 49.9333 133.821 45.08H133.501C133.661 46.5733 133.795 48.1733 133.901 49.88C134.061 51.5333 134.195 53.2133 134.301 54.92C134.408 56.6267 134.488 58.2533 134.541 59.8C134.648 61.3467 134.701 62.7067 134.701 63.88C134.701 66.3333 134.435 68.5733 133.901 70.6C133.368 72.5733 132.435 74.1467 131.101 75.32C129.768 76.4933 127.928 77.08 125.581 77.08C121.901 77.08 119.181 75.3733 117.421 71.96C115.661 68.5467 114.781 62.8933 114.781 55C114.781 47.8 115.395 41.6933 116.621 36.68C117.848 31.6133 119.608 27.7467 121.901 25.08C124.248 22.4133 126.995 21.08 130.141 21.08C131.581 21.08 133.021 21.4 134.461 22.04C135.955 22.6267 137.341 23.7733 138.621 25.48C139.955 27.1867 141.128 29.64 142.141 32.84C143.155 35.9867 143.901 40.12 144.381 45.24H144.701C145.181 39.96 145.901 35.64 146.861 32.28C147.821 28.92 148.941 26.3333 150.221 24.52C151.501 22.6533 152.888 21.3733 154.381 20.68C155.875 19.9333 157.395 19.56 158.941 19.56C161.768 19.56 164.115 20.28 165.981 21.72C167.901 23.16 169.421 25.16 170.541 27.72C171.661 30.2267 172.488 33.1333 173.021 36.44C173.608 39.6933 173.981 43.16 174.141 46.84C174.355 50.4667 174.461 54.1467 174.461 57.88C174.461 63.1067 173.981 67.2933 173.021 70.44C172.115 73.5333 170.835 75.7733 169.181 77.16C167.528 78.5467 165.555 79.24 163.261 79.24ZM206.293 76.44C200.48 76.44 195.413 75.4 191.093 73.32C186.826 71.24 183.52 68.28 181.173 64.44C178.826 60.5467 177.653 55.96 177.653 50.68C177.653 44.8133 178.826 39.6667 181.173 35.24C183.573 30.8133 186.933 27.3733 191.253 24.92C195.626 22.4133 200.72 21.16 206.533 21.16C212.72 21.16 218.08 22.36 222.613 24.76C227.146 27.16 230.666 30.52 233.173 34.84C235.68 39.1067 236.933 44.0933 236.933 49.8C236.933 55.2933 235.68 60.04 233.173 64.04C230.666 67.9867 227.12 71.0533 222.533 73.24C217.946 75.3733 212.533 76.44 206.293 76.44ZM207.573 54.52C209.546 54.52 211.253 54.1467 212.693 53.4C214.133 52.6533 215.253 51.6667 216.053 50.44C216.853 49.16 217.253 47.72 217.253 46.12C217.253 44.52 216.853 43.1067 216.053 41.88C215.253 40.6 214.133 39.5867 212.693 38.84C211.253 38.0933 209.546 37.72 207.573 37.72C205.653 37.72 203.946 38.0933 202.453 38.84C201.013 39.5867 199.893 40.6 199.093 41.88C198.293 43.1067 197.893 44.52 197.893 46.12C197.893 47.72 198.293 49.16 199.093 50.44C199.893 51.6667 201.013 52.6533 202.453 53.4C203.946 54.1467 205.653 54.52 207.573 54.52ZM252.652 79.16C249.399 79.16 246.865 78.3333 245.052 76.68C243.239 74.9733 241.959 72.2267 241.212 68.44C240.519 64.6533 240.172 59.5867 240.172 53.24C240.172 47.5333 240.732 42.6533 241.852 38.6C242.972 34.5467 244.412 31.24 246.172 28.68C248.679 25.0533 251.879 22.4933 255.772 21C259.665 19.4533 263.879 18.68 268.412 18.68C275.559 18.68 280.839 20.2267 284.252 23.32C287.665 26.4133 289.372 30.4933 289.372 35.56C289.372 38.92 288.599 41.8 287.052 44.2C285.559 46.5467 283.505 48.36 280.892 49.64C278.279 50.8667 275.265 51.5333 271.852 51.64V51.96C278.679 53.9333 283.505 56.2267 286.332 58.84C289.159 61.4 290.572 64.1733 290.572 67.16C290.572 69.56 289.825 71.48 288.332 72.92C286.839 74.3067 284.812 75 282.252 75C279.319 75 276.652 74.36 274.252 73.08C271.905 71.7467 269.639 69.48 267.452 66.28C265.265 63.0267 262.892 58.5467 260.332 52.84H260.012C260.385 54.0133 260.732 55.48 261.052 57.24C261.372 58.9467 261.639 60.7333 261.852 62.6C262.065 64.4133 262.172 66.0933 262.172 67.64C262.172 71.3733 261.452 74.2267 260.012 76.2C258.625 78.1733 256.172 79.16 252.652 79.16ZM267.532 43.48C269.452 43.48 271.132 43.16 272.572 42.52C274.012 41.88 275.132 40.9733 275.932 39.8C276.785 38.6267 277.212 37.24 277.212 35.64C277.212 33.6133 276.545 31.9067 275.212 30.52C273.879 29.1333 271.772 28.44 268.892 28.44C266.759 28.44 264.892 28.84 263.292 29.64C261.745 30.3867 260.545 31.4 259.692 32.68C258.839 33.9067 258.412 35.2667 258.412 36.76C258.412 38.7333 259.212 40.36 260.812 41.64C262.465 42.8667 264.705 43.48 267.532 43.48ZM315.671 76.92C312.577 76.92 310.071 76.0667 308.151 74.36C306.231 72.6533 305.271 69.5867 305.271 65.16C305.271 62.4933 305.591 59.8267 306.231 57.16C306.924 54.4933 307.777 52.0133 308.791 49.72C309.857 47.3733 310.977 45.48 312.151 44.04L312.631 46.28C309.217 45.6933 306.257 44.92 303.751 43.96C301.244 43 299.164 41.8533 297.511 40.52C295.911 39.1867 294.711 37.72 293.911 36.12C293.164 34.52 292.791 32.8133 292.791 31C292.791 28.3333 293.351 26.04 294.471 24.12C295.644 22.2 297.164 20.7067 299.031 19.64C300.897 18.5733 302.924 18.04 305.111 18.04C307.671 18.04 309.857 18.7067 311.671 20.04C313.537 21.32 315.031 23.1333 316.151 25.48C317.324 27.7733 318.124 30.4133 318.551 33.4H318.871C319.617 30.9467 320.551 28.8667 321.671 27.16C322.791 25.4 324.017 23.96 325.351 22.84C326.737 21.72 328.177 20.8933 329.671 20.36C331.217 19.8267 332.737 19.56 334.231 19.56C337.644 19.56 340.284 20.7067 342.151 23C344.071 25.24 345.031 28.0667 345.031 31.48C345.031 33.56 344.471 35.4533 343.351 37.16C342.284 38.8667 340.711 40.3867 338.631 41.72C336.604 43 334.097 44.04 331.111 44.84C328.177 45.64 324.817 46.1467 321.031 46.36L321.751 44.84C322.977 46.6533 324.097 48.7067 325.111 51C326.124 53.2933 326.924 55.6133 327.511 57.96C328.097 60.2533 328.391 62.4133 328.391 64.44C328.391 68.4933 327.217 71.5867 324.871 73.72C322.524 75.8533 319.457 76.92 315.671 76.92Z" fill="white"/>
<path d="M49.24 76.6L46.9384 81.0388L47.0042 81.0729L47.0709 81.105L49.24 76.6ZM45.32 56.04L50.2762 56.7008L50.2775 56.6902L45.32 56.04ZM46.92 46.12L42.0232 45.1095L42.0155 45.1469L42.0083 45.1844L46.92 46.12ZM48.84 36.44L53.7524 37.3717L54.8774 31.44H48.84V36.44ZM48.52 36.44V31.44H44.5721L43.6564 35.2802L48.52 36.44ZM32.6 54.2L29.2366 57.8997L29.2775 57.9368L29.3191 57.973L32.6 54.2ZM25.64 35.48L30.522 34.4003L29.655 30.48H25.64V35.48ZM25.32 35.48V30.48H19.369L20.3948 36.3419L25.32 35.48ZM26.44 42.28L21.4994 43.0485L21.5077 43.1019L21.5172 43.1552L26.44 42.28ZM27.64 49.56L22.6969 50.3122L22.6981 50.3204L22.6994 50.3285L27.64 49.56ZM28.52 56.44L23.5436 56.9255L23.5495 56.9855L23.5568 57.0453L28.52 56.44ZM28.04 69L32.8327 70.4249L32.8378 70.4076L32.8428 70.3903L28.04 69ZM11.4 72.44L7.43688 75.4886L7.48048 75.5452L7.52568 75.6006L11.4 72.44ZM9.16 55.32L4.16898 55.0205L4.16611 55.0683L4.16416 55.1161L9.16 55.32ZM9.72 47.08L4.7421 46.6104L4.7377 46.657L4.73418 46.7037L9.72 47.08ZM10.6 38.84L5.63562 38.2443L10.6 38.84ZM11.56 31.88L6.62803 31.058L6.62623 31.0688L6.62447 31.0796L11.56 31.88ZM15.48 22.36L11.9445 18.8245L15.48 22.36ZM28.36 21.08L25.8249 25.3897L25.8726 25.4177L25.9209 25.4447L28.36 21.08ZM33.32 26.84L28.899 29.1756L28.9255 29.2258L28.9532 29.2753L33.32 26.84ZM37 38.84L32.0736 39.6946L32.7927 43.84H37V38.84ZM37.32 38.84V43.84H41.5968L42.2596 39.6148L37.32 38.84ZM40.6 26.12L36.0509 24.045L36.0357 24.0782L36.0211 24.1117L40.6 26.12ZM45.24 19.8L48.0726 23.9202L48.1157 23.8906L48.1582 23.8601L45.24 19.8ZM58.12 21L54.3938 24.334L54.4159 24.3587L54.4384 24.3831L58.12 21ZM62.12 29.4L57.2529 30.5452L57.2541 30.5501L62.12 29.4ZM63.88 39.56L58.9186 40.1802L58.9228 40.214L58.9275 40.2478L63.88 39.56ZM65.08 51.4L60.0908 51.7282L60.0911 51.7326L65.08 51.4ZM62.44 74.28L66.1477 77.6346L62.44 74.28ZM54.28 77.64V72.64C52.9618 72.64 52.0497 72.4035 51.4091 72.095L49.24 76.6L47.0709 81.105C49.3103 82.1832 51.7582 82.64 54.28 82.64V77.64ZM49.24 76.6L51.5416 72.1612C51.3223 72.0475 50.9 71.7514 50.4546 70.7418L45.88 72.76L41.3054 74.7782C42.46 77.3953 44.2777 79.6591 46.9384 81.0388L49.24 76.6ZM45.88 72.76L50.4546 70.7418C50.0586 69.8443 49.68 68.1089 49.68 65.16H44.68H39.68C39.68 68.7178 40.1014 72.049 41.3054 74.7782L45.88 72.76ZM44.68 65.16H49.68C49.68 62.5256 49.8752 59.7075 50.2761 56.7008L45.32 56.04L40.3639 55.3792C39.9114 58.7725 39.68 62.0344 39.68 65.16H44.68ZM45.32 56.04L50.2775 56.6902C50.6912 53.5363 51.209 50.3249 51.8317 47.0556L46.92 46.12L42.0083 45.1844C41.351 48.6351 40.8022 52.037 40.3625 55.3898L45.32 56.04ZM46.92 46.12L51.8168 47.1305C52.5151 43.7465 53.1604 40.4935 53.7524 37.3717L48.84 36.44L43.9276 35.5083C43.3463 38.5732 42.7116 41.7735 42.0232 45.1095L46.92 46.12ZM48.84 36.44V31.44H48.52V36.44V41.44H48.84V36.44ZM48.52 36.44L43.6564 35.2802C42.0295 42.1027 40.3961 46.3732 38.9541 48.6162L43.16 51.32L47.3659 54.0238C49.7639 50.2935 51.7039 44.6439 53.3836 37.5998L48.52 36.44ZM43.16 51.32L38.9541 48.6162C38.2327 49.7384 37.6392 50.3027 37.2566 50.5672C36.9299 50.7931 36.7683 50.8 36.68 50.8V55.8V60.8C41.5018 60.8 44.9986 57.7062 47.3659 54.0238L43.16 51.32ZM36.68 55.8V50.8C36.5029 50.8 36.2846 50.778 35.8809 50.427L32.6 54.2L29.3191 57.973C31.3687 59.7553 33.8704 60.8 36.68 60.8V55.8ZM32.6 54.2L35.9634 50.5003C35.7016 50.2623 34.894 49.2003 33.8311 46.4165L29.16 48.2L24.4889 49.9835C25.666 53.0664 27.1517 56.0043 29.2366 57.8997L32.6 54.2ZM29.16 48.2L33.8311 46.4165C32.8419 43.8257 31.7308 39.866 30.522 34.4003L25.64 35.48L20.758 36.5597C22.0026 42.1874 23.2381 46.7076 24.4889 49.9835L29.16 48.2ZM25.64 35.48V30.48H25.32V35.48V40.48H25.64V35.48ZM25.32 35.48L20.3948 36.3419C20.7621 38.4407 21.1304 40.676 21.4994 43.0485L26.44 42.28L31.3806 41.5115C31.003 39.084 30.6245 36.786 30.2452 34.6181L25.32 35.48ZM26.44 42.28L21.5172 43.1552C21.9365 45.5135 22.3297 47.8992 22.6969 50.3122L27.64 49.56L32.5831 48.8078C32.2036 46.3141 31.7969 43.8465 31.3628 41.4048L26.44 42.28ZM27.64 49.56L22.6994 50.3285C23.0596 52.6442 23.3404 54.8428 23.5436 56.9255L28.52 56.44L33.4964 55.9545C33.2729 53.6639 32.967 51.2758 32.5806 48.7915L27.64 49.56ZM28.52 56.44L23.5568 57.0453C23.8056 59.0855 23.92 60.8239 23.92 62.28H28.92H33.92C33.92 60.3228 33.7678 58.1679 33.4832 55.8347L28.52 56.44ZM28.92 62.28H23.92C23.92 64.3375 23.6738 66.1013 23.2372 67.6097L28.04 69L32.8428 70.3903C33.5795 67.8453 33.92 65.1292 33.92 62.28H28.92ZM28.04 69L23.2473 67.5751C22.9146 68.6944 22.4196 69.3729 21.8416 69.8438L25 73.72L28.1584 77.5962C30.4604 75.7204 31.9921 73.2523 32.8327 70.4249L28.04 69ZM25 73.72L21.8416 69.8438C21.579 70.0578 20.8408 70.48 19 70.48V75.48V80.48C22.2792 80.48 25.541 79.7289 28.1584 77.5962L25 73.72ZM19 75.48V70.48C16.5955 70.48 15.7049 69.8072 15.2743 69.2794L11.4 72.44L7.52568 75.6006C10.4017 79.1261 14.5778 80.48 19 80.48V75.48ZM11.4 72.44L15.3631 69.3914C14.7938 68.6514 14 66.6289 14 62.2H9H4C4 67.2644 4.80616 72.0686 7.43688 75.4886L11.4 72.44ZM9 62.2H14C14 60.3124 14.0511 58.0897 14.1558 55.5239L9.16 55.32L4.16416 55.1161C4.05555 57.777 4 60.141 4 62.2H9ZM9.16 55.32L14.151 55.6195C14.3094 52.9799 14.4943 50.2589 14.7058 47.4563L9.72 47.08L4.73418 46.7037C4.51903 49.5544 4.3306 52.3268 4.16898 55.0205L9.16 55.32ZM9.72 47.08L14.6979 47.5496C14.9608 44.7627 15.2497 42.0581 15.5644 39.4357L10.6 38.84L5.63562 38.2443C5.3103 40.9552 5.01252 43.744 4.7421 46.6104L9.72 47.08ZM10.6 38.84L15.5644 39.4357C15.8788 36.8159 16.1896 34.5672 16.4955 32.6804L11.56 31.88L6.62447 31.0796C6.29045 33.1395 5.96124 35.5307 5.63562 38.2443L10.6 38.84ZM11.56 31.88L16.492 32.702C17.1775 28.5888 18.249 26.662 19.0155 25.8955L15.48 22.36L11.9445 18.8245C8.97763 21.7913 7.43583 26.2112 6.62803 31.058L11.56 31.88ZM15.48 22.36L19.0155 25.8955C19.9179 24.9932 21.0352 24.48 22.76 24.48V19.48V14.48C18.6182 14.48 14.8821 15.8868 11.9445 18.8245L15.48 22.36ZM22.76 19.48V24.48C23.7046 24.48 24.7042 24.7304 25.8249 25.3897L28.36 21.08L30.8951 16.7703C28.3891 15.2962 25.6554 14.48 22.76 14.48V19.48ZM28.36 21.08L25.9209 25.4447C26.5516 25.7972 27.6315 26.7764 28.899 29.1756L33.32 26.84L37.741 24.5044C36.0218 21.2503 33.7951 18.3895 30.7991 16.7153L28.36 21.08ZM33.32 26.84L28.9532 29.2753C30.1027 31.3366 31.2076 34.7026 32.0736 39.6946L37 38.84L41.9264 37.9854C40.9791 32.5241 39.6306 27.89 37.6868 24.4047L33.32 26.84ZM37 38.84V43.84H37.32V38.84V33.84H37V38.84ZM37.32 38.84L42.2596 39.6148C43.0838 34.3603 44.0943 30.6013 45.1789 28.1283L40.6 26.12L36.0211 24.1117C34.439 27.7187 33.2628 32.4397 32.3804 38.0652L37.32 38.84ZM40.6 26.12L45.1491 28.195C46.3677 25.5235 47.4395 24.3555 48.0726 23.9202L45.24 19.8L42.4074 15.6798C39.6272 17.5911 37.6056 20.6365 36.0509 24.045L40.6 26.12ZM45.24 19.8L48.1582 23.8601C49.0732 23.2024 49.9038 22.96 50.76 22.96V17.96V12.96C47.6695 12.96 44.8202 13.9442 42.3218 15.7399L45.24 19.8ZM50.76 17.96V22.96C52.6475 22.96 53.6645 23.5188 54.3938 24.334L58.12 21L61.8462 17.666C58.9489 14.4278 55.0592 12.96 50.76 12.96V17.96ZM58.12 21L54.4384 24.3831C55.4882 25.5256 56.5232 27.4441 57.2529 30.5452L62.12 29.4L66.9871 28.2548C66.0101 24.1026 64.3785 20.4211 61.8016 17.6169L58.12 21ZM62.12 29.4L57.2541 30.5501C57.8964 33.2678 58.455 36.4712 58.9186 40.1802L63.88 39.56L68.8414 38.9398C68.345 34.9688 67.7302 31.3989 66.9859 28.2499L62.12 29.4ZM63.88 39.56L58.9275 40.2478C59.4435 43.9629 59.8317 47.7895 60.0908 51.7282L65.08 51.4L70.0692 51.0718C69.795 46.9038 69.3831 42.8371 68.8325 38.8722L63.88 39.56ZM65.08 51.4L60.0911 51.7326C60.3514 55.6367 60.48 59.2849 60.48 62.68H65.48H70.48C70.48 59.0351 70.342 55.1633 70.0689 51.0674L65.08 51.4ZM65.48 62.68H60.48C60.48 67.8429 59.4715 70.1085 58.7323 70.9254L62.44 74.28L66.1477 77.6346C69.4619 73.9715 70.48 68.5038 70.48 62.68H65.48ZM62.44 74.28L58.7323 70.9254C57.782 71.9758 56.4839 72.64 54.28 72.64V77.64V82.64C58.9027 82.64 63.0447 81.0642 66.1477 77.6346L62.44 74.28ZM108.429 21.88L105.375 25.8389L105.402 25.8596L105.429 25.88L108.429 21.88ZM107.949 35.08L110.722 39.2402L110.756 39.2176L110.79 39.1945L107.949 35.08ZM91.9488 37.24L91.6927 42.2334L91.7566 42.2367L91.8206 42.2384L91.9488 37.24ZM85.3887 36.76L81.1488 34.11L76.8504 40.9873L84.9256 41.7385L85.3887 36.76ZM85.7887 36.12L90.3406 34.051L86.4859 25.5706L81.5488 33.47L85.7887 36.12ZM85.9488 44.12L86.8702 49.0344L89.7618 48.4922L90.6922 45.7011L85.9488 44.12ZM84.6687 44.36L82.9752 39.6556L85.5902 49.2744L84.6687 44.36ZM95.2288 42.2L94.7053 37.2275L94.6913 37.229L95.2288 42.2ZM108.669 43.56L105.669 47.56L105.715 47.5949L105.763 47.6287L108.669 43.56ZM107.949 51.88L110.588 56.1264L107.949 51.88ZM91.3887 53.56L91.0408 58.5479L91.0986 58.5519L91.1564 58.5546L91.3887 53.56ZM84.4287 52.92L83.8086 47.9586L83.8642 57.888L84.4287 52.92ZM85.7087 52.76L90.1277 50.4206L88.513 47.3706L85.0886 47.7986L85.7087 52.76ZM86.5888 55.96L81.6075 56.3931L81.6181 56.5147L81.6346 56.6356L86.5888 55.96ZM86.5088 59.48L81.5894 58.5856V58.5856L86.5088 59.48ZM85.3088 62.68H80.3088V80.4505L89.5752 65.2872L85.3088 62.68ZM85.3088 61.88L83.8383 57.1011L80.3088 58.1871V61.88H85.3088ZM90.0287 60.84L90.7778 65.7836L90.8507 65.7725L90.9232 65.7593L90.0287 60.84ZM109.149 61.4L106.763 65.7943H106.763L109.149 61.4ZM109.709 72.36L105.998 69.0086L105.968 69.0421L105.938 69.0761L109.709 72.36ZM103.949 76.2L105.657 80.899L105.687 80.8883L105.716 80.8774L103.949 76.2ZM81.0687 75.16L79.1227 79.7657L79.1615 79.7822L79.2007 79.7979L81.0687 75.16ZM72.5888 68.2L68.2699 70.7194L68.2983 70.7682L68.3279 70.8163L72.5888 68.2ZM70.5088 63.8L65.7966 65.472L65.8203 65.5389L65.8459 65.605L70.5088 63.8ZM69.1488 58.04L64.199 58.7471L64.2002 58.7556L64.2014 58.764L69.1488 58.04ZM70.1087 38.2L74.9375 39.4973L70.1087 38.2ZM74.0287 29.4L69.9987 26.4405L69.9857 26.4582L69.9729 26.476L74.0287 29.4ZM84.0287 22.04L85.7181 26.746L85.7447 26.7364L85.7712 26.7266L84.0287 22.04ZM98.5088 19.72V24.72C103.087 24.72 104.912 25.4818 105.375 25.8389L108.429 21.88L111.483 17.9211C108.212 15.3982 103.424 14.72 98.5088 14.72V19.72ZM108.429 21.88L105.429 25.88C105.909 26.2404 106.309 26.7337 106.309 28.12H111.309H116.309C116.309 24.0663 114.788 20.3996 111.429 17.88L108.429 21.88ZM111.309 28.12H106.309C106.309 29.8305 105.795 30.491 105.108 30.9655L107.949 35.08L110.79 39.1945C114.582 36.5757 116.309 32.5961 116.309 28.12H111.309ZM107.949 35.08L105.175 30.9197C104.166 31.5923 101.902 32.32 97.5488 32.32V37.32V42.32C102.583 42.32 107.251 41.5543 110.722 39.2402L107.949 35.08ZM97.5488 37.32V32.32C95.9474 32.32 94.1245 32.2941 92.0769 32.2416L91.9488 37.24L91.8206 42.2384C93.933 42.2925 95.8435 42.32 97.5488 42.32V37.32ZM91.9488 37.24L92.2048 32.2466C90.2007 32.1438 88.0834 31.9891 85.8519 31.7815L85.3887 36.76L84.9256 41.7385C87.2808 41.9576 89.5368 42.1229 91.6927 42.2334L91.9488 37.24ZM85.3887 36.76L89.6287 39.41L90.0287 38.77L85.7887 36.12L81.5488 33.47L81.1488 34.11L85.3887 36.76ZM85.7887 36.12L81.2369 38.189C81.442 38.6401 81.5888 39.2297 81.5888 40.04H86.5888H91.5888C91.5888 37.9703 91.2022 35.9465 90.3406 34.051L85.7887 36.12ZM86.5888 40.04H81.5888C81.5888 40.9788 81.451 41.802 81.2053 42.5389L85.9488 44.12L90.6922 45.7011C91.2999 43.878 91.5888 41.9812 91.5888 40.04H86.5888ZM85.9488 44.12L85.0273 39.2056L83.7473 39.4456L84.6687 44.36L85.5902 49.2744L86.8702 49.0344L85.9488 44.12ZM84.6687 44.36L86.3624 49.0644C87.3999 48.6909 88.7484 48.3231 90.4493 47.9829L89.4688 43.08L88.4882 38.1771C86.4557 38.5836 84.6043 39.0691 82.9752 39.6556L84.6687 44.36ZM89.4688 43.08L90.4493 47.9829C92.1633 47.6401 93.9352 47.369 95.7662 47.171L95.2288 42.2L94.6913 37.229C92.5756 37.4577 90.5075 37.7732 88.4882 38.1771L89.4688 43.08ZM95.2288 42.2L95.7522 47.1725C97.6432 46.9735 99.3049 46.88 100.749 46.88V41.88V36.88C98.886 36.88 96.8677 36.9999 94.7053 37.2275L95.2288 42.2ZM100.749 41.88V46.88C102.421 46.88 103.658 47.0059 104.531 47.1912C105.433 47.3824 105.703 47.5858 105.669 47.56L108.669 43.56L111.669 39.56C108.785 37.3969 104.693 36.88 100.749 36.88V41.88ZM108.669 43.56L105.763 47.6287C106.048 47.8326 106.062 47.916 106.008 47.8207C105.981 47.7738 105.952 47.7078 105.932 47.6308C105.912 47.5545 105.909 47.4996 105.909 47.48H110.909H115.909C115.909 44.0038 114.103 41.2973 111.575 39.4913L108.669 43.56ZM110.909 47.48H105.909C105.909 47.4171 105.919 47.3275 105.949 47.2305C105.979 47.1349 106.013 47.0795 106.02 47.0691C106.025 47.0625 105.876 47.2814 105.309 47.6336L107.949 51.88L110.588 56.1264C113.438 54.3548 115.909 51.5121 115.909 47.48H110.909ZM107.949 51.88L105.309 47.6336C104.609 48.0689 102.459 48.72 97.7887 48.72V53.72V58.72C102.718 58.72 107.342 58.1444 110.588 56.1264L107.949 51.88ZM97.7887 53.72V48.72C95.9042 48.72 93.8491 48.669 91.6211 48.5654L91.3887 53.56L91.1564 58.5546C93.515 58.6643 95.7267 58.72 97.7887 58.72V53.72ZM91.3887 53.56L91.7367 48.5721C89.5177 48.4173 87.2699 48.2107 84.9933 47.952L84.4287 52.92L83.8642 57.888C86.2809 58.1627 88.6732 58.3827 91.0408 58.5479L91.3887 53.56ZM84.4287 52.92L85.0489 57.8814L86.3289 57.7214L85.7087 52.76L85.0886 47.7986L83.8086 47.9586L84.4287 52.92ZM85.7087 52.76L81.2898 55.0994C81.4007 55.3088 81.5475 55.7024 81.6075 56.3931L86.5888 55.96L91.57 55.5269C91.4167 53.7643 90.9768 52.0245 90.1277 50.4206L85.7087 52.76ZM86.5888 55.96L81.6346 56.6356C81.7229 57.2833 81.7092 57.9267 81.5894 58.5856L86.5088 59.48L91.4281 60.3744C91.735 58.6866 91.7746 56.9834 91.5429 55.2844L86.5888 55.96ZM86.5088 59.48L81.5894 58.5856C81.4796 59.1894 81.2887 59.6695 81.0423 60.0728L85.3088 62.68L89.5752 65.2872C90.5021 63.7705 91.1112 62.1173 91.4281 60.3744L86.5088 59.48ZM85.3088 62.68H90.3088V61.88H85.3088H80.3088V62.68H85.3088ZM85.3088 61.88L86.7792 66.6589C87.8839 66.319 89.2095 66.0212 90.7778 65.7836L90.0287 60.84L89.2797 55.8964C87.328 56.1921 85.5069 56.5877 83.8383 57.1011L85.3088 61.88ZM90.0287 60.84L90.9232 65.7593C92.5214 65.4688 94.1785 65.2489 95.8958 65.1017L95.4688 60.12L95.0417 55.1383C93.0257 55.3111 91.0561 55.5712 89.1343 55.9207L90.0287 60.84ZM95.4688 60.12L95.8958 65.1017C97.6437 64.9519 99.2329 64.88 100.669 64.88V59.88V54.88C98.9046 54.88 97.0271 54.9681 95.0417 55.1383L95.4688 60.12ZM100.669 59.88V64.88C104.181 64.88 105.999 65.3794 106.763 65.7943L109.149 61.4L111.534 57.0057C108.565 55.3939 104.73 54.88 100.669 54.88V59.88ZM109.149 61.4L106.763 65.7943C106.819 65.8243 106.855 65.8485 106.877 65.8642C106.898 65.8798 106.907 65.8883 106.908 65.8885C106.908 65.8885 106.903 65.8836 106.895 65.874C106.888 65.8644 106.882 65.8551 106.878 65.8482C106.85 65.7979 106.949 65.93 106.949 66.44H111.949H116.949C116.949 64.6033 116.581 62.7221 115.62 60.9918C114.644 59.2351 113.212 57.9164 111.534 57.0057L109.149 61.4ZM111.949 66.44H106.949C106.949 67.5351 106.635 68.3035 105.998 69.0086L109.709 72.36L113.419 75.7114C115.769 73.1099 116.949 69.9315 116.949 66.44H111.949ZM109.709 72.36L105.938 69.0761C105.126 70.0084 103.941 70.8581 102.182 71.5226L103.949 76.2L105.716 80.8774C108.757 79.7286 111.411 78.0183 113.479 75.6439L109.709 72.36ZM103.949 76.2L102.24 71.501C100.508 72.1308 98.5088 72.48 96.1888 72.48V77.48V82.48C99.522 82.48 102.696 81.9759 105.657 80.899L103.949 76.2ZM96.1888 77.48V72.48C90.2958 72.48 85.9612 71.7402 82.9368 70.5221L81.0687 75.16L79.2007 79.7979C83.8563 81.6731 89.6017 82.48 96.1888 82.48V77.48ZM81.0687 75.16L83.0148 70.5543C80.0368 69.296 78.0908 67.605 76.8496 65.5837L72.5888 68.2L68.3279 70.8163C70.8201 74.875 74.5274 77.8241 79.1227 79.7657L81.0687 75.16ZM72.5888 68.2L76.9076 65.6806C76.3172 64.6685 75.734 63.4478 75.1716 61.995L70.5088 63.8L65.8459 65.605C66.5635 67.4588 67.3669 69.1715 68.2699 70.7194L72.5888 68.2ZM70.5088 63.8L75.2209 62.1279C74.7672 60.8493 74.3804 59.2588 74.0961 57.316L69.1488 58.04L64.2014 58.764C64.5571 61.1945 65.077 63.444 65.7966 65.472L70.5088 63.8ZM69.1488 58.04L74.0985 57.3329C73.8195 55.3802 73.6687 53.0638 73.6687 50.36H68.6688H63.6688C63.6688 53.4162 63.838 56.2198 64.199 58.7471L69.1488 58.04ZM68.6688 50.36H73.6687C73.6687 46.1704 74.1133 42.5652 74.9375 39.4973L70.1087 38.2L65.28 36.9027C64.1842 40.9815 63.6688 45.483 63.6688 50.36H68.6688ZM70.1087 38.2L74.9375 39.4973C75.7864 36.3376 76.8758 34.0008 78.0846 32.324L74.0287 29.4L69.9729 26.476C67.875 29.3859 66.3511 32.9158 65.28 36.9027L70.1087 38.2ZM74.0287 29.4L78.0588 32.3595C79.9497 29.7846 82.4514 27.9186 85.7181 26.746L84.0287 22.04L82.3394 17.334C77.2861 19.1481 73.1211 22.1887 69.9987 26.4405L74.0287 29.4ZM84.0287 22.04L85.7712 26.7266C89.2588 25.4299 93.474 24.72 98.5088 24.72V19.72V14.72C92.5569 14.72 87.1187 15.5568 82.2863 17.3534L84.0287 22.04ZM158.221 78.12L160.523 73.6812L160.457 73.6471L160.39 73.615L158.221 78.12ZM154.861 74.36L150.287 76.3782L154.861 74.36ZM153.901 60.12L148.913 59.7799V59.7799L153.901 60.12ZM154.541 53L159.511 53.5522L154.541 53ZM155.421 46.04L160.371 46.7471L161.186 41.04H155.421V46.04ZM155.101 46.04V41.04H151.181L150.246 44.8474L155.101 46.04ZM150.141 59.08L146.033 56.2296V56.2296L150.141 59.08ZM140.301 61.56L137.047 65.3563H137.047L140.301 61.56ZM137.101 56.28L132.439 58.0876L132.446 58.104L132.452 58.1202L137.101 56.28ZM133.821 45.08L138.681 43.9051L137.757 40.08H133.821V45.08ZM133.501 45.08V40.08H127.937L128.53 45.6127L133.501 45.08ZM133.901 49.88L128.911 50.1919L128.916 50.2769L128.924 50.3616L133.901 49.88ZM134.541 59.8L129.544 59.9723L129.547 60.0582L129.553 60.144L134.541 59.8ZM133.901 70.6L138.728 71.9045L138.732 71.8885L138.737 71.8725L133.901 70.6ZM131.101 75.32L134.404 79.0736L131.101 75.32ZM117.421 71.96L112.977 74.2514L117.421 71.96ZM116.621 36.68L121.478 37.8684L121.481 37.8565L116.621 36.68ZM121.901 25.08L118.148 21.7769L118.129 21.7982L118.11 21.8198L121.901 25.08ZM134.461 22.04L132.431 26.6091L132.531 26.6536L132.633 26.6938L134.461 22.04ZM138.621 25.48L134.621 28.48L134.651 28.5194L134.681 28.5582L138.621 25.48ZM142.141 32.84L137.375 34.3495L137.378 34.3611L137.382 34.3727L142.141 32.84ZM144.381 45.24L139.403 45.7067L139.828 50.24H144.381V45.24ZM144.701 45.24V50.24H149.267L149.681 45.6927L144.701 45.24ZM146.861 32.28L151.669 33.6536V33.6536L146.861 32.28ZM150.221 24.52L154.306 27.4034L154.326 27.3757L154.345 27.3476L150.221 24.52ZM154.381 20.68L156.487 25.215L156.553 25.1845L156.617 25.1521L154.381 20.68ZM165.981 21.72L162.927 25.6789L162.954 25.6996L162.981 25.72L165.981 21.72ZM170.541 27.72L165.96 29.7241L165.968 29.7419L165.976 29.7597L170.541 27.72ZM173.021 36.44L168.085 37.2362L168.092 37.2818L168.101 37.3273L173.021 36.44ZM174.141 46.84L169.146 47.0572L169.148 47.0954L169.15 47.1336L174.141 46.84ZM173.021 70.44L168.239 68.981L168.231 69.0073L168.223 69.0337L173.021 70.44ZM169.181 77.16L165.968 73.329L169.181 77.16ZM163.261 79.24V74.24C161.996 74.24 161.132 73.9971 160.523 73.6812L158.221 78.12L155.92 82.5588C158.19 83.7362 160.687 84.24 163.261 84.24V79.24ZM158.221 78.12L160.39 73.615C160.262 73.5531 159.875 73.3369 159.436 72.3418L154.861 74.36L150.287 76.3782C151.448 79.0098 153.301 81.3002 156.052 82.625L158.221 78.12ZM154.861 74.36L159.436 72.3418C159.04 71.4443 158.661 69.7089 158.661 66.76H153.661H148.661C148.661 70.3178 149.083 73.649 150.287 76.3782L154.861 74.36ZM153.661 66.76H158.661C158.661 64.807 158.736 62.7079 158.89 60.4601L153.901 60.12L148.913 59.7799C148.746 62.2254 148.661 64.553 148.661 66.76H153.661ZM153.901 60.12L158.89 60.4601C159.045 58.1861 159.252 55.8835 159.511 53.5522L154.541 53L149.572 52.4478C149.298 54.9165 149.078 57.3606 148.913 59.7799L153.901 60.12ZM154.541 53L159.511 53.5522C159.772 51.2005 160.059 48.9323 160.371 46.7471L155.421 46.04L150.472 45.3329C150.144 47.6277 149.844 49.9995 149.572 52.4478L154.541 53ZM155.421 46.04V41.04H155.101V46.04V51.04H155.421V46.04ZM155.101 46.04L150.246 44.8474C148.785 50.7948 147.303 54.3993 146.033 56.2296L150.141 59.08L154.249 61.9304C156.606 58.5341 158.431 53.4452 159.957 47.2326L155.101 46.04ZM150.141 59.08L146.033 56.2296C145.387 57.1612 144.87 57.6126 144.552 57.8177C144.282 57.9919 144.146 58 144.061 58V63V68C148.562 68 151.923 65.2827 154.249 61.9304L150.141 59.08ZM144.061 63V58C143.948 58 143.832 58.0007 143.555 57.7637L140.301 61.56L137.047 65.3563C139.011 67.0393 141.401 68 144.061 68V63ZM140.301 61.56L143.555 57.7637C143.383 57.6158 142.682 56.7924 141.75 54.4398L137.101 56.28L132.452 58.1202C133.548 60.8876 134.98 63.5842 137.047 65.3563L140.301 61.56ZM137.101 56.28L141.763 54.4724C140.868 52.1652 139.836 48.6816 138.681 43.9051L133.821 45.08L128.961 46.2549C130.153 51.1851 131.307 55.1681 132.439 58.0876L137.101 56.28ZM133.821 45.08V40.08H133.501V45.08V50.08H133.821V45.08ZM133.501 45.08L128.53 45.6127C128.681 47.0233 128.808 48.5491 128.911 50.1919L133.901 49.88L138.892 49.5681C138.781 47.7976 138.642 46.1233 138.473 44.5473L133.501 45.08ZM133.901 49.88L128.924 50.3616C129.079 51.9568 129.208 53.5802 129.311 55.2319L134.301 54.92L139.292 54.6081C139.181 52.8464 139.044 51.1098 138.878 49.3984L133.901 49.88ZM134.301 54.92L129.311 55.2319C129.415 56.8968 129.493 58.4767 129.544 59.9723L134.541 59.8L139.538 59.6277C139.483 58.0299 139.401 56.3565 139.292 54.6081L134.301 54.92ZM134.541 59.8L129.553 60.144C129.654 61.6101 129.701 62.851 129.701 63.88H134.701H139.701C139.701 62.5623 139.642 61.0832 139.529 59.456L134.541 59.8ZM134.701 63.88H129.701C129.701 65.9749 129.473 67.7797 129.066 69.3275L133.901 70.6L138.737 71.8725C139.396 69.367 139.701 66.6917 139.701 63.88H134.701ZM133.901 70.6L129.074 69.2955C128.758 70.4675 128.287 71.1358 127.798 71.5664L131.101 75.32L134.404 79.0736C136.582 77.1575 137.978 74.6792 138.728 71.9045L133.901 70.6ZM131.101 75.32L127.798 71.5664C127.637 71.7079 127.109 72.08 125.581 72.08V77.08V82.08C128.747 82.08 131.899 81.2787 134.404 79.0736L131.101 75.32ZM125.581 77.08V72.08C124.541 72.08 123.891 71.8486 123.439 71.5647C122.974 71.2732 122.415 70.7356 121.865 69.6686L117.421 71.96L112.977 74.2514C114.187 76.5977 115.868 78.6201 118.124 80.0353C120.391 81.458 122.942 82.08 125.581 82.08V77.08ZM117.421 71.96L121.865 69.6686C120.688 67.3852 119.781 62.7678 119.781 55H114.781H109.781C109.781 63.0188 110.635 69.7081 112.977 74.2514L117.421 71.96ZM114.781 55H119.781C119.781 48.0559 120.376 42.3737 121.478 37.8683L116.621 36.68L111.765 35.4916C110.414 41.0129 109.781 47.5441 109.781 55H114.781ZM116.621 36.68L121.481 37.8565C122.604 33.2175 124.104 30.1873 125.692 28.3402L121.901 25.08L118.11 21.8198C115.112 25.306 113.092 30.0092 111.762 35.5035L116.621 36.68ZM121.901 25.08L125.655 28.3831C127.188 26.6404 128.626 26.08 130.141 26.08V21.08V16.08C125.364 16.08 121.307 18.1863 118.148 21.7769L121.901 25.08ZM130.141 21.08V26.08C130.818 26.08 131.569 26.2261 132.431 26.6091L134.461 22.04L136.492 17.4709C134.474 16.5739 132.345 16.08 130.141 16.08V21.08ZM134.461 22.04L132.633 26.6938C133.023 26.8468 133.719 27.2772 134.621 28.48L138.621 25.48L142.621 22.48C140.963 20.2695 138.887 18.4065 136.29 17.3862L134.461 22.04ZM138.621 25.48L134.681 28.5582C135.503 29.6105 136.453 31.4397 137.375 34.3495L142.141 32.84L146.908 31.3305C145.803 27.8403 144.406 24.7628 142.561 22.4018L138.621 25.48ZM142.141 32.84L137.382 34.3727C138.24 37.0377 138.941 40.7728 139.403 45.7067L144.381 45.24L149.359 44.7733C148.862 39.4672 148.069 34.9357 146.901 31.3073L142.141 32.84ZM144.381 45.24V50.24H144.701V45.24V40.24H144.381V45.24ZM144.701 45.24L149.681 45.6927C150.145 40.5822 150.827 36.601 151.669 33.6536L146.861 32.28L142.054 30.9064C140.976 34.679 140.217 39.3378 139.722 44.7873L144.701 45.24ZM146.861 32.28L151.669 33.6536C152.553 30.5603 153.481 28.5719 154.306 27.4034L150.221 24.52L146.136 21.6366C144.401 24.0948 143.09 27.2796 142.054 30.9064L146.861 32.28ZM150.221 24.52L154.345 27.3476C155.3 25.9551 156.057 25.4147 156.487 25.215L154.381 20.68L152.276 16.145C149.719 17.3319 147.703 19.3516 146.098 21.6924L150.221 24.52ZM154.381 20.68L156.617 25.1521C157.473 24.7244 158.231 24.56 158.941 24.56V19.56V14.56C156.558 14.56 154.276 15.1422 152.145 16.2079L154.381 20.68ZM158.941 19.56V24.56C160.89 24.56 162.1 25.0405 162.927 25.6789L165.981 21.72L169.035 17.7611C166.129 15.5195 162.646 14.56 158.941 14.56V19.56ZM165.981 21.72L162.981 25.72C164.105 26.5627 165.129 27.8237 165.96 29.7241L170.541 27.72L175.122 25.7159C173.713 22.4963 171.698 19.7573 168.981 17.72L165.981 21.72ZM170.541 27.72L165.976 29.7597C166.885 31.7941 167.606 34.268 168.085 37.2362L173.021 36.44L177.957 35.6438C177.37 31.9986 176.437 28.6593 175.106 25.6803L170.541 27.72ZM173.021 36.44L168.101 37.3273C168.643 40.3358 168.995 43.577 169.146 47.0572L174.141 46.84L179.137 46.6228C178.968 42.743 178.573 39.0508 177.942 35.5527L173.021 36.44ZM174.141 46.84L169.15 47.1336C169.357 50.6599 169.461 54.2419 169.461 57.88H174.461H179.461C179.461 54.0514 179.352 50.2735 179.133 46.5464L174.141 46.84ZM174.461 57.88H169.461C169.461 62.8667 168.995 66.5009 168.239 68.981L173.021 70.44L177.804 71.899C178.967 68.0857 179.461 63.3466 179.461 57.88H174.461ZM173.021 70.44L168.223 69.0337C167.465 71.6195 166.578 72.8177 165.968 73.329L169.181 77.16L172.394 80.991C175.091 78.7289 176.764 75.4472 177.819 71.8464L173.021 70.44ZM169.181 77.16L165.968 73.329C165.274 73.9109 164.459 74.24 163.261 74.24V79.24V84.24C166.65 84.24 169.781 83.1825 172.394 80.991L169.181 77.16ZM191.093 73.32L188.902 77.8144L188.913 77.8197L188.924 77.825L191.093 73.32ZM181.173 64.44L176.891 67.0211L176.899 67.0342L176.907 67.0472L181.173 64.44ZM181.173 35.24L176.778 32.8569L176.766 32.8774L176.755 32.8981L181.173 35.24ZM191.253 24.92L193.722 29.2678L193.731 29.2629L193.74 29.258L191.253 24.92ZM222.613 24.76L224.953 20.3411L222.613 24.76ZM233.173 34.84L228.848 37.3494L228.855 37.3611L228.862 37.3727L233.173 34.84ZM233.173 64.04L237.394 66.7207L237.402 66.7079L237.41 66.6951L233.173 64.04ZM222.533 73.24L224.642 77.7736L224.663 77.7636L224.685 77.7533L222.533 73.24ZM212.693 53.4L210.392 48.9612L212.693 53.4ZM216.053 50.44L220.241 53.1713L220.268 53.1309L220.293 53.09L216.053 50.44ZM216.053 41.88L211.813 44.53L211.839 44.5709L211.865 44.6113L216.053 41.88ZM212.693 38.84L210.392 43.2788L212.693 38.84ZM202.453 38.84L200.217 34.3679L200.184 34.3843L200.152 34.4012L202.453 38.84ZM199.093 41.88L203.281 44.6113L203.308 44.5709L203.333 44.53L199.093 41.88ZM199.093 50.44L194.853 53.09L194.879 53.1309L194.905 53.1713L199.093 50.44ZM202.453 53.4L200.152 57.8388L200.184 57.8557L200.217 57.8721L202.453 53.4ZM206.293 76.44V71.44C201.074 71.44 196.777 70.5073 193.262 68.815L191.093 73.32L188.924 77.825C194.049 80.2927 199.886 81.44 206.293 81.44V76.44ZM191.093 73.32L193.284 68.8256C189.826 67.1397 187.261 64.813 185.44 61.8327L181.173 64.44L176.907 67.0472C179.779 71.747 183.827 75.3403 188.902 77.8144L191.093 73.32ZM181.173 64.44L185.455 61.8589C183.65 58.8631 182.653 55.1995 182.653 50.68H177.653H172.653C172.653 56.7205 174.003 62.2302 176.891 67.0211L181.173 64.44ZM177.653 50.68H182.653C182.653 45.49 183.687 41.173 185.591 37.5819L181.173 35.24L176.755 32.8981C173.966 38.1603 172.653 44.1366 172.653 50.68H177.653ZM181.173 35.24L185.569 37.6231C187.529 34.0068 190.227 31.2527 193.722 29.2678L191.253 24.92L188.784 20.5722C183.639 23.4939 179.617 27.6198 176.778 32.8569L181.173 35.24ZM191.253 24.92L193.74 29.258C197.247 27.2478 201.457 26.16 206.533 26.16V21.16V16.16C199.983 16.16 194.006 17.5789 188.767 20.582L191.253 24.92ZM206.533 21.16V26.16C212.071 26.16 216.595 27.2316 220.274 29.1789L222.613 24.76L224.953 20.3411C219.564 17.4884 213.369 16.16 206.533 16.16V21.16ZM222.613 24.76L220.274 29.1789C224.003 31.1533 226.825 33.862 228.848 37.3494L233.173 34.84L237.498 32.3306C234.508 27.178 230.29 23.1667 224.953 20.3411L222.613 24.76ZM233.173 34.84L228.862 37.3727C230.852 40.7604 231.933 44.8454 231.933 49.8H236.933H241.933C241.933 43.3412 240.507 37.4529 237.484 32.3073L233.173 34.84ZM236.933 49.8H231.933C231.933 54.5107 230.867 58.3037 228.936 61.3849L233.173 64.04L237.41 66.6951C240.492 61.7763 241.933 56.0759 241.933 49.8H236.933ZM233.173 64.04L228.952 61.3593C226.993 64.4443 224.196 66.9079 220.381 68.7267L222.533 73.24L224.685 77.7533C230.043 75.1988 234.34 71.5291 237.394 66.7207L233.173 64.04ZM222.533 73.24L220.424 68.7064C216.634 70.4694 211.971 71.44 206.293 71.44V76.44V81.44C213.095 81.44 219.259 80.2773 224.642 77.7736L222.533 73.24ZM207.573 54.52V59.52C210.176 59.52 212.706 59.0257 214.995 57.8388L212.693 53.4L210.392 48.9612C209.801 49.2676 208.917 49.52 207.573 49.52V54.52ZM212.693 53.4L214.995 57.8388C217.116 56.7389 218.921 55.1959 220.241 53.1713L216.053 50.44L211.865 47.7087C211.585 48.1375 211.15 48.5678 210.392 48.9612L212.693 53.4ZM216.053 50.44L220.293 53.09C221.62 50.9669 222.253 48.5983 222.253 46.12H217.253H212.253C212.253 46.8417 212.086 47.3531 211.813 47.79L216.053 50.44ZM217.253 46.12H222.253C222.253 43.6435 221.62 41.2626 220.241 39.1487L216.053 41.88L211.865 44.6113C212.086 44.9507 212.253 45.3965 212.253 46.12H217.253ZM216.053 41.88L220.293 39.23C218.983 37.1344 217.168 35.5281 214.995 34.4012L212.693 38.84L210.392 43.2788C211.098 43.6453 211.523 44.0656 211.813 44.53L216.053 41.88ZM212.693 38.84L214.995 34.4012C212.706 33.2143 210.176 32.72 207.573 32.72V37.72V42.72C208.917 42.72 209.801 42.9724 210.392 43.2788L212.693 38.84ZM207.573 37.72V32.72C204.994 32.72 202.502 33.2254 200.217 34.3679L202.453 38.84L204.689 43.3121C205.391 42.9613 206.313 42.72 207.573 42.72V37.72ZM202.453 38.84L200.152 34.4012C197.978 35.5281 196.163 37.1344 194.853 39.23L199.093 41.88L203.333 44.53C203.623 44.0656 204.048 43.6453 204.755 43.2788L202.453 38.84ZM199.093 41.88L194.905 39.1487C193.526 41.2626 192.893 43.6435 192.893 46.12H197.893H202.893C202.893 45.3965 203.06 44.9507 203.281 44.6113L199.093 41.88ZM197.893 46.12H192.893C192.893 48.5983 193.526 50.9669 194.853 53.09L199.093 50.44L203.333 47.79C203.06 47.3531 202.893 46.8417 202.893 46.12H197.893ZM199.093 50.44L194.905 53.1713C196.225 55.1959 198.03 56.7389 200.152 57.8388L202.453 53.4L204.755 48.9612C203.996 48.5678 203.561 48.1375 203.281 47.7087L199.093 50.44ZM202.453 53.4L200.217 57.8721C202.502 59.0146 204.994 59.52 207.573 59.52V54.52V49.52C206.313 49.52 205.391 49.2787 204.689 48.9279L202.453 53.4ZM245.052 76.68L241.625 80.321L241.654 80.3481L241.683 80.3748L245.052 76.68ZM241.212 68.44L236.294 69.3405L236.3 69.3739L236.306 69.4073L241.212 68.44ZM241.852 38.6L246.671 39.9317L241.852 38.6ZM246.172 28.68L242.059 25.8371L242.052 25.8474L246.172 28.68ZM255.772 21L257.562 25.6684L257.59 25.6577L257.618 25.6468L255.772 21ZM284.252 23.32L280.894 27.0249L284.252 23.32ZM287.052 44.2L282.849 41.4915L282.841 41.5035L282.834 41.5156L287.052 44.2ZM280.892 49.64L283.016 54.1662L283.054 54.1486L283.091 54.1303L280.892 49.64ZM271.852 51.64L271.696 46.6424L266.852 46.7938V51.64H271.852ZM271.852 51.96H266.852V55.7194L270.463 56.7633L271.852 51.96ZM286.332 58.84L282.938 62.5114L282.956 62.5288L282.975 62.546L286.332 58.84ZM288.332 72.92L291.734 76.584L291.769 76.5519L291.803 76.5192L288.332 72.92ZM274.252 73.08L271.782 77.4273L271.84 77.4603L271.899 77.4918L274.252 73.08ZM267.452 66.28L263.302 69.0692L263.313 69.0851L263.324 69.101L267.452 66.28ZM260.332 52.84L264.894 50.7935L263.569 47.84H260.332V52.84ZM260.012 52.84V47.84H253.174L255.247 54.356L260.012 52.84ZM261.052 57.24L256.133 58.1344L256.135 58.1479L256.138 58.1614L261.052 57.24ZM261.852 62.6L256.884 63.1677L256.885 63.176L256.886 63.1842L261.852 62.6ZM260.012 76.2L255.973 73.2527L255.947 73.2887L255.921 73.3253L260.012 76.2ZM272.572 42.52L270.541 37.9509H270.541L272.572 42.52ZM275.932 39.8L271.888 36.8591L271.844 36.9206L271.801 36.9833L275.932 39.8ZM263.292 29.64L265.466 34.1428L265.497 34.1277L265.528 34.1121L263.292 29.64ZM259.692 32.68L263.796 35.5353L263.825 35.4947L263.852 35.4535L259.692 32.68ZM260.812 41.64L257.688 45.5443L257.76 45.6012L257.833 45.6555L260.812 41.64ZM252.652 79.16V74.16C250.23 74.16 249.047 73.5561 248.421 72.9852L245.052 76.68L241.683 80.3748C244.684 83.1106 248.567 84.16 252.652 84.16V79.16ZM245.052 76.68L248.479 73.039C247.739 72.343 246.766 70.761 246.117 67.4727L241.212 68.44L236.306 69.4073C237.151 73.6923 238.738 77.6036 241.625 80.321L245.052 76.68ZM241.212 68.44L246.13 67.5395C245.515 64.1784 245.172 59.4517 245.172 53.24H240.172H235.172C235.172 59.7217 235.522 65.1283 236.294 69.3405L241.212 68.44ZM240.172 53.24H245.172C245.172 47.8347 245.705 43.4282 246.671 39.9317L241.852 38.6L237.032 37.2683C235.759 41.8785 235.172 47.232 235.172 53.24H240.172ZM241.852 38.6L246.671 39.9317C247.692 36.2374 248.936 33.4847 250.292 31.5126L246.172 28.68L242.052 25.8474C239.887 28.9953 238.252 32.8559 237.032 37.2683L241.852 38.6ZM246.172 28.68L250.285 31.5229C252.254 28.6747 254.665 26.7798 257.562 25.6684L255.772 21L253.981 16.3316C249.092 18.2068 245.103 21.432 242.059 25.8371L246.172 28.68ZM255.772 21L257.618 25.6468C260.877 24.352 264.458 23.68 268.412 23.68V18.68V13.68C263.299 13.68 258.453 14.5547 253.926 16.3532L255.772 21ZM268.412 18.68V23.68C274.975 23.68 278.793 25.1207 280.894 27.0249L284.252 23.32L287.609 19.6151C282.884 15.3327 276.142 13.68 268.412 13.68V18.68ZM284.252 23.32L280.894 27.0249C283.151 29.0697 284.372 31.7473 284.372 35.56H289.372H294.372C294.372 29.2393 292.18 23.757 287.609 19.6151L284.252 23.32ZM289.372 35.56H284.372C284.372 38.1321 283.789 40.0329 282.849 41.4915L287.052 44.2L291.255 46.9085C293.408 43.5671 294.372 39.7079 294.372 35.56H289.372ZM287.052 44.2L282.834 41.5156C281.858 43.0493 280.519 44.2549 278.693 45.1497L280.892 49.64L283.091 54.1303C286.491 52.4651 289.259 50.044 291.27 46.8844L287.052 44.2ZM280.892 49.64L278.767 45.1138C276.873 46.0028 274.55 46.5532 271.696 46.6424L271.852 51.64L272.008 56.6376C275.98 56.5134 279.684 55.7305 283.016 54.1662L280.892 49.64ZM271.852 51.64H266.852V51.96H271.852H276.852V51.64H271.852ZM271.852 51.96L270.463 56.7633C277.073 58.6739 280.983 60.7042 282.938 62.5114L286.332 58.84L289.726 55.1686C286.027 51.7491 280.284 49.1928 273.24 47.1567L271.852 51.96ZM286.332 58.84L282.975 62.546C285.064 64.4378 285.572 65.9542 285.572 67.16H290.572H295.572C295.572 62.3925 293.253 58.3622 289.688 55.134L286.332 58.84ZM290.572 67.16H285.572C285.572 68.4343 285.222 68.9728 284.861 69.3208L288.332 72.92L291.803 76.5192C294.428 73.9872 295.572 70.6857 295.572 67.16H290.572ZM288.332 72.92L284.93 69.256C284.582 69.5791 283.887 70 282.252 70V75V80C285.737 80 289.095 79.0342 291.734 76.584L288.332 72.92ZM282.252 75V70C280.073 70 278.225 69.5321 276.605 68.6682L274.252 73.08L271.899 77.4918C275.079 79.1879 278.564 80 282.252 80V75ZM274.252 73.08L276.722 68.7327C275.261 67.9027 273.511 66.2853 271.58 63.459L267.452 66.28L263.324 69.101C265.766 72.6747 268.549 75.5907 271.782 77.4273L274.252 73.08ZM267.452 66.28L271.602 63.4908C269.638 60.569 267.397 56.3745 264.894 50.7935L260.332 52.84L255.77 54.8865C258.386 60.7189 260.893 65.4843 263.302 69.0692L267.452 66.28ZM260.332 52.84V47.84H260.012V52.84V57.84H260.332V52.84ZM260.012 52.84L255.247 54.356C255.534 55.2572 255.835 56.4997 256.133 58.1344L261.052 57.24L265.971 56.3456C265.628 54.4603 265.236 52.7695 264.776 51.324L260.012 52.84ZM261.052 57.24L256.138 58.1614C256.434 59.7418 256.683 61.41 256.884 63.1677L261.852 62.6L266.82 62.0323C266.594 60.0566 266.31 58.1515 265.966 56.3186L261.052 57.24ZM261.852 62.6L256.886 63.1842C257.081 64.8372 257.172 66.3196 257.172 67.64H262.172H267.172C267.172 65.867 267.05 63.9895 266.818 62.0158L261.852 62.6ZM262.172 67.64H257.172C257.172 70.8402 256.537 72.48 255.973 73.2527L260.012 76.2L264.051 79.1473C266.367 75.9734 267.172 71.9064 267.172 67.64H262.172ZM260.012 76.2L255.921 73.3253C255.849 73.4278 255.337 74.16 252.652 74.16V79.16V84.16C257.007 84.16 261.402 82.9188 264.103 79.0747L260.012 76.2ZM267.532 43.48V48.48C270.002 48.48 272.4 48.0682 274.603 47.0891L272.572 42.52L270.541 37.9509C269.864 38.2518 268.902 38.48 267.532 38.48V43.48ZM272.572 42.52L274.603 47.0891C276.796 46.1142 278.683 44.6405 280.063 42.6167L275.932 39.8L271.801 36.9833C271.581 37.3062 271.228 37.6458 270.541 37.9509L272.572 42.52ZM275.932 39.8L279.976 42.7409C281.514 40.625 282.212 38.1825 282.212 35.64H277.212H272.212C272.212 36.2975 272.056 36.6283 271.888 36.8591L275.932 39.8ZM277.212 35.64H282.212C282.212 32.3976 281.097 29.4262 278.816 27.0545L275.212 30.52L271.608 33.9855C271.994 34.3871 272.212 34.829 272.212 35.64H277.212ZM275.212 30.52L278.816 27.0545C276.158 24.2901 272.459 23.44 268.892 23.44V28.44V33.44C271.085 33.44 271.599 33.9765 271.608 33.9855L275.212 30.52ZM268.892 28.44V23.44C266.131 23.44 263.471 23.96 261.056 25.1679L263.292 29.64L265.528 34.1121C266.312 33.72 267.387 33.44 268.892 33.44V28.44ZM263.292 29.64L261.118 25.1372C258.863 26.2261 256.937 27.7989 255.532 29.9065L259.692 32.68L263.852 35.4535C264.154 35.0011 264.628 34.5472 265.466 34.1428L263.292 29.64ZM259.692 32.68L255.587 29.8247C254.151 31.8888 253.412 34.2451 253.412 36.76H258.412H263.412C263.412 36.2882 263.526 35.9245 263.796 35.5353L259.692 32.68ZM258.412 36.76H253.412C253.412 40.3185 254.955 43.3577 257.688 45.5443L260.812 41.64L263.935 37.7357C263.469 37.3623 263.412 37.1482 263.412 36.76H258.412ZM260.812 41.64L257.833 45.6555C260.617 47.7215 264.025 48.48 267.532 48.48V43.48V38.48C265.385 38.48 264.313 38.0118 263.791 37.6245L260.812 41.64ZM308.151 74.36L304.829 78.097L308.151 74.36ZM306.231 57.16L301.392 55.9018L301.38 55.9474L301.369 55.9931L306.231 57.16ZM308.791 49.72L304.239 47.651L304.228 47.675L304.217 47.6992L308.791 49.72ZM312.151 44.04L317.04 42.9924L314.856 32.8038L308.274 40.8816L312.151 44.04ZM312.631 46.28L311.784 51.2077L319.068 52.4598L317.52 45.2324L312.631 46.28ZM303.751 43.96L301.962 48.6293L303.751 43.96ZM297.511 40.52L294.31 44.3611L294.341 44.3868L294.372 44.4121L297.511 40.52ZM293.911 36.12L289.38 38.2344L289.408 38.2956L289.438 38.3561L293.911 36.12ZM294.471 24.12L290.204 21.5127L290.178 21.5564L290.152 21.6006L294.471 24.12ZM299.031 19.64L301.511 23.9812V23.9812L299.031 19.64ZM311.671 20.04L308.709 24.0683L308.775 24.1171L308.843 24.1636L311.671 20.04ZM316.151 25.48L311.638 27.6336L311.668 27.6959L311.699 27.7574L316.151 25.48ZM318.551 33.4L313.601 34.1071L314.214 38.4H318.551V33.4ZM318.871 33.4V38.4H322.575L323.654 34.8558L318.871 33.4ZM321.671 27.16L325.851 29.9033L325.87 29.874L325.889 29.8444L321.671 27.16ZM325.351 22.84L322.209 18.9503L322.172 18.9805L322.135 19.0115L325.351 22.84ZM329.671 20.36L328.041 15.6331L328.015 15.6421L327.989 15.6513L329.671 20.36ZM342.151 23L338.273 26.1564L338.313 26.2057L338.354 26.254L342.151 23ZM343.351 37.16L339.17 34.4167L339.14 34.463L339.111 34.51L343.351 37.16ZM338.631 41.72L341.301 45.9474L341.315 45.9385L341.329 45.9294L338.631 41.72ZM331.111 44.84L329.817 40.0103L329.806 40.0132L329.795 40.0162L331.111 44.84ZM321.031 46.36L316.512 44.2196L312.909 51.8255L321.312 51.3521L321.031 46.36ZM321.751 44.84L325.892 42.0385L320.983 34.7812L317.232 42.6996L321.751 44.84ZM325.111 51L320.537 53.0208V53.0208L325.111 51ZM327.511 57.96L322.66 59.1727L322.663 59.1859L322.667 59.1992L327.511 57.96ZM324.871 73.72L321.507 70.0203L324.871 73.72ZM315.671 76.92V71.92C313.539 71.92 312.298 71.357 311.472 70.623L308.151 74.36L304.829 78.097C307.843 80.7763 311.615 81.92 315.671 81.92V76.92ZM308.151 74.36L311.472 70.623C311.181 70.364 310.271 69.1384 310.271 65.16H305.271H300.271C300.271 70.0349 301.28 74.9427 304.829 78.097L308.151 74.36ZM305.271 65.16H310.271C310.271 62.8974 310.542 60.6222 311.093 58.3269L306.231 57.16L301.369 55.9931C300.64 59.0311 300.271 62.0893 300.271 65.16H305.271ZM306.231 57.16L311.07 58.4182C311.702 55.9872 312.47 53.7647 313.364 51.7408L308.791 49.72L304.217 47.6992C303.085 50.262 302.146 52.9995 301.392 55.9018L306.231 57.16ZM308.791 49.72L313.342 51.789C314.295 49.6941 315.206 48.2053 316.027 47.1984L312.151 44.04L308.274 40.8816C306.748 42.7547 305.42 45.0526 304.239 47.651L308.791 49.72ZM312.151 44.04L307.262 45.0876L307.742 47.3276L312.631 46.28L317.52 45.2324L317.04 42.9924L312.151 44.04ZM312.631 46.28L313.478 41.3523C310.298 40.8058 307.668 40.1062 305.539 39.2907L303.751 43.96L301.962 48.6293C304.846 49.7338 308.136 50.5808 311.784 51.2077L312.631 46.28ZM303.751 43.96L305.539 39.2907C303.398 38.4707 301.805 37.5599 300.649 36.6279L297.511 40.52L294.372 44.4121C296.523 46.1468 299.09 47.5293 301.962 48.6293L303.751 43.96ZM297.511 40.52L300.712 36.6789C299.555 35.7153 298.828 34.7739 298.383 33.8839L293.911 36.12L289.438 38.3561C290.594 40.6661 292.266 42.658 294.31 44.3611L297.511 40.52ZM293.911 36.12L298.442 34.0056C298.012 33.0858 297.791 32.103 297.791 31H292.791H287.791C287.791 33.5236 288.316 35.9542 289.38 38.2344L293.911 36.12ZM292.791 31H297.791C297.791 29.0415 298.197 27.655 298.79 26.6394L294.471 24.12L290.152 21.6006C288.504 24.425 287.791 27.6252 287.791 31H292.791ZM294.471 24.12L298.737 26.7272C299.492 25.4918 300.411 24.6099 301.511 23.9812L299.031 19.64L296.55 15.2988C293.917 16.8034 291.796 18.9082 290.204 21.5127L294.471 24.12ZM299.031 19.64L301.511 23.9812C302.609 23.3539 303.779 23.04 305.111 23.04V18.04V13.04C302.069 13.04 299.185 13.7927 296.55 15.2988L299.031 19.64ZM305.111 18.04V23.04C306.758 23.04 307.869 23.451 308.709 24.0683L311.671 20.04L314.633 16.0117C311.845 13.9623 308.584 13.04 305.111 13.04V18.04ZM311.671 20.04L308.843 24.1636C309.883 24.8765 310.84 25.9605 311.638 27.6336L316.151 25.48L320.663 23.3263C319.222 20.3061 317.192 17.7635 314.498 15.9164L311.671 20.04ZM316.151 25.48L311.699 27.7574C312.582 29.4823 313.239 31.5763 313.601 34.1071L318.551 33.4L323.5 32.6929C323.009 29.2504 322.066 26.0643 320.602 23.2026L316.151 25.48ZM318.551 33.4V38.4H318.871V33.4V28.4H318.551V33.4ZM318.871 33.4L323.654 34.8558C324.296 32.7471 325.049 31.1251 325.851 29.9033L321.671 27.16L317.49 24.4167C316.052 26.6082 314.939 29.1462 314.087 31.9442L318.871 33.4ZM321.671 27.16L325.889 29.8444C326.788 28.4322 327.692 27.4031 328.567 26.6685L325.351 22.84L322.135 19.0115C320.342 20.5169 318.794 22.3678 317.452 24.4756L321.671 27.16ZM325.351 22.84L328.492 26.7297C329.495 25.9194 330.45 25.3911 331.352 25.0687L329.671 20.36L327.989 15.6513C325.905 16.3955 323.979 17.5206 322.209 18.9503L325.351 22.84ZM329.671 20.36L331.301 25.0869C332.373 24.7171 333.342 24.56 334.231 24.56V19.56V14.56C332.132 14.56 330.062 14.9362 328.041 15.6331L329.671 20.36ZM334.231 19.56V24.56C336.4 24.56 337.509 25.2174 338.273 26.1564L342.151 23L346.028 19.8436C343.059 16.1959 338.888 14.56 334.231 14.56V19.56ZM342.151 23L338.354 26.254C339.378 27.4478 340.031 29.062 340.031 31.48H345.031H350.031C350.031 27.0713 348.764 23.0322 345.947 19.746L342.151 23ZM345.031 31.48H340.031C340.031 32.6048 339.745 33.5412 339.17 34.4167L343.351 37.16L347.531 39.9033C349.196 37.3654 350.031 34.5152 350.031 31.48H345.031ZM343.351 37.16L339.111 34.51C338.515 35.463 337.528 36.4876 335.932 37.5106L338.631 41.72L341.329 45.9294C343.893 44.2857 346.053 42.2704 347.591 39.81L343.351 37.16ZM338.631 41.72L335.961 37.4926C334.463 38.4387 332.45 39.3049 329.817 40.0103L331.111 44.84L332.404 49.6697C335.744 48.7751 338.745 47.5613 341.301 45.9474L338.631 41.72ZM331.111 44.84L329.795 40.0162C327.271 40.7047 324.268 41.1697 320.749 41.3679L321.031 46.36L321.312 51.3521C325.366 51.1237 329.084 50.5753 332.426 49.6638L331.111 44.84ZM321.031 46.36L325.549 48.5004L326.269 46.9804L321.751 44.84L317.232 42.6996L316.512 44.2196L321.031 46.36ZM321.751 44.84L317.609 47.6415C318.647 49.1755 319.627 50.9617 320.537 53.0208L325.111 51L329.684 48.9792C328.567 46.4516 327.308 44.1311 325.892 42.0385L321.751 44.84ZM325.111 51L320.537 53.0208C321.439 55.0627 322.145 57.1127 322.66 59.1727L327.511 57.96L332.361 56.7473C331.703 54.114 330.809 51.524 329.684 48.9792L325.111 51ZM327.511 57.96L322.667 59.1992C323.167 61.1535 323.391 62.8943 323.391 64.44H328.391H333.391C333.391 61.9324 333.028 59.3531 332.355 56.7208L327.511 57.96ZM328.391 64.44H323.391C323.391 67.5016 322.538 69.0829 321.507 70.0203L324.871 73.72L328.234 77.4197C331.896 74.0905 333.391 69.485 333.391 64.44H328.391ZM324.871 73.72L321.507 70.0203C320.254 71.1599 318.468 71.92 315.671 71.92V76.92V81.92C320.446 81.92 324.794 80.5467 328.234 77.4197L324.871 73.72Z" fill="black" mask="url(#path-1-outside-1_10_360)"/>
</g>
<defs>
<filter id="filter0_dd_10_360" x="0" y="4.95999" width="354.031" height="87.28" filterUnits="userSpaceOnUse" color-interpolation-filters="sRGB">
<feFlood flood-opacity="0" result="BackgroundImageFix"/>
<feColorMatrix in="SourceAlpha" type="matrix" values="0 0 0 0 0 0 0 0 0 0 0 0 0 0 0 0 0 0 127 0" result="hardAlpha"/>
<feOffset dy="4"/>
<feGaussianBlur stdDeviation="2"/>
<feComposite in2="hardAlpha" operator="out"/>
<feColorMatrix type="matrix" values="0 0 0 0 0.00392157 0 0 0 0 0.6 0 0 0 0 0.368627 0 0 0 1 0"/>
<feBlend mode="normal" in2="BackgroundImageFix" result="effect1_dropShadow_10_360"/>
<feColorMatrix in="SourceAlpha" type="matrix" values="0 0 0 0 0 0 0 0 0 0 0 0 0 0 0 0 0 0 127 0" result="hardAlpha"/>
<feOffset dy="-4"/>
<feGaussianBlur stdDeviation="2"/>
<feComposite in2="hardAlpha" operator="out"/>
<feColorMatrix type="matrix" values="0 0 0 0 0.6 0 0 0 0 0.490196 0 0 0 0 0.00392157 0 0 0 1 0"/>
<feBlend mode="normal" in2="effect1_dropShadow_10_360" result="effect2_dropShadow_10_360"/>
<feBlend mode="normal" in="SourceGraphic" in2="effect2_dropShadow_10_360" result="shape"/>
</filter>
</defs>
</svg>
