<svg width="105" height="33" viewBox="0 0 105 33" fill="none" xmlns="http://www.w3.org/2000/svg">
<g filter="url(#filter0_d_43_2275)">
<rect x="4" width="97" height="28" rx="10" fill="white" shape-rendering="crispEdges"/>
<rect x="4.5" y="0.5" width="96" height="27" rx="9.5" stroke="black" shape-rendering="crispEdges"/>
<path d="M31.9727 21.22C30.2661 21.22 28.8461 20.94 27.7127 20.38C26.5794 19.8067 25.7327 19.0067 25.1727 17.98C24.6261 16.9533 24.3527 15.7533 24.3527 14.38C24.3527 12.86 24.6661 11.5333 25.2927 10.4C25.9194 9.25333 26.8194 8.36667 27.9927 7.74C29.1794 7.11333 30.6061 6.8 32.2727 6.8C33.8327 6.8 35.0261 7.11333 35.8527 7.74C36.6927 8.35333 37.1127 9.2 37.1127 10.28C37.1127 11.0667 36.8927 11.6933 36.4527 12.16C36.0261 12.6133 35.3994 12.84 34.5727 12.84C34.1194 12.84 33.7261 12.78 33.3927 12.66C33.0594 12.54 32.7261 12.4267 32.3927 12.32C32.0594 12.2 31.6727 12.14 31.2327 12.14C30.8594 12.14 30.5061 12.2 30.1727 12.32C29.8527 12.4267 29.5927 12.62 29.3927 12.9C29.2061 13.1667 29.1127 13.54 29.1127 14.02C29.1127 14.6467 29.2994 15.0933 29.6727 15.36C30.0594 15.6267 30.5661 15.76 31.1927 15.76C31.5127 15.76 31.8727 15.74 32.2727 15.7C32.6727 15.6467 33.0661 15.6 33.4527 15.56C33.8527 15.52 34.1927 15.5 34.4727 15.5C35.1794 15.5 35.7394 15.7 36.1527 16.1C36.5794 16.4867 36.7927 17.0733 36.7927 17.86C36.7927 18.8867 36.3994 19.7067 35.6127 20.32C34.8394 20.92 33.6261 21.22 31.9727 21.22ZM40.5968 21.04C39.9835 21.04 39.4901 20.9267 39.1168 20.7C38.7435 20.46 38.4501 20.0533 38.2368 19.48C38.0235 18.92 37.8635 18.14 37.7568 17.14C37.6635 16.1267 37.6168 14.9067 37.6168 13.48C37.6168 12.6267 37.6501 11.76 37.7168 10.88C37.7968 10 37.8968 9.2 38.0168 8.48C38.1501 7.74667 38.2901 7.2 38.4368 6.84C38.6901 6.24 38.9701 5.81333 39.2768 5.56C39.5835 5.30667 39.9635 5.18 40.4168 5.18C40.8968 5.18 41.2968 5.31333 41.6168 5.58C41.9368 5.83333 42.1701 6.26 42.3168 6.86C42.4235 7.3 42.5101 7.82667 42.5768 8.44C42.6435 9.05333 42.6768 9.7 42.6768 10.38C42.6768 11.14 42.6301 11.9467 42.5368 12.8C42.4435 13.64 42.3168 14.4667 42.1568 15.28C42.0101 16.08 41.8301 16.82 41.6168 17.5L39.7968 17.68C40.1835 17.3867 40.6101 17.16 41.0768 17C41.5568 16.84 42.0035 16.76 42.4168 16.76C42.9635 16.76 43.3835 16.9 43.6768 17.18C43.9835 17.4467 44.1368 17.8667 44.1368 18.44C44.1368 18.92 43.9835 19.36 43.6768 19.76C43.3701 20.1467 42.9501 20.46 42.4168 20.7C41.8968 20.9267 41.2901 21.04 40.5968 21.04ZM50.4485 21.06C49.2485 21.06 48.2018 20.8267 47.3085 20.36C46.4285 19.88 45.7418 19.2 45.2485 18.32C44.7685 17.44 44.5285 16.3933 44.5285 15.18C44.5285 13.9133 44.7752 12.8067 45.2685 11.86C45.7618 10.9133 46.4552 10.1733 47.3485 9.64C48.2552 9.10667 49.3085 8.84 50.5085 8.84C51.7885 8.84 52.8952 9.1 53.8285 9.62C54.7752 10.1267 55.5085 10.84 56.0285 11.76C56.5485 12.68 56.8085 13.7533 56.8085 14.98C56.8085 16.2333 56.5418 17.3133 56.0085 18.22C55.4885 19.1267 54.7552 19.8267 53.8085 20.32C52.8618 20.8133 51.7418 21.06 50.4485 21.06ZM50.7285 16.94C51.2485 16.94 51.6618 16.74 51.9685 16.34C52.2885 15.94 52.4485 15.4067 52.4485 14.74C52.4485 14.0733 52.2885 13.54 51.9685 13.14C51.6618 12.74 51.2485 12.54 50.7285 12.54C50.1952 12.54 49.7685 12.74 49.4485 13.14C49.1418 13.54 48.9885 14.0733 48.9885 14.74C48.9885 15.4067 49.1418 15.94 49.4485 16.34C49.7685 16.74 50.1952 16.94 50.7285 16.94ZM63.4596 8.48C64.8996 8.48 65.9329 8.73333 66.5596 9.24C67.1996 9.73333 67.5196 10.3733 67.5196 11.16C67.5196 11.6533 67.3529 12.06 67.0196 12.38C66.6996 12.7 66.2463 12.86 65.6596 12.86C65.2329 12.86 64.7729 12.7933 64.2796 12.66C63.7996 12.5133 63.2463 12.44 62.6196 12.44C62.3263 12.44 62.0996 12.4933 61.9396 12.6C61.7929 12.7067 61.7196 12.8467 61.7196 13.02C61.7196 13.1933 61.7996 13.34 61.9596 13.46C62.1329 13.5667 62.5063 13.6533 63.0796 13.72C64.0929 13.8 64.9463 13.96 65.6396 14.2C66.3463 14.44 66.8796 14.8133 67.2396 15.32C67.5996 15.8133 67.7796 16.5 67.7796 17.38C67.7796 18.6733 67.2929 19.6133 66.3196 20.2C65.3596 20.7867 64.0196 21.08 62.2996 21.08C61.1129 21.08 60.1596 20.9667 59.4396 20.74C58.7196 20.5 58.1996 20.1733 57.8796 19.76C57.5596 19.3333 57.3996 18.8467 57.3996 18.3C57.3996 17.7667 57.5729 17.3533 57.9196 17.06C58.2796 16.7533 58.6996 16.6 59.1796 16.6C59.4863 16.6 59.8129 16.6467 60.1596 16.74C60.5063 16.82 60.8729 16.9067 61.2596 17C61.6463 17.0933 62.0396 17.14 62.4396 17.14C62.9729 17.14 63.2396 16.9867 63.2396 16.68C63.2396 16.5733 63.2063 16.48 63.1396 16.4C63.0863 16.3067 62.9596 16.2267 62.7596 16.16C62.5729 16.08 62.2796 16.02 61.8796 15.98C60.9863 15.8733 60.2129 15.7133 59.5596 15.5C58.9063 15.2867 58.3996 14.96 58.0396 14.52C57.6796 14.0667 57.4996 13.4533 57.4996 12.68C57.4996 11.4267 58.0196 10.4133 59.0596 9.64C60.0996 8.86667 61.5663 8.48 63.4596 8.48ZM75.0562 21.16C73.4162 21.16 72.1095 20.94 71.1362 20.5C70.1628 20.06 69.4562 19.4267 69.0162 18.6C68.5895 17.7733 68.3762 16.7867 68.3762 15.64C68.3762 14.1867 68.6762 12.9533 69.2762 11.94C69.8895 10.9133 70.7228 10.1267 71.7762 9.58C72.8428 9.03333 74.0495 8.76 75.3962 8.76C76.9962 8.76 78.1695 9.08 78.9162 9.72C79.6628 10.3467 80.0362 11.1733 80.0362 12.2C80.0362 13.0133 79.8095 13.72 79.3562 14.32C78.9162 14.92 78.2962 15.38 77.4962 15.7C76.7095 16.02 75.7962 16.18 74.7562 16.18C74.2762 16.18 73.8095 16.1467 73.3562 16.08C72.9028 16.0133 72.4962 15.9267 72.1362 15.82L72.6162 14.7C72.5762 15.02 72.5562 15.34 72.5562 15.66C72.5562 16.2333 72.7628 16.64 73.1762 16.88C73.6028 17.12 74.1895 17.24 74.9362 17.24C75.6562 17.24 76.2695 17.1667 76.7762 17.02C77.2828 16.86 77.7295 16.7067 78.1162 16.56C78.5028 16.4 78.8695 16.32 79.2162 16.32C79.4562 16.32 79.7028 16.38 79.9562 16.5C80.2095 16.62 80.4228 16.8067 80.5962 17.06C80.7695 17.3133 80.8562 17.6533 80.8562 18.08C80.8562 18.6667 80.6362 19.1933 80.1962 19.66C79.7562 20.1267 79.1028 20.4933 78.2362 20.76C77.3828 21.0267 76.3228 21.16 75.0562 21.16ZM73.8962 14.18C74.5362 14.18 75.0895 14.0267 75.5562 13.72C76.0228 13.4 76.2562 13.0133 76.2562 12.56C76.2562 12.2667 76.1495 12.0267 75.9362 11.84C75.7228 11.6533 75.4295 11.56 75.0562 11.56C74.6428 11.56 74.2495 11.64 73.8762 11.8C73.5162 11.96 73.2228 12.1667 72.9962 12.42C72.7695 12.6733 72.6562 12.9533 72.6562 13.26C72.6562 13.5533 72.7628 13.78 72.9762 13.94C73.2028 14.1 73.5095 14.18 73.8962 14.18Z" fill="#204235"/>
</g>
<defs>
<filter id="filter0_d_43_2275" x="0" y="0" width="105" height="36" filterUnits="userSpaceOnUse" color-interpolation-filters="sRGB">
<feFlood flood-opacity="0" result="BackgroundImageFix"/>
<feColorMatrix in="SourceAlpha" type="matrix" values="0 0 0 0 0 0 0 0 0 0 0 0 0 0 0 0 0 0 127 0" result="hardAlpha"/>
<feOffset dy="4"/>
<feGaussianBlur stdDeviation="2"/>
<feComposite in2="hardAlpha" operator="out"/>
<feColorMatrix type="matrix" values="0 0 0 0 0 0 0 0 0 0 0 0 0 0 0 0 0 0 0.25 0"/>
<feBlend mode="normal" in2="BackgroundImageFix" result="effect1_dropShadow_43_2275"/>
<feBlend mode="normal" in="SourceGraphic" in2="effect1_dropShadow_43_2275" result="shape"/>
</filter>
</defs>
</svg>
