<svg width="85" height="123" viewBox="0 0 85 123" fill="none" xmlns="http://www.w3.org/2000/svg">
<g filter="url(#filter0_d_43_2284)">
<g filter="url(#filter1_d_43_2284)">
<rect x="4" width="76.25" height="114.5" rx="6" fill="white" shape-rendering="crispEdges"/>
<rect x="5" y="1" width="74.25" height="112.5" rx="5" stroke="black" stroke-width="2" shape-rendering="crispEdges"/>
<path d="M52.0064 54.9122C51.6407 54.7182 51.1764 54.839 50.9695 55.1821C50.7628 55.5253 50.8915 55.9619 51.2578 56.1559C51.8196 56.4561 52.1625 56.791 52.3892 57.137C51.4509 57.4462 50.6193 57.5734 49.8844 57.5734C48.8089 57.5725 47.9293 57.3061 47.1875 56.8981C46.4476 56.489 45.8493 55.9298 45.3957 55.3496C44.648 54.3933 43.6751 53.5414 42.5285 52.92C41.3835 52.3004 40.0589 51.9132 38.6372 51.9132C37.3906 51.9124 36.0769 52.2135 34.7752 52.8842C34.243 53.1579 33.7817 53.4781 33.3799 53.8277C31.7964 54.3997 30.4319 54.6055 29.2775 54.6055C27.633 54.6055 26.4045 54.1909 25.5831 53.7837C25.173 53.5805 24.8663 53.3783 24.6678 53.2319C24.5682 53.1578 24.4957 53.0991 24.4507 53.0608L24.4039 53.0186L24.3965 53.0122H24.3962C24.1045 52.7312 23.6246 52.724 23.3227 52.9967C23.0204 53.2702 23.0116 53.7223 23.3033 54.006C23.3457 54.0463 23.8689 54.5487 24.8707 55.0466C25.3091 55.2644 25.8466 55.4785 26.4674 55.6533C26.3025 55.8711 26.0773 56.1895 25.832 56.5949C25.3603 57.3755 24.8185 58.471 24.5424 59.7632C24.46 60.1493 24.7273 60.5256 25.1394 60.6033C25.5515 60.6801 25.9528 60.4293 26.0348 60.0423C26.2664 58.9543 26.7395 57.987 27.1559 57.2997C27.3637 56.9556 27.5564 56.6819 27.6949 56.4979C27.7642 56.4056 27.8197 56.335 27.8569 56.2893C27.8753 56.2672 27.8895 56.2499 27.8979 56.2398L27.9066 56.2297L27.9076 56.2288L27.9081 56.2278C27.9783 56.1473 28.0252 56.0567 28.0519 55.9616C28.4392 56.0063 28.8459 56.0339 29.2775 56.0329C30.0778 56.0339 30.9541 55.9451 31.8979 55.7438C31.4301 56.69 31.2376 57.6775 31.237 58.5826C31.2389 59.4941 31.4238 60.3214 31.7535 60.9803C31.9334 61.3372 32.3874 61.489 32.7673 61.3207C33.1472 61.1523 33.3096 60.7259 33.1297 60.3699V60.369C32.9181 59.9554 32.757 59.3038 32.7595 58.5826C32.759 57.8047 32.938 56.9482 33.3672 56.1666C33.7987 55.3851 34.4689 54.6722 35.5072 54.1359C36.603 53.5731 37.6491 53.3424 38.6372 53.3416C39.7622 53.3416 40.8221 53.6464 41.7681 54.1569C42.7133 54.6685 43.539 55.3887 44.168 56.1939C44.7215 56.9023 45.4619 57.6015 46.4149 58.1286C47.3659 58.6557 48.5335 59.0025 49.8844 59.0016C50.7782 59.0016 51.7493 58.8496 52.792 58.5165L52.7945 58.5677C52.7945 58.9174 52.7365 59.2358 52.6784 59.4609C52.6497 59.5734 52.6209 59.6623 52.6009 59.7199C52.5907 59.7483 52.5829 59.7693 52.578 59.7812L52.5736 59.7922L52.5732 59.7939H52.5736C52.4195 60.1591 52.6092 60.5728 52.9984 60.7192C53.3885 60.8656 53.8318 60.6871 53.9879 60.3211C54.0074 60.2698 54.3138 59.557 54.3166 58.5676C54.3166 58.0002 54.2107 57.334 53.8591 56.6761C53.51 56.0186 52.9072 55.3871 52.0064 54.9122Z" fill="#214336"/>
<path d="M53.7028 50.1433C51.6107 50.1433 49.9305 49.4203 48.7684 48.4741C48.1885 48.0019 47.7427 47.4738 47.4497 46.9687C47.1551 46.4626 47.02 45.9812 47.022 45.6207C47.022 45.2262 46.6811 44.9069 46.2608 44.9069C45.8404 44.9069 45.4998 45.2262 45.4998 45.6207C45.5018 46.2923 45.7256 46.9806 46.1129 47.6505C46.5182 48.3479 47.1102 49.025 47.8628 49.6216C47.7111 49.8193 47.5018 50.0738 47.2346 50.3465C46.6547 50.9404 45.8189 51.5984 44.821 51.9306C44.425 52.0633 44.2187 52.4724 44.3602 52.8429C44.5016 53.2145 44.9372 53.4086 45.3327 53.2758C46.687 52.8191 47.7008 51.9865 48.3886 51.278C48.6949 50.9614 48.9333 50.6722 49.1094 50.4407C50.3687 51.1225 51.9239 51.5727 53.703 51.5718C54.1229 51.5718 54.4644 51.2524 54.4644 50.858C54.464 50.4637 54.1227 50.1433 53.7028 50.1433Z" fill="#214336"/>
<path d="M48.6282 64.1084C47.2042 64.1084 46.0728 63.8503 45.1636 63.456C43.803 62.863 42.9202 61.9515 42.3648 61.0427C42.0878 60.5897 41.8966 60.1386 41.7761 59.7423C41.6551 59.3479 41.6078 59.002 41.6088 58.7924C41.6088 58.398 41.2684 58.0785 40.848 58.0785C40.4271 58.0785 40.0867 58.3979 40.0867 58.7924C40.0867 59.0496 40.1194 59.3342 40.1863 59.6471C40.3023 60.1925 40.5232 60.8231 40.8813 61.4728C41.4183 62.4466 42.2707 63.4678 43.5446 64.244C43.8635 64.4397 44.2088 64.6173 44.5804 64.7765C44.6384 65.0108 44.7189 65.4281 44.7184 65.9314C44.7184 66.2975 44.6764 66.7056 44.5584 67.1239C44.4404 67.5421 44.2482 67.9686 43.9429 68.3831C43.7035 68.708 43.7898 69.1527 44.1356 69.377C44.4815 69.6012 44.9554 69.5207 45.1945 69.1967C45.61 68.633 45.8732 68.0473 46.0303 67.489C46.1879 66.9299 46.2405 66.3982 46.2405 65.9314C46.2405 65.698 46.2269 65.4821 46.2063 65.2845C46.9399 65.4447 47.7436 65.5379 48.6282 65.537C49.0482 65.537 49.3891 65.2167 49.3891 64.8223C49.3891 64.4287 49.0482 64.1084 48.6282 64.1084Z" fill="#214336"/>
<path d="M58.9673 53.3812C58.5904 53.0765 58.1837 52.8266 57.7544 52.649C57.3257 52.4715 56.8727 52.3654 56.4088 52.3654C55.9885 52.3654 55.6476 52.6847 55.6476 53.0792C55.6476 53.4746 55.9885 53.7939 56.4088 53.7939C56.6888 53.793 57.0428 53.8845 57.415 54.0868C57.9728 54.3869 58.5528 54.9259 58.9746 55.6013C59.3989 56.2757 59.6676 57.0784 59.6672 57.9074C59.6638 58.8199 59.3575 59.7716 58.5284 60.718C58.2607 61.0227 58.3065 61.472 58.6308 61.7236C58.9547 61.9744 59.4346 61.9314 59.7023 61.6275C60.7469 60.445 61.1926 59.1337 61.1892 57.9074C61.1892 57.1625 61.0302 56.4497 60.763 55.7999C60.3611 54.826 59.7208 53.9924 58.9673 53.3812Z" fill="#214336"/>
<path d="M32.466 49.5739V49.573C32.9889 48.9919 33.7336 48.5362 34.5826 48.2296C35.4302 47.9221 36.3764 47.7683 37.2616 47.7693C38.1238 47.7674 38.9265 47.9166 39.5153 48.1737C39.8972 48.3385 40.3492 48.1829 40.5258 47.8242C40.7018 47.4663 40.5351 47.0427 40.1537 46.8769C39.3033 46.51 38.3039 46.3415 37.2617 46.3407C36.1917 46.3407 35.0753 46.5219 34.0355 46.8961C32.9983 47.2713 32.0322 47.8443 31.3041 48.6505C31.0324 48.9516 31.0724 49.4026 31.3933 49.6571C31.714 49.9126 32.1944 49.8741 32.466 49.5739Z" fill="#214336"/>
<path d="M66.9137 47.5106L66.914 47.5112L66.9137 47.5106Z" fill="#214336"/>
<path d="M50.9314 71.3517V71.3523H50.9312L50.9314 71.3517Z" fill="#214336"/>
<path d="M68.0765 52.3451C67.9419 52.217 67.7975 52.0952 67.6513 51.9755C67.7278 51.5755 67.7721 51.1683 67.7721 50.7546C67.7726 49.6583 67.4942 48.5418 66.9143 47.5114C66.2515 46.3299 65.2698 45.3927 64.1237 44.7576C63.322 44.3129 62.4402 44.0164 61.5263 43.8782C61.3045 43.1379 60.9566 42.4331 60.4894 41.7935C59.7116 40.7283 58.6055 39.8462 57.252 39.2998C56.284 38.909 55.2681 38.7214 54.2704 38.7214C54.2704 38.7214 54.2396 38.7205 54.1836 38.7251C52.9165 38.7389 51.6832 39.0509 50.5921 39.6211C50.1654 39.1388 49.6719 38.7095 49.1227 38.3481C47.919 37.5547 46.4472 37.0842 44.8724 37.0696C44.8543 37.0686 44.8324 37.0678 44.8056 37.0669C44.8022 37.0669 44.7988 37.0669 44.795 37.0669H44.794H44.793H44.7925C44.7901 37.0669 44.7877 37.0669 44.7853 37.0669C44.7707 37.0669 44.7531 37.0678 44.7307 37.0686C43.3594 37.0787 42.0635 37.4339 40.9564 38.0487C40.4766 38.3141 40.0386 38.6335 39.6368 38.9886C38.4898 38.3177 37.1344 37.926 35.6908 37.9197L35.6855 37.9188H35.6513C35.6504 37.9188 35.6498 37.9188 35.6489 37.9188C35.647 37.9188 35.645 37.9188 35.6427 37.9188C35.6251 37.9188 35.6031 37.9197 35.5753 37.9215C34.0395 37.9352 32.5993 38.3819 31.4119 39.1396C30.7238 39.578 30.1215 40.1207 29.6235 40.7419C28.9934 40.5819 28.3355 40.495 27.6634 40.495C27.1041 40.495 26.5369 40.5544 25.9722 40.6752C24.309 41.033 22.8885 41.8887 21.8705 43.0317H21.8711C21.1566 43.8324 20.6411 44.7768 20.3582 45.7954C19.2736 46.1405 18.2514 46.7189 17.3964 47.536C17.396 47.5369 17.395 47.5379 17.394 47.5388C15.9602 48.9106 15.2384 50.7051 15.2389 52.4869V52.4896V52.4933C15.2389 52.4933 15.2389 52.4951 15.2389 52.4969V52.5161H15.2394C15.2412 53.1356 15.3306 53.7534 15.5047 54.3537C14.5272 55.581 14.0005 57.0717 14 58.5974C13.9996 59.7266 14.2898 60.8751 14.893 61.9339C15.5708 63.1227 16.5677 64.0644 17.7274 64.7022C18.5409 65.1497 19.4338 65.4454 20.3589 65.5844C20.8515 66.8263 21.6962 67.8979 22.7769 68.6913C24.0624 69.6367 25.6841 70.1958 27.4217 70.1958C27.6022 70.1958 27.7822 70.1905 27.962 70.1776H27.9664H27.9688H27.9694H27.9698C28.7369 70.1254 29.4719 69.9635 30.1565 69.7136C30.6116 70.3981 31.1835 71.0029 31.8479 71.5018C33.1329 72.4673 34.7672 73.0439 36.5189 73.0512C36.5253 73.0521 36.5306 73.0521 36.5361 73.0521C36.542 73.0521 36.5477 73.0521 36.5532 73.0521H36.5542C36.5548 73.0521 36.5548 73.0521 36.5548 73.0521H36.5562H36.564C36.5665 73.0521 36.5675 73.0521 36.5699 73.0521L36.5889 73.0512H36.5943C36.7343 73.0503 36.8748 73.0448 37.0146 73.0366H37.0166L37.099 73.0347C37.7261 72.9916 38.3319 72.8772 38.9059 72.6998C39.6292 73.7074 40.6363 74.5575 41.8824 75.1213H41.8818C42.9332 75.5971 44.0549 75.825 45.1557 75.825C46.2276 75.825 47.2761 75.6064 48.2379 75.2018C49.6355 76.5946 51.6064 77.4311 53.7263 77.433C54.1911 77.433 54.6612 77.3927 55.1315 77.3095C56.9374 76.991 58.4848 76.0841 59.5675 74.8459H59.5671C60.2742 74.0397 60.783 73.088 61.0551 72.0611C62.304 71.9459 63.5433 71.5377 64.6386 70.8147C65.6809 70.1283 66.4885 69.2314 67.0298 68.2303C67.5712 67.2301 67.8501 66.1263 67.8501 65.0127C67.8501 64.2705 67.7214 63.5255 67.4683 62.8071C68.1183 62.3103 68.6932 61.7044 69.1517 60.9952C69.8931 59.8512 70.25 58.5756 70.25 57.3217C70.2497 55.4887 69.4923 53.6904 68.0765 52.3451ZM66.8748 59.6973C66.1096 60.8797 64.8761 61.6155 63.5287 61.8343C63.1141 61.9011 62.8362 62.2708 62.9073 62.6587C62.9785 63.0477 63.3721 63.3085 63.7862 63.2417C64.0959 63.1923 64.4008 63.12 64.6997 63.0285C65.0253 63.66 65.186 64.3372 65.186 65.0126C65.1864 65.7346 65.0046 66.452 64.6544 67.0991C64.3037 67.7462 63.7867 68.3217 63.1079 68.7702C62.253 69.332 61.2825 69.6003 60.3154 69.6011C60.2398 69.6011 60.1642 69.5956 60.0886 69.592C60.0726 69.4731 60.0569 69.355 60.0335 69.2369V69.236C59.8667 68.4077 59.5234 67.65 59.0517 66.9921L58.9942 66.9115L58.9162 66.8483C58.3391 66.3853 57.574 65.6238 56.9833 64.8478C56.6874 64.4607 56.4342 64.069 56.264 63.7204C56.0918 63.3717 56.0129 63.0669 56.0158 62.8867C56.0158 62.8062 56.0285 62.7522 56.0427 62.7156C56.0577 62.6799 56.0719 62.6588 56.1017 62.6296C56.3986 62.3514 56.3986 61.8984 56.1017 61.6202C55.8042 61.3411 55.3223 61.3411 55.0252 61.6202V61.6193C54.84 61.7931 54.7 62.0027 54.6141 62.2223C54.5283 62.442 54.4937 62.6681 54.4937 62.8868C54.4966 63.3819 54.6561 63.8504 54.8804 64.3152C55.2205 65.009 55.7276 65.698 56.2753 66.3267C56.7907 66.918 57.3394 67.4478 57.8305 67.8541C58.1684 68.3428 58.4153 68.8938 58.5372 69.5005C58.5884 69.7558 58.6167 70.0093 58.6206 70.2536L58.6211 70.2573C58.6216 70.2903 58.622 70.3223 58.622 70.3552C58.622 71.4351 58.2128 72.4554 57.5091 73.2598C56.8044 74.0634 55.8128 74.6454 54.6391 74.8531C54.3319 74.9072 54.027 74.9337 53.7271 74.9337C52.1129 74.9346 50.6195 74.1751 49.7222 72.9634C50.2051 72.504 50.6166 71.964 50.9316 71.3528C51.3223 70.5951 51.5271 69.7933 51.5646 69.0009C51.5832 68.6054 51.2575 68.2724 50.838 68.255C50.4177 68.2377 50.062 68.5432 50.0435 68.9368C50.0147 69.5436 49.8597 70.1512 49.5607 70.7304L49.5603 70.7323C49.2412 71.3527 48.7945 71.8716 48.2635 72.2826L48.2606 72.2843C47.3882 72.9561 46.2839 73.3258 45.156 73.3258C44.4449 73.3258 43.7246 73.1793 43.0393 72.87C41.7703 72.2952 40.8891 71.2795 40.4994 70.1118L40.4989 70.1109C40.3501 69.6679 40.2731 69.2039 40.2731 68.7364C40.2731 68.0692 40.4292 67.3939 40.7602 66.7478C40.9431 66.3927 40.7837 65.9662 40.4051 65.7951C40.0268 65.624 39.5717 65.7732 39.3893 66.1283C38.9571 66.9684 38.7509 67.8606 38.7509 68.7365C38.7509 69.161 38.8027 69.5812 38.8963 69.993C38.3018 70.2977 37.6312 70.4917 36.9064 70.5422H36.905C36.787 70.5495 36.6699 70.5531 36.5549 70.5531C35.4122 70.5531 34.3534 70.1815 33.5116 69.5502C32.7791 69.001 32.2178 68.257 31.9179 67.3958C32.4538 66.8998 32.8976 66.3197 33.2219 65.6763C33.4013 65.3203 33.239 64.8938 32.8591 64.7254C32.4791 64.557 32.0251 64.7089 31.8456 65.0659C31.5442 65.6643 31.1073 66.1952 30.5693 66.6207C29.8075 67.2237 28.8453 67.6127 27.7739 67.685H27.7724C27.6548 67.6923 27.5378 67.6968 27.4222 67.6968C25.0052 67.6977 22.9423 66.0249 22.5941 63.7828L22.5932 63.7773L22.5922 63.7717C22.5736 63.6656 22.5605 63.5539 22.5517 63.4387C22.5434 63.3269 22.5391 63.2172 22.5391 63.1074C22.5391 62.8181 22.5679 62.5354 22.6224 62.26C22.6986 61.8719 22.4254 61.4995 22.0119 61.4271C21.5988 61.3557 21.2019 61.612 21.1253 62C21.0546 62.3587 21.017 62.7294 21.017 63.1074L21.0185 63.1485C20.3343 63.0771 19.6701 62.8731 19.075 62.5455C18.3244 62.1327 17.6842 61.5297 17.2423 60.7554C16.8492 60.0654 16.6644 59.3278 16.6639 58.5984C16.6639 57.6576 16.9751 56.7334 17.551 55.9611C17.7714 56.2539 18.0227 56.5321 18.304 56.7911C18.9454 57.3823 19.6895 57.8207 20.4782 58.1061C20.8699 58.249 21.3108 58.0659 21.4624 57.698C21.6141 57.3302 21.4191 56.9165 21.0274 56.7746C20.4256 56.5558 19.8609 56.2237 19.3707 55.7716L19.3697 55.7708C18.9386 55.3745 18.6035 54.9225 18.362 54.4383C18.0563 53.8252 17.9027 53.1598 17.9027 52.4936C17.9031 51.3341 18.365 50.182 19.297 49.2879C20.0894 48.5311 21.0869 48.0881 22.1235 47.9554H22.1245H22.1255L22.1284 47.9545C22.3474 47.9271 22.5678 47.9124 22.7892 47.9134C24.0246 47.9143 25.255 48.3482 26.2075 49.2221C26.5078 49.4975 26.9897 49.4929 27.2838 49.2111C27.5779 48.9293 27.5725 48.4772 27.2722 48.2017C26.0602 47.0879 24.4884 46.5187 22.9141 46.4904C23.0936 45.8068 23.436 45.1717 23.9139 44.6363C24.5751 43.8951 25.4848 43.346 26.5678 43.1117C26.9357 43.0329 27.3024 42.9946 27.6632 42.9946C28.301 42.9946 28.921 43.1136 29.4939 43.3314C29.331 43.863 29.2414 44.4241 29.2414 45.0033C29.2414 45.3977 29.5823 45.7171 30.0026 45.7171C30.4229 45.7171 30.7634 45.3978 30.7634 45.0033C30.7634 44.3782 30.8976 43.7816 31.1371 43.2398C31.5047 42.4125 32.126 41.706 32.9078 41.2072C33.6912 40.7085 34.6309 40.4193 35.6501 40.4184C37.1166 40.4193 38.4266 41.0215 39.3244 41.9814L39.326 41.9824C40.0808 42.7885 40.5359 43.8428 40.5364 45.0032C40.5364 45.3976 40.8768 45.717 41.2977 45.717C41.7181 45.717 42.0585 45.3977 42.0585 45.0032C42.059 43.6845 41.6044 42.46 40.8344 41.4688C41.2285 40.9564 41.7308 40.5226 42.312 40.2005C43.0397 39.7969 43.8844 39.5663 44.7934 39.5663C45.8376 39.5663 46.7983 39.872 47.5919 40.3946C48.3853 40.9161 49.0067 41.6547 49.3573 42.5158L49.3568 42.515C49.5637 43.0247 49.6773 43.5729 49.6777 44.1512C49.6777 44.5456 50.0182 44.8652 50.4386 44.8652C50.859 44.8652 51.1999 44.5457 51.1999 44.1512C51.1999 43.5618 51.1057 42.9926 50.937 42.4546C51.8382 41.6666 53.0345 41.2209 54.2689 41.2209C54.9136 41.2209 55.5672 41.3417 56.1992 41.5961C57.0806 41.9522 57.7882 42.5186 58.2929 43.2086C58.7972 43.8977 59.0947 44.7094 59.145 45.5476C59.1498 45.6337 59.1528 45.7206 59.1528 45.8075C59.1522 46.4124 59.0249 47.0247 58.7539 47.6177C58.588 47.9802 58.7661 48.4001 59.1522 48.5557C59.5385 48.7121 59.9861 48.5438 60.152 48.1814C60.4344 47.5664 60.5967 46.9286 60.6518 46.2935C61.398 46.3402 62.1247 46.5524 62.7684 46.9094C63.5033 47.3176 64.1285 47.9123 64.5572 48.6756V48.6765C64.9323 49.3428 65.1078 50.0529 65.1083 50.7548C65.1083 51.0769 65.0687 51.3953 64.9961 51.7075C64.5367 51.5409 64.065 51.4265 63.5895 51.3634C63.1735 51.3085 62.7888 51.5804 62.7303 51.972C62.6717 52.3619 62.9614 52.7233 63.3779 52.7782C63.8554 52.8414 64.326 52.9705 64.7776 53.1699C64.8576 53.2917 64.9756 53.3932 65.1263 53.4536C65.2204 53.4911 65.318 53.5095 65.4146 53.5103C65.6954 53.686 65.951 53.8828 66.1792 54.1006L66.169 54.0906L66.1812 54.1025C67.0926 54.9664 67.5861 56.1332 67.5857 57.3219C67.5858 58.1333 67.3576 58.9525 66.8748 59.6973Z" fill="#214336"/>
</g>
</g>
<defs>
<filter id="filter0_d_43_2284" x="0" y="0" width="84.25" height="122.5" filterUnits="userSpaceOnUse" color-interpolation-filters="sRGB">
<feFlood flood-opacity="0" result="BackgroundImageFix"/>
<feColorMatrix in="SourceAlpha" type="matrix" values="0 0 0 0 0 0 0 0 0 0 0 0 0 0 0 0 0 0 127 0" result="hardAlpha"/>
<feOffset dy="4"/>
<feGaussianBlur stdDeviation="2"/>
<feComposite in2="hardAlpha" operator="out"/>
<feColorMatrix type="matrix" values="0 0 0 0 0 0 0 0 0 0 0 0 0 0 0 0 0 0 0.25 0"/>
<feBlend mode="normal" in2="BackgroundImageFix" result="effect1_dropShadow_43_2284"/>
<feBlend mode="normal" in="SourceGraphic" in2="effect1_dropShadow_43_2284" result="shape"/>
</filter>
<filter id="filter1_d_43_2284" x="0" y="0" width="84.25" height="122.5" filterUnits="userSpaceOnUse" color-interpolation-filters="sRGB">
<feFlood flood-opacity="0" result="BackgroundImageFix"/>
<feColorMatrix in="SourceAlpha" type="matrix" values="0 0 0 0 0 0 0 0 0 0 0 0 0 0 0 0 0 0 127 0" result="hardAlpha"/>
<feOffset dy="4"/>
<feGaussianBlur stdDeviation="2"/>
<feComposite in2="hardAlpha" operator="out"/>
<feColorMatrix type="matrix" values="0 0 0 0 0 0 0 0 0 0 0 0 0 0 0 0 0 0 0.25 0"/>
<feBlend mode="normal" in2="BackgroundImageFix" result="effect1_dropShadow_43_2284"/>
<feBlend mode="normal" in="SourceGraphic" in2="effect1_dropShadow_43_2284" result="shape"/>
</filter>
</defs>
</svg>
